<svg xmlns="http://www.w3.org/2000/svg">
<defs>
<font id="SangSangFlowerRoad" horiz-adv-x="535" >
  <font-face 
    font-family="SangSangFlowerRoad"
    font-weight="400"
    font-stretch="normal"
    units-per-em="1000"
    panose-1="2 2 6 3 2 1 1 2 1 1"
    ascent="800"
    descent="-200"
    x-height="463"
    cap-height="650"
    bbox="0 -194 950 936"
    underline-thickness="25"
    underline-position="-154"
    unicode-range="U+0020-D79D"
  />
<missing-glyph horiz-adv-x="522" 
d="M450 669l30 -37l-3 -3l17 -24l-4 -3l4 -4v-3l-4 -33l7 -7l-13 -44l3 -10l-3 -30v-7l3 -17h-3l3 -10l-3 -37l3 -13l-3 -10l6 -20l-3 -4v-3l3 -3l-3 -21l3 -30l-6 -17l6 -13l-10 -54l4 -3v-7l-4 -3l4 -3v-17q0 -19 -24 -34h-10l-3 3l-34 -10l-20 7l-3 -3h-4l-13 6l-67 -6
l-41 6l-60 -6l-4 3l-70 -7l-10 4l-10 -4l-20 4q0 -8 -44 -10l-40 60l-4 4l4 3l-4 3v4l4 33l-7 7l13 44l-3 10l3 30v10l-3 17h3l-3 10l3 37l-3 13l3 10l-6 20l3 4v3l-3 3l3 17l-3 30l6 17l-3 10h3l-3 4v3q1 50 7 50l-4 4v6l4 4l-4 3v17q0 19 24 34h10l3 -4l4 4h10l3 -4
q14 5 14 10l23 -6l3 3h4l17 -7l57 7v-3l3 3l10 -3l27 3l50 -3l10 3v-3l4 3h7v-3l70 6l10 -3l10 3l20 -3q0 8 44 10zM145 592l-9 -8l-4 4h-4q-55 -10 -55 -29l5 -26l-5 -12l5 -38v-8l-5 -17l5 -17l-5 -4l5 -4v-9l-5 -17l5 -4l-5 -17l9 -71l-9 -59l5 -17l-5 -4v-4
q7 -25 30 -25h8l17 4l55 -8l33 4l21 -4l9 8l4 -4h4l13 4l42 -8l33 4l21 -4l9 8l4 -4h4q55 10 55 29l-4 25l4 13l-4 38v8l4 17l-4 17l4 4l-4 4v9l4 16l-4 5l4 16l-9 72l9 59l-4 16l4 5v4q-7 25 -30 25h-8l-17 -4l-54 8l-34 -4l-13 4l-21 -8l-59 8l-33 -4zM381 559l11 -7
l11 -14l-3 -3l-6 -14l-4 3l1 -7l-16 -18l-51 -64l-7 -1l1 -7h-7l-4 3q-26 -29 39 -86l30 -47l21 -6l-6 -20q-17 -19 -43 -13l-40 47l-41 58l-40 -30l-31 -42l-51 -58l-14 -1q-19 17 -13 51h7l-1 7l20 15l9 17l4 -3l-1 7l3 3l7 1l3 3v14l6 7l33 23l6 14l3 -4l6 14l-28 26
l-1 7l-14 6l-4 17l-21 12l-15 13q-40 49 -31 60l7 7q17 10 45 -15l18 -16v-7l7 1l33 -36l40 -35l15 25q27 28 33 22l19 35q32 33 55 36z" />
    <glyph glyph-name=".notdef" horiz-adv-x="522" 
d="M450 669l30 -37l-3 -3l17 -24l-4 -3l4 -4v-3l-4 -33l7 -7l-13 -44l3 -10l-3 -30v-7l3 -17h-3l3 -10l-3 -37l3 -13l-3 -10l6 -20l-3 -4v-3l3 -3l-3 -21l3 -30l-6 -17l6 -13l-10 -54l4 -3v-7l-4 -3l4 -3v-17q0 -19 -24 -34h-10l-3 3l-34 -10l-20 7l-3 -3h-4l-13 6l-67 -6
l-41 6l-60 -6l-4 3l-70 -7l-10 4l-10 -4l-20 4q0 -8 -44 -10l-40 60l-4 4l4 3l-4 3v4l4 33l-7 7l13 44l-3 10l3 30v10l-3 17h3l-3 10l3 37l-3 13l3 10l-6 20l3 4v3l-3 3l3 17l-3 30l6 17l-3 10h3l-3 4v3q1 50 7 50l-4 4v6l4 4l-4 3v17q0 19 24 34h10l3 -4l4 4h10l3 -4
q14 5 14 10l23 -6l3 3h4l17 -7l57 7v-3l3 3l10 -3l27 3l50 -3l10 3v-3l4 3h7v-3l70 6l10 -3l10 3l20 -3q0 8 44 10zM145 592l-9 -8l-4 4h-4q-55 -10 -55 -29l5 -26l-5 -12l5 -38v-8l-5 -17l5 -17l-5 -4l5 -4v-9l-5 -17l5 -4l-5 -17l9 -71l-9 -59l5 -17l-5 -4v-4
q7 -25 30 -25h8l17 4l55 -8l33 4l21 -4l9 8l4 -4h4l13 4l42 -8l33 4l21 -4l9 8l4 -4h4q55 10 55 29l-4 25l4 13l-4 38v8l4 17l-4 17l4 4l-4 4v9l4 16l-4 5l4 16l-9 72l9 59l-4 16l4 5v4q-7 25 -30 25h-8l-17 -4l-54 8l-34 -4l-13 4l-21 -8l-59 8l-33 -4zM381 559l11 -7
l11 -14l-3 -3l-6 -14l-4 3l1 -7l-16 -18l-51 -64l-7 -1l1 -7h-7l-4 3q-26 -29 39 -86l30 -47l21 -6l-6 -20q-17 -19 -43 -13l-40 47l-41 58l-40 -30l-31 -42l-51 -58l-14 -1q-19 17 -13 51h7l-1 7l20 15l9 17l4 -3l-1 7l3 3l7 1l3 3v14l6 7l33 23l6 14l3 -4l6 14l-28 26
l-1 7l-14 6l-4 17l-21 12l-15 13q-40 49 -31 60l7 7q17 10 45 -15l18 -16v-7l7 1l33 -36l40 -35l15 25q27 28 33 22l19 35q32 33 55 36z" />
    <glyph glyph-name="space" unicode=" " horiz-adv-x="151" 
 />
    <glyph glyph-name="exclam" unicode="!" horiz-adv-x="132" 
d="M37 698q46 0 46 -28q7 -4 24 -40q0 -44 -9 -44l3 -4v-4l-6 -20l3 -12h-3l3 -4v-4q-5 -24 -9 -24l6 -36l-9 -56l9 -32l-3 -16l6 -8l-3 -4l3 -4h3q0 -83 -46 -96h-6l-3 4v4l-3 -4h-12q-16 0 -19 12l3 4v4l-6 8l3 4v4l-12 8v12q0 8 9 8l6 24l-6 12l3 4h3l-3 4v4l3 20l-3 4
h-3l3 28v8l-3 24l3 4v4l-6 32l6 8v8h-3l6 52l-3 4v4l6 40l-3 4v4l6 20l-3 4v8q0 24 19 40zM40 230q33 0 46 -68l-3 -12h6v-8q-20 -40 -34 -40l-27 20l3 4v8l-13 24l13 24v36z" />
    <glyph glyph-name="quotedbl" unicode="&#x22;" horiz-adv-x="193" 
d="M65 682l14 -17v-17l3 -34q-7 0 -14 -29l3 -3v-7q-10 -11 -10 -31l-34 -27h-10l-10 10h3l-10 27q0 14 19 47t22 57q11 0 11 21zM151 684l14 -17v-17l3 -34q-7 0 -14 -29l3 -3v-7q-10 -11 -10 -31l-34 -27h-10l-10 10h3l12 52q0 14 8 34.5t11 44.5q11 0 11 21z" />
    <glyph glyph-name="numbersign" unicode="#" horiz-adv-x="359" 
d="M69 587q9 -1 28 -44q6 0 6 -15q12 0 12 -7l16 4l19 -7l9 3l47 -9q0 32 19 53h9q9 -2 31 -31v-19l-3 -3v-3q12 0 22 -9l9 3q25 -14 29 -22v-9q-20 -32 -47 -32l-10 3l3 -3v-3l-6 -25v-25l-3 -3l3 -3v-3l-3 -3v-3l3 -13h-3l3 -3v-3l-3 -3l3 -10h16l28 4q12 0 28 -22
q-17 -41 -50 -41l-3 3q-19 0 -25 -34l6 -6l-9 -7l3 -3v-6q0 -6 -22 -6l-6 -6h-19l-15 18v7l3 9h-7v6l7 9v7l-10 12l-3 -3h-15l-4 3l-12 -3l6 -37q-16 -28 -47 -28l-3 -4q-19 0 -31 57v9h-56q-5 0 -22 28v3l6 6h60q7 0 12 25l-6 32l3 3v3l-13 53l4 16l-7 25h3q0 12 -31 21
q-19 14 -19 35l4 3h37l3 3h3l-6 19q8 0 9 31l4 3h3zM112 481l10 -69h-3l6 -12l-3 -10q9 -16 9 -37h-3l6 -25h6l25 3l16 -3q22 0 22 22l3 3l-3 3l6 41l-3 28v9l3 19q0 13 -31 22l-3 -3h-3l-50 12z" />
    <glyph glyph-name="dollar" unicode="$" horiz-adv-x="381" 
d="M192 679l3 -3v-3l3 3h9q12 -5 12 -21v-3l-6 -49l9 -6h34q27 0 76 -55l9 -33l-3 -3q9 0 9 -7v-3q0 -11 -36 -15q-19 12 -19 37l4 3v3q-5 18 -16 18l-18 18l-3 -3h-3l-9 6l-3 -3h-12l-3 3h-4q0 -6 -12 -6v-18l3 -27l-3 -3v-3l6 -13q-2 -18 -6 -18l6 -15l-3 -15
q0 -11 37 -19q103 -41 103 -91q0 -54 -91 -100l-21 -3v-3l3 -16h-3l21 -58l-21 -33h-22q-24 15 -24 33v7l3 27l-3 9l3 3l-3 15v9h-21l-12 -3l-4 3l-15 -3l-85 25l-3 -3h-12q-12 18 -28 18q0 12 -12 12l-6 12l3 3v3l-3 16l9 12q18 0 28 9v-3l3 3h24q33 -17 33 -34
q0 -16 55 -24l3 3h3l10 -3q21 0 21 12l-6 16l3 3v3l-12 73l3 3q-6 0 -12 18l-10 3l-3 -3h-3q-6 6 -48 12q-43 34 -43 61q0 80 113 116l3 30l-3 3q5 58 21 58zM158 551q0 -10 -33 -24l-15 -21l-3 -16q10 -36 45 -36l6 -6h3q7 0 7 15h3l-3 15v58l-3 15h-7zM225 359l7 -24
l-3 -3l6 -43q51 25 51 49v12q-21 26 -51 34q-6 0 -6 -25h-4z" />
    <glyph glyph-name="percent" unicode="%" horiz-adv-x="472" 
d="M118 600h16q41 -25 41 -69q0 -62 -110 -81l-20 -4h-4q-32 0 -41 24v20q0 60 118 110zM45 486l20 -4q77 12 77 49q-6 16 -12 16q-77 -7 -77 -44zM410 598l21 -24q0 -33 -49 -57q-54 -38 -224 -220q-24 -19 -24 -52q-7 0 -20 -33l-49 -12q-24 0 -24 37q31 56 44 56l114 122
q13 0 69 73q79 72 134 102zM398 383h12l37 -41v-8q-34 -97 -81 -97l-45 -9q-20 0 -41 25l4 12l-4 4v4q0 14 118 110zM321 277q0 -12 28 -16q41 35 41 57v4h-16q-40 -17 -53 -45z" />
    <glyph glyph-name="ampersand" unicode="&#x26;" horiz-adv-x="423" 
d="M127 645l25 -5l3 2h3q65 0 105 -53l2 -29q0 -24 -79 -87l-17 -17q23 -70 71 -152l17 -20l11 39l-3 3q6 0 6 17h3l-17 37q6 17 11 17q45 -31 45 -62q0 -28 -25 -88q4 -23 82 -53q15 0 28 -15q-7 -25 -14 -25h-11l-51 20q0 5 -26 20l-33 31h-3q0 -15 -31 -15l-34 -5l-6 -6
l-45 6l-3 -3h-3l-70 23l-3 -3h-3q-17 18 -39 28q-12 18 -23 54l6 11l-3 3v3q0 23 59 93l62 59q-36 134 -36 158q16 14 39 14zM130 594l3 -2v-3l-3 -9q12 -67 25 -87q57 40 57 76q-24 37 -71 37q-8 0 -8 -12h-3zM76 309q0 -35 93 -53h29q36 2 36 11q-54 78 -87 164v2
q-40 -34 -65 -96z" />
    <glyph glyph-name="quotesingle" unicode="'" horiz-adv-x="107" 
d="M65 683l14 -17v-17l3 -34q-7 0 -14 -29l3 -3v-7q-10 -11 -10 -31l-34 -27h-10l-10 10h3l-10 27q0 14 19 47t22 57q11 0 11 21z" />
    <glyph glyph-name="parenleft" unicode="(" horiz-adv-x="193" 
d="M112 640q12 0 12 -16l-40 -84l-28 -100v-4l8 -8l-4 -4l4 -4v-4q0 -28 -8 -28l4 -4v-16l-4 -20q9 0 12 -20h-4q19 -47 56 -64l16 -12l4 4h4q20 -6 20 -28v-4l-4 -20l8 -8q-16 -36 -40 -36h-4q-82 42 -104 132l-16 44l4 4v4l-4 4v4l4 12l-4 4h-4l4 48v20l4 4l-4 4v4l32 112
q9 0 16 28q39 52 60 52z" />
    <glyph glyph-name="parenright" unicode=")" horiz-adv-x="184" 
d="M68 639h4q38 -21 53 -45l30 -87l-4 -12l8 -98l-8 -23l4 -4v-4q-27 -67 -41 -83l3 -4q0 -28 -37 -53q0 -35 -53 -64h-4q-15 0 -23 30q0 47 38 68q51 91 53 167l-4 4v15l4 15l-8 19l4 4h4l-34 125v19z" />
    <glyph glyph-name="asterisk" unicode="*" horiz-adv-x="313" 
d="M117 553q37 0 46 -102h3q30 20 62 59l3 3h3q19 -3 19 -9v-6l-53 -50l-6 -19v-3h9l13 -3l3 3h3q63 4 63 -12l3 -22q-39 -27 -81 -24q32 -24 53 -36l13 -13q-2 -19 -6 -19l6 -15l-21 -9q-14 0 -72 54l-6 -6l3 -18l-3 -3l3 -3q0 -23 -18 -53l-20 1q-20 16 -22 89h-9
q0 -11 -13 -18q-25 -56 -49 -56q-10 0 -15 28v3q61 67 61 74v3h-21l-3 3l-3 -3h-19q-46 26 -46 43l93 7l-10 18q-11 6 -31 34q-6 0 -27 40v6l6 6h3q29 -15 71 -55v-3h12v15l3 3v3l-9 10v6l3 3l-3 3v6l3 31l-3 3l3 3h3z" />
    <glyph glyph-name="plus" unicode="+" horiz-adv-x="343" 
d="M151 576h3l31 -8l3 -28l8 -7l-4 -4l7 -19l-3 -4v-3q-10 -72 13 -72l22 -7l23 7q32 0 64 -26v-4q-16 -28 -34 -38l-15 -11l-15 -4l-30 4l-23 -4l4 -15l-4 -3v-4q0 -22 2 -45v-19l-36 -38h-7q-36 0 -36 45l2 20l3 32l-1 9q0 23 -19 33h-15q-48 0 -94 34v23q0 6 23 11l3 -4
l19 4h42l15 -4l26 12v30l4 22l-4 12q2 30 7 30l-3 3q6 40 19 40z" />
    <glyph glyph-name="comma" unicode="," horiz-adv-x="113" 
d="M32 266q24 0 56 -40q0 -38 -56 -92h-12l-12 12l24 28v4l-32 24v12l4 4l-4 4v4q0 40 32 40z" />
    <glyph glyph-name="hyphen" unicode="-" horiz-adv-x="365" 
d="M16 448l52 -16l4 4h8l8 -8l4 4h64l24 -4l4 4l28 -4h24l32 8q40 0 72 -24v-28q-24 -32 -52 -32q-29 3 -40 12l-48 -4q-36 3 -36 8l-4 -4l-40 8l-4 -4h-4l-44 12l-4 -4q-64 14 -64 56z" />
    <glyph glyph-name="period" unicode="." horiz-adv-x="109" 
d="M24 246h16q24 0 44 -36l-28 -52l-16 -4q-40 0 -40 36v24z" />
    <glyph glyph-name="slash" unicode="/" horiz-adv-x="240" 
d="M193 631l18 -22v-23l4 -45q-9 0 -31 -62q-41 -136 -94 -220l4 -4v-9q-13 -14 -13 -41l-45 -35h-14l-13 13h4l-13 36q0 18 76 148l36 98q45 103 49 135q14 0 14 27z" />
    <glyph glyph-name="zero" unicode="0" horiz-adv-x="343" 
d="M188 608q59 -11 88 -41q42 -74 42 -99l-5 -6v-5l5 -21q0 -153 -47 -177q0 -22 -115 -68q-114 16 -114 47q-20 0 -37 89l-5 5l10 26l-5 16q37 234 183 234zM78 427l6 -6l-6 -22q10 -134 67 -134l28 11l6 -5q61 43 61 100l11 11l-11 90l6 5q-13 0 -28 56q-23 20 -23 34h-5
q-59 0 -101 -90q-3 -50 -11 -50z" />
    <glyph glyph-name="one" unicode="1" horiz-adv-x="120" 
d="M56 630q39 -37 39 -60l-3 -14l3 -13l-3 -23l3 -5v-5q-5 -32 -10 -32l3 -18l-10 -69l3 -19v-4l-7 -74v-27l7 -10q0 -68 -46 -87h-3q-17 0 -32 51v23q7 10 7 32h4l-4 4v5l4 37l-4 4v5l11 46l-4 5v4q2 42 7 42l-3 4v5l7 14l-4 4v5l14 83l-3 13l14 56l-4 4z" />
    <glyph glyph-name="two" unicode="2" horiz-adv-x="326" 
d="M140 593q89 -34 89 -83v-17q-21 -94 -105 -200v-4l93 -13l36 8q29 0 48 -30q-14 -33 -52 -33l-8 -9l-12 9l-20 -9l-4 4h-4l-48 -8q-7 8 -57 13l-80 -9l-16 39q0 39 52 55q69 73 92 139q9 0 9 48h4q-6 22 -13 22h-12l-44 -13q-18 -22 -36 -22q-15 0 -40 35v30
q70 48 128 48z" />
    <glyph glyph-name="three" unicode="3" horiz-adv-x="327" 
d="M77 605h36q126 0 126 -77q0 -21 -63 -90q126 -35 126 -121q-35 -66 -95 -86q0 -21 -108 -36l-13 9l-59 -9q-27 42 -27 77q26 31 36 31l27 -4l14 4l54 -31l4 4h5l4 -4q90 24 90 67q-28 45 -54 45l-4 -4h-5l-22 9l-27 -9h-9l-5 4l-23 3l-8 20q0 47 64 103q0 23 9 23
q-25 27 -33 27h-18q-36 0 -67 -45h-5q-27 11 -27 18q12 72 77 72z" />
    <glyph glyph-name="four" unicode="4" horiz-adv-x="367" 
d="M190 635h13q24 0 50 -199q0 -12 64 -21l25 -29v-5q-40 -46 -68 -46l-5 4l-8 -8l4 -17l-4 -42l13 -60q0 -21 -46 -46q-42 13 -42 55l4 4v4l-4 13l4 4l-4 21v26l4 17l-4 16v9l4 4v4l-4 5h-4l-34 -5l-26 5l-46 -5l-25 5l-13 -5q-38 0 -38 55l8 17l-4 4q9 0 9 21q6 1 59 76
q11 0 21 26q10 0 38 38h8q34 0 34 -30v-4l-4 -4l4 -4v-13q-5 -14 -38 -38q-27 -23 -38 -68l63 -17l26 5l-4 12l4 47v12l-4 17l4 13l-4 30h4l-4 4l4 12l-9 47l5 4v4l-5 17z" />
    <glyph glyph-name="five" unicode="5" horiz-adv-x="365" 
d="M126 638h9q36 -38 36 -70l-5 -5l3 -30h5l27 5l18 -5l7 2l11 3h9l22 -5l17 10q26 -7 55 -15v-10q-18 -50 -39 -50l-27 5q-14 5 -27 5l-27 -5l-53 5h-42l-15 -20l-10 -9q-3 -16 -12 -31q154 -36 154 -105v-5v-5q0 -95 -121 -140q-36 23 -22 50v5q10 17 68 45l14 40
q-26 43 -87 35l-9 10h-13l-36 -10h-5q-21 11 -31 35v20q0 51 31 70l36 70l-4 5q48 58 63 100z" />
    <glyph glyph-name="six" unicode="6" horiz-adv-x="291" 
d="M229 627h12q25 -15 25 -54v-5q0 -36 -62 -58q0 -8 -54 -49q-17 -22 -17 -34h4l13 -10l12 5q28 -7 71 -64q11 0 29 -39l-4 -5v-5l8 -10v-9q0 -21 -37 -64q0 -18 -34 -24q0 -19 -79 -30l-4 5h-4l-21 -5q-53 0 -87 83h4l-4 5v5l4 30l-4 4v5q10 78 67 171q103 132 145 132z
M79 310q0 -52 58 -74q53 11 53 53l6 16q-6 29 -54 63q-36 0 -63 -58z" />
    <glyph glyph-name="seven" unicode="7" horiz-adv-x="318" 
d="M72 630h8l23 -19l4 5h3l12 -5l15 5l4 -5l19 5h4q125 0 125 -58l4 -5l-49 -148l3 -5q-5 -98 -19 -168l4 -19v-9l-4 -5v-5l4 -5l-30 -19q-36 0 -50 29l-4 5h-3q3 47 11 47l-4 5l8 53l-4 14l15 48l-4 5v5l27 110l-4 5v5l8 38l-50 5l-11 -5l-4 5h-4q-53 -7 -53 -58
q0 -24 -8 -24l4 -4v-5q-2 -21 -30 -43h-27q-10 0 -15 43l4 5v4l-4 24q41 144 72 144z" />
    <glyph glyph-name="eight" unicode="8" horiz-adv-x="316" 
d="M180 622l53 -5h19q15 -3 34 -63l5 -4v-68l-48 -82l48 -101l-5 -5v-5l5 -19q0 -60 -53 -78l-24 -4l-5 4q0 -9 -39 -14l-5 5h-4l-25 -5l-9 10l-15 -5q-67 13 -67 24l-23 28l-22 45q10 72 47 111l32 43q-58 41 -58 72q24 26 24 58q71 53 116 53zM83 507q6 -22 39 -33
q26 -11 43 -16q41 9 49 26q0 14 14 29v22l-22 39h-12q-65 0 -111 -67zM77 281l32 -39h30q28 0 84 48q-11 55 -24 66q-107 22 -122 -75z" />
    <glyph glyph-name="nine" unicode="9" horiz-adv-x="296" 
d="M99 626h46q20 0 72 -32q45 0 45 -36q9 0 9 -40q0 -64 -90 -254l-27 -76l-46 -14q-31 0 -31 36h4l-4 5v18q72 76 81 176l-45 -27q-84 0 -99 50l-9 22l-5 5v22q24 122 59 122q0 14 40 23zM134 574q-63 -7 -78 -106l2 -27l12 -12l12 -7h5l6 -6q106 14 106 147l-24 11l-19 4z
" />
    <glyph glyph-name="colon" unicode=":" horiz-adv-x="133" 
d="M48 578v-4l4 4h4l12 -4l4 4h4q18 -7 28 -24v-20q0 -22 -24 -36h-24q-39 0 -44 52q14 28 36 28zM56 310q52 -22 52 -44q-7 -44 -40 -44h-4q-37 0 -64 36q0 42 56 52z" />
    <glyph glyph-name="semicolon" unicode=";" horiz-adv-x="117" 
d="M36 596h12q26 0 44 -40q-15 -36 -56 -36q-32 13 -32 52h8l-4 4v4q7 16 28 16zM48 332v-4l4 4h12l28 -16l-4 -4v-4l4 -4v-4q0 -73 -48 -96l-8 8v8l8 28q-2 16 -32 16l-12 24q0 37 48 44z" />
    <glyph glyph-name="less" unicode="&#x3c;" horiz-adv-x="245" 
d="M156 588h8l16 -12q-5 -68 -24 -68l-80 -104q0 -24 76 -80q8 -20 24 -20q0 -13 32 -24l12 -28l-8 -12l4 -4v-4q-6 -20 -28 -20h-8q-43 15 -100 88q-54 40 -72 40l-8 32q0 61 108 160z" />
    <glyph glyph-name="equal" unicode="=" horiz-adv-x="317" 
d="M236 523q47 -19 56 -33v-3l-24 -37h-4l-4 4h-4q0 -11 -44 -11q-9 6 -56 11l-24 -8h-16l-24 4l-16 -4l-16 8l-20 -4q-32 12 -32 58l8 8l52 -8l4 4h64l4 -4l4 4h64q13 0 28 11zM60 350l4 -4v-3l28 7l96 -11l36 11l4 -4v-3l4 3h4q52 -3 52 -22v-3q-12 -44 -80 -44l-76 7
l-28 -7l-20 7l-44 -3l-40 32v19q0 11 60 18z" />
    <glyph glyph-name="greater" unicode="&#x3e;" horiz-adv-x="233" 
d="M40 594h8q76 -62 76 -80q18 0 48 -60q13 -8 36 -52l-4 -4l4 -4v-12q-14 -19 -88 -76l-48 -72l-40 -28q-32 9 -32 48v4q0 7 80 92l40 60l-16 28l4 4q-80 92 -80 144z" />
    <glyph glyph-name="question" unicode="?" horiz-adv-x="257" 
d="M92 629h8l24 -5l12 5q51 -14 76 -41q7 0 20 -60v-9l-4 -4l4 -5v-18q-17 -50 -48 -64l-72 -64l4 -46v-9q-6 -18 -28 -18q-36 0 -36 50q15 60 88 123q28 32 28 60q-12 22 -32 36h-36q-54 -41 -60 -59q-40 8 -40 18l4 5v4l-4 5v5l4 4l-4 23v14q0 32 68 45zM104 263
q9 0 20 -41q-10 -50 -52 -50q-22 8 -32 23v9q28 37 28 55l4 4h32z" />
    <glyph glyph-name="at" unicode="@" horiz-adv-x="542" 
d="M312 641q121 -19 121 -44q15 -5 51 -62q29 -52 33 -77l-4 -15l4 -26q0 -17 -18 -55q-14 -38 -48 -62q-58 -44 -121 -44q-60 11 -62 48q0 11 -8 11q-51 -77 -88 -77q-19 14 -36 55v3l3 4l-7 26q10 77 18 77l-3 3l29 63q0 10 29 25l37 11l7 8l8 -8l3 4h8q18 -1 18 -7l37 14
h3q16 -4 33 -47h4l-29 -118q2 -36 36 -36q30 0 63 44q7 16 7 47v15q0 21 -44 84q-28 41 -48 41q0 7 -47 18l-19 -4l-11 4l-7 -7l-4 3l-51 -33l-4 4q-40 -16 -58 -44q-16 0 -22 -26q-17 0 -33 -33q-19 -14 -30 -58l-3 -11l-4 -4q0 -11 -7 -11l3 -4v-14l-3 -4l3 -4l-3 -18
q0 -51 62 -114q59 -36 110 -36l62 11l4 -4q0 7 18 7l4 4q48 12 48 33q19 34 33 40l14 -3l8 7h14q26 -18 26 -33q-6 0 -29 -44q-118 -59 -173 -59h-40l-22 4l-4 -4h-3q-38 0 -99 44q-70 92 -77 140h3l-3 3v4l3 40l-3 4v4l7 7v4q0 7 -11 7v4q15 0 18 22h4l-4 3q0 23 19 44
l-8 8q22 23 22 47l26 22l-4 4q26 17 44 51q22 0 22 19q31 8 88 44l4 -4h4zM172 359l4 -4l-4 -29l8 -37h3q70 58 70 95h4l-4 4l4 11q0 29 -15 29l-15 8l-33 -15z" />
    <glyph glyph-name="A" unicode="A" horiz-adv-x="372" 
d="M146 650q45 -17 71 -68l-3 -3q8 0 32 -56h-3q13 -14 13 -39q14 -11 23 -52q6 0 6 -16l-3 -3q9 0 13 -23h-3l29 -65l7 -16v-3l-4 -3q10 -43 20 -52v-30l3 -13l-3 -13l3 -13q-36 -32 -49 -32h-9l-23 23l3 9l-3 -3h-3l-17 46l4 3v3q-10 19 -10 46l3 3q-22 0 -22 13h-13
l-59 10l-23 -4l-29 7l-29 -111q-24 -26 -45 -26q-13 56 -23 62l6 16l-3 4l16 9l-3 4v3q16 20 29 84q6 0 17 49q7 0 45 130q2 13 10 13l-3 3l12 42l-6 30q5 0 23 32h3zM162 520h3l-9 -23l3 -9q-13 -7 -13 -26q-10 0 -10 -46q-9 0 -26 -81l62 20h6l4 -4h3q0 7 26 13l3 17
q-5 0 -16 51q-7 0 -13 39l3 4q-7 0 -19 52z" />
    <glyph glyph-name="B" unicode="B" horiz-adv-x="335" 
d="M29 650h10l19 -16h7l16 3v-3l3 3h29l13 3q94 -13 94 -61v-10q-18 -42 -29 -42q-39 -33 -39 -48h3q107 -25 132 -61l23 -55q0 -43 -97 -126l-45 -26q-52 -7 -52 -35q0 -13 -6 -13h-3l-4 3h-3q-9 -16 -26 -16l-3 3h-3l-13 -3l-16 35l3 13l-6 23h3l-13 55l3 9q-8 0 -19 55
v29l-4 20l4 16l-4 3h-3v7h3l-3 32v55l-3 29l10 74l-7 6l10 13l-3 10zM68 576l3 -3l-3 -20l6 -45l-3 -3l3 -23q31 26 52 26q42 42 45 68q-20 16 -55 22q-48 -7 -48 -22zM123 402q0 -5 -26 -17v-12l6 -20l-3 -9q5 0 10 -13l-3 -10l25 -45l-3 -13l10 -13q63 29 94 90
q0 44 -81 58h-7v4l-3 -4h-3z" />
    <glyph glyph-name="C" unicode="C" horiz-adv-x="349" 
d="M148 650q160 -36 160 -72l-36 -52l-28 -8h-4q-24 8 -36 36l-32 8h-12q-41 -25 -52 -72l-12 -8q-6 -70 -16 -80l4 -4v-4l-8 -48l4 -24v-12l-4 -4q21 -47 56 -72h8l24 4l20 -4q40 17 40 60l-8 8q33 44 68 44q40 0 40 -48h-4l4 -12q0 -11 -32 -32q-25 -92 -92 -92l-44 -12
l-12 4l-12 -4q-48 15 -92 72l-12 16v4l4 4v4q-24 13 -24 64l-8 8l4 20l-4 56l4 4v4l-4 4l16 84l-4 4q9 8 24 60q0 22 80 80z" />
    <glyph glyph-name="D" unicode="D" horiz-adv-x="318" 
d="M33 650q8 -1 30 -27q160 -15 160 -40q25 0 63 -90l7 -30l-3 -3l3 -10q0 -70 -57 -170q-11 -5 -30 -40q-5 0 -50 -53l-53 -37v3l-3 -3h-3q-64 16 -64 33l-3 10q-13 0 -13 27l3 3h3l-10 27h4l-4 3v4l4 13l-7 53l3 10l-6 84h3l-10 33l7 7v23l3 80l-3 3v4l6 13l-3 10l3 3
l-6 7v23l3 4l-3 3v7q0 5 26 13zM87 583q0 -6 -14 -6l-3 -20l3 -14h-3l10 -36l-3 -10l3 -4h3l-3 -13l3 -10l-3 -20l7 -40l-4 -23l7 -60h-3l6 -27h-3q3 -47 20 -47q36 0 103 94q22 44 30 76l-3 4v3l3 13l-3 4v3l3 10l-3 13l3 10q-42 90 -87 90q0 7 -29 7v3l-4 -3h-3l-17 3
l-3 -3h-3z" />
    <glyph glyph-name="E" unicode="E" horiz-adv-x="306" 
d="M74 650l16 -6l20 3l19 -3l3 3l17 -3h32l13 -4l9 4q0 -7 20 -7q29 -26 29 -35q-20 -28 -36 -36l-9 3l-13 -6q-38 16 -74 22l-4 -3l-26 3l-3 -3h-3l-13 3v-3l-6 -61l3 -10h-3l3 -3v-10l-3 -13l3 -9h-3l3 -3v-4l-3 -13l3 -12h3l39 9l10 -3l41 10v-4l4 4h3l3 -4h3l29 10
q75 -10 75 -32l3 -3q-22 -46 -58 -46l-10 -3l-6 7h-7q-70 0 -122 -13l6 -23l-3 -13l6 -19h-3l13 -45l-3 -3l13 -10h3q55 9 97 35l16 4v-4l3 4h3l13 -10l3 3h4l26 -22v-4q-11 -38 -26 -38l-4 3h-3l-35 -10l-4 3q0 -5 -48 -16l-52 -32q0 -16 -38 -29h-4q-61 24 -61 103h3
l-3 10l6 13l-6 19l3 10l-3 26l6 9l-3 4v48l3 3l-6 36h3l-3 3v6h6q0 73 20 129l-3 4l6 38l-6 7v3q0 24 9 26h4l3 -3z" />
    <glyph glyph-name="F" unicode="F" horiz-adv-x="297" 
d="M31 650l25 -6l3 3h3l49 -6l3 3v3l75 -6l15 6q23 0 34 -16q32 -12 34 -21l-6 -28l3 -12l-43 -10l-13 7l-3 -3v-4l-3 4h-3l-3 -4h-3l-19 10l-9 -3q0 6 -59 15q0 -6 -15 -6v-28l-3 -3l3 -3l-6 -34q4 -15 9 -15l-3 -3v-7h12q12 10 28 10h3l3 -3q35 9 59 9q41 0 59 -28
q-27 -40 -53 -40l-9 6l-3 -3v-3q-25 2 -25 6l-3 -3h-3l-3 3l-3 -3h-10l-3 3l-3 -3h-3l-3 3h-3q-28 -7 -28 -12v-37l-3 -3l3 -4v-12l-3 -3l6 -15l-3 -3l19 -87h-3l9 -62v-6l-37 -43h-16q-37 14 -37 62l-3 3v3h3l-6 22h3l-9 18h3l-9 28l6 9l-9 31l3 15l-10 34l7 31l-7 6l3 3
q-15 34 -15 56l12 6v37l7 6l-4 3v7l4 3l-4 3v9l4 3v3l-4 3h-3q3 24 10 31q-7 0 -7 16q-12 0 -12 12q0 37 28 37z" />
    <glyph glyph-name="G" unicode="G" horiz-adv-x="395" 
d="M193 650v-3l3 3h24q13 -5 66 -60q18 -13 18 -27l-9 -6h-6l-6 6l-3 -3h-3q-20 13 -30 30q-21 15 -30 15h-3q-56 0 -94 -66q-12 0 -45 -91l-6 -57l3 -12l-3 -3v-3l6 -15l-3 -3v-3q5 -41 18 -63q0 -16 27 -31q0 -6 21 -12l3 3h3q15 0 15 -6q37 0 67 43l-12 42l-3 -3h-3
l-15 3l-3 -3h-3l-13 3q-3 -9 -18 -9l-42 51v9q0 5 21 18h3l21 -6l9 3l19 -3l21 3l24 -3l3 3v3l12 -3l12 3l12 -3l42 6h21q36 -5 36 -15v-6q-16 -45 -36 -45q-21 0 -21 -24q0 -15 -9 -30l3 -13l-6 -6l3 -9q-2 -34 -9 -45l3 -9l-6 -18q6 0 6 -9q0 -20 -33 -21q-15 22 -15 33
q15 12 15 27v9q-16 -30 -82 -48l-21 -6v3l-3 -3h-3l-12 3l-21 -6q0 7 -27 9q-33 17 -33 30l-3 -3h-3q-45 56 -45 75l3 4l-15 51l3 3h3l-6 21l6 15l-6 18q2 18 6 18l-3 3v9l3 3l-3 3v3l3 3l-3 3q2 21 6 21l-3 3q34 128 114 172q41 24 73 24z" />
    <glyph glyph-name="H" unicode="H" horiz-adv-x="366" 
d="M51 650h3q35 -19 35 -57l-2 -11l2 -2l-2 -16l2 -22l-2 -16l2 -8l-2 -25v-13q0 -5 16 -8l3 2h2l8 -2l14 2v-2l84 13l8 -3l8 9h3l-3 2v6l3 13l-6 33q6 10 6 29l-3 8l5 19l-5 17l3 2q-6 0 -6 8q8 21 14 22q11 -12 35 -19q24 -31 27 -73l-3 -3v-2l6 -22l-3 -3v-2l6 -38l-3 -8
l3 -8h-3l3 -3v-14l-3 -24l5 -22l-2 -2l5 -8l-3 -14l11 -92h-3l19 -73l-2 -2l5 -49q-42 -19 -54 -19l-19 16q-30 51 -30 62l6 17q0 50 -9 59l3 19l-11 54l6 11l-8 27l-19 -3h-8l-3 3l-3 -3h-3l-2 3l-3 -3l-43 6l-11 -3l-3 3h-3l-10 -3l-14 3q-11 0 -11 -17h-2l5 -65l-3 -13
l3 -11l-3 -11l3 -2v-3l-3 -16v-14h6v-5l-3 -11l3 -3v-2l-3 -3v-3l3 -8q0 -27 -33 -27q0 -5 -13 -5q-20 0 -30 19q-8 0 -8 8l-3 2h-3l3 3l-5 30h2l-2 3v2l2 3l-2 3v5l5 5l-8 82h3l-3 2l3 27l-3 16h3l-3 3v6l3 16l-3 2v3l3 19l-3 14l5 29l-2 3v3l11 43l-3 3v2q2 20 8 27l-3 14
l8 8l-2 11q6 1 13 27z" />
    <glyph glyph-name="I" unicode="I" horiz-adv-x="250" 
d="M32 650q9 0 19 -8h5l11 3l11 -3l8 3l2 -3h3l16 3h6l2 -3l24 8l16 -5l3 2h3q31 -6 51 -29v-8q-24 -35 -54 -35l-3 -8l3 -3v-5l-3 -11l6 -26h-3l3 -3l-3 -13v-35l-3 -11l3 -11v-18l-3 -11l3 -8l-3 -3l3 -13l-3 -13l3 -16l-5 -8l10 -67l-2 -19l2 -8l-5 -29l3 -8h-3l3 -11h2
l19 11h19q19 0 24 -27q0 -35 -51 -40l-80 -11q0 8 -46 11l-10 5l-3 -3h-3q-32 12 -32 40q5 13 11 14h8l21 -11h8q19 0 19 27l13 21l-2 3v16l5 16l-3 3v2q7 43 11 43l-3 3v3l6 42l-3 3l3 13v54l2 2l-2 3v72l-6 40l3 17h-3l-32 -9q-37 9 -37 30l-6 19v10q5 11 19 11z" />
    <glyph glyph-name="J" unicode="J" horiz-adv-x="253" 
d="M138 650l5 -5h3l8 5q0 -10 48 -13q0 -5 13 -5l13 -10v-3q-8 -25 -28 -36h-3l-15 3h-3l-2 -3h-3l3 -2v-26q7 -10 13 -54l7 -5l-2 -2v-6q0 -29 5 -41l-3 -7q3 -46 8 -46l-3 -13v-13l6 -44l-3 -2h-3l6 -16l-6 -20l3 -3v-2q-11 -85 -21 -85l3 -2v-3q-21 -38 -49 -38l-15 -3
q-23 2 -23 8l-13 -3q-72 23 -72 41q15 72 29 72h5q34 -20 38 -31v-23l8 -2q22 0 31 69l-3 13l5 20v3l-2 10l2 2v3l-2 3v2l2 3l-2 13l2 7l-2 8l5 36l-3 2h-2l2 3v5l-5 28v5l3 3q-6 7 -6 23h-2l2 3l-2 18v5l2 2l-5 13l3 3q-4 0 -16 54l3 7q0 6 -15 16q-30 -7 -46 -18l-21 -3
l-18 21l3 10q-8 0 -8 5q0 15 26 28h2l8 -5l72 15l15 -5q0 5 15 8z" />
    <glyph glyph-name="K" unicode="K" horiz-adv-x="406" 
d="M62 650h3q15 -8 21 -18l-6 -5l3 -3v-5q0 -21 -8 -34l5 -36l-2 -16l2 -18l-2 -2l5 -5l-3 -3l6 -31l-3 -3v-2q6 -39 10 -39q46 21 65 62l83 111l52 37q26 -14 26 -26h-3l3 -3v-5l-3 -3l3 -2v-3q-11 -23 -31 -23l-31 -47q-67 -107 -78 -116v-13q29 -21 34 -34q12 -6 23 -23
q53 -53 88 -68l5 6l13 -13q39 -16 39 -55q-6 -36 -36 -36l-11 -3q-56 20 -106 70q0 6 -23 18l-55 60q-7 0 -7 10l-3 3h-3l-5 -5l-2 2l-16 -7l-3 2h-2q-15 -11 -18 -21l5 -23l-3 -8l3 -13l-3 -2q3 -27 13 -57l-5 -8l3 -3v-2l-3 -3v-2l3 -11l-16 -15l-2 2h-3q0 -5 -16 -10
l-7 3l-8 -3q-23 19 -23 41v8l2 3l-2 2v11l2 10l-2 3v2l2 8l-8 65v2l3 3l-3 3v5l3 2l-5 19l2 2l-5 39l3 3l-3 18l3 31l-3 18h3l-8 36l3 8l-6 26l3 8q-5 0 -8 20l3 11l-8 20q12 57 29 57q0 6 12 8v-2q21 4 21 10z" />
    <glyph glyph-name="L" unicode="L" horiz-adv-x="382" 
d="M61 650h6q13 0 35 -73q10 0 10 -32l-4 -22l4 -13l-4 -10l4 -28v-7l-4 -12l4 -13l-4 -3l4 -4v-6l-4 -13l4 -3l-4 -13l7 -54l-7 -44l4 -13l-4 -3v-3q5 -20 23 -20h6l13 4l41 -7l26 3l16 -3l6 7l3 -4h3q19 2 29 10h7l9 -6l10 3v-3l3 3q48 -11 48 -38q0 -10 6 -10
q0 -48 -29 -48q0 -9 -28 -9l-10 -7l-19 7l-3 -3h-3l-13 6l-64 -6l-3 3l-67 -7l-10 4l-9 -4l-19 4q0 -8 -42 -10q-25 30 -25 41l-13 20l3 9l-3 16l6 6v7l-6 9l16 45l-3 3v3l6 29l-3 13v9l3 3l-3 4v3l3 3l-3 3v3q0 16 6 16l-3 3l3 16l-3 10l7 6l-7 10q2 28 7 28l-4 10l4 10
l-4 19l7 19l-3 16q3 25 9 25l-3 3l6 29l-3 3v10q0 20 26 38z" />
    <glyph glyph-name="M" unicode="M" horiz-adv-x="467" 
d="M368 650h6q52 -35 52 -68l-7 -42l4 -3v-3l-4 -13l4 -16l-7 -23l7 -6l-7 -29v-26l3 -13l-3 -13v-10l3 -16h-3l13 -80l-3 -10q16 -40 16 -55v-3l-3 -3l3 -3v-4q0 -44 -42 -61v3l-3 -3h-13q-23 27 -32 90l-4 4l4 9l-7 39h3l-6 19h3l-9 39l3 3v3l-10 46l3 3v3l-3 10l3 3h4
l-4 10l4 22l-4 13l4 3l-7 7l7 35l-7 7l3 13h-3q-46 -44 -64 -107q-31 -87 -65 -100l-23 10l-3 -3l-51 71l3 9q-22 25 -29 45q-8 0 -13 29q-7 0 -7 -9l4 -10l-13 -126l3 -9l-3 -4v-3l3 -16l-3 -3v-3l9 -87q-16 -46 -45 -46h-6q-11 0 -26 71l6 16l-6 39l3 20l-3 12l3 10l-3 13
h3l-3 3v29l3 3l-3 4v3l3 13l-3 10l3 3h3l-3 16l10 32l-3 10l3 35l-3 4v3l6 32l-3 10l3 45l-6 26l19 13q30 -8 61 -36q9 -10 23 -10l35 -54q46 -66 46 -75h3q7 2 32 42q67 79 97 91l22 38z" />
    <glyph glyph-name="N" unicode="N" horiz-adv-x="421" 
d="M44 650q58 -47 80 -101q88 -135 141 -201l24 -24h3q7 0 7 27h3l-7 20l4 31v20l-7 10q9 0 20 151q7 0 7 23v10l-4 24l11 10q26 0 40 -30v-54l3 -17h-3l3 -3l-3 -40v-41l-4 -3l24 -151l-3 -3l10 -47h-4l7 -14l-7 -10l4 -3v-24q0 -33 -71 -50l-7 10l-3 -3q-23 3 -23 10v7
l3 3v3q-9 0 -27 20q-17 0 -27 27q-104 131 -141 205q-9 1 -27 50h-6l3 -23l-3 -4h-4l4 -3v-10l-4 -3l24 -195q6 0 10 -20l-3 -3l3 -17q-12 -64 -60 -64h-4q-13 39 -23 50l3 4l-3 3v3l3 4v3l-3 3l3 11l-10 107h3l-3 3v7l3 3l-3 4v3l3 3v4l-3 13l3 4l-3 3v67l3 47l-3 10h3
l-3 10l7 14l-4 3l10 64l-6 6q14 44 37 44z" />
    <glyph glyph-name="O" unicode="O" horiz-adv-x="371" 
d="M144 650q59 0 81 -20l-3 -3v-6q8 0 39 -30q32 -41 33 -52q14 0 29 -56l10 -16l-3 -3v-4q16 -40 16 -62v-16l-3 -13l3 -3q-7 -53 -20 -75l4 -4v-3q-41 -76 -72 -101l-20 -13q-12 -10 -65 -20l-10 7l-3 -4h-3q-53 17 -95 53q-51 78 -59 130h4l-4 4v39l-3 16h3l-3 10l3 3v3
l-3 4v3q10 24 10 56l-10 6l3 13l-3 26l7 10l-4 3v4l30 42l-4 3q49 52 115 69zM98 519l6 -16l-3 -3h-3l-3 3h-4v-7h-3l3 -3v-6l-26 -20q0 -10 -10 -10v-10l-3 -9l3 -17v-16l-3 -3q17 -107 43 -125q18 -37 68 -52h17q37 5 65 49q0 17 6 17l-3 3v3q13 0 20 95q-18 72 -46 121
q-19 12 -42 45l-10 4q-56 0 -56 -20q-5 0 -16 -23z" />
    <glyph glyph-name="P" unicode="P" horiz-adv-x="322" 
d="M65 650q0 -14 106 -21q49 -8 100 -44q22 -25 26 -53v-17q0 -44 -41 -77l-21 -23h-3l-3 3h-3q-48 -44 -120 -44l-3 2h-3l-9 -2l-9 2q-8 -8 -11 -32l3 -9l-3 -3l5 -6l-5 -8l3 -15h-3l3 -3v-26l-3 -3q6 -59 14 -59l-6 -33l3 -14q-14 -15 -32 -15h-3q-26 0 -35 53q-6 0 -6 12
l3 3v3l-6 14l3 24l-3 38l3 3l-3 15v47l-3 12l9 38l-3 3l6 20l-3 3l15 86l-3 2l11 77l-3 12q17 35 36 35zM103 579l-3 3h-3l-9 -3v-17l-3 -12l3 -3l-3 -15v-23l-3 -3l3 -3v-3l-3 -9l3 -17q-6 -8 -6 -27h-3l6 -15l-6 -6l9 -11q79 0 127 64l14 42v8q-12 30 -50 45l-3 -3h-5
q-9 8 -21 8l-6 6l-9 -3l-11 3z" />
    <glyph glyph-name="Q" unicode="Q" horiz-adv-x="438" 
d="M160 650l3 -3h3l3 3h2q33 0 57 -42v-3l-6 -8v-3q7 0 51 -62l22 -48l-3 -8q6 0 9 -28h-3l8 -28l-3 -12l9 -70v-5q0 -26 -17 -76l3 -9l-3 -2l34 -23l14 3h3l2 -3h3q0 6 14 8l11 -5l3 3h3l3 -3h3l3 3h2q20 -6 20 -26q-8 -28 -20 -28q-20 -15 -39 -19l-3 2h-3l-16 -2l-6 5
l-23 -3l-47 26h-6l-79 -31l-16 -3h-43q-73 32 -73 59q-17 18 -33 93v5l2 3l-5 6l3 3l-3 2v3l3 3l-6 17l3 11l-3 17h3l-3 3v3q13 121 48 179q68 93 112 93zM138 588l-12 -17l-2 3q-21 -23 -59 -101l2 -3v-3l-14 -56l3 -3l-5 -33q15 -108 33 -132q27 -26 54 -26q44 0 53 20
l-20 39l3 3l-5 6l2 3v2l-16 23q0 28 22 28h17l36 -37l9 -5l3 20l-3 8h3l-3 3v3l3 11l-6 59l3 3v2q-6 33 -11 40l2 3v2q-41 79 -78 121z" />
    <glyph glyph-name="R" unicode="R" horiz-adv-x="459" 
d="M151 650q129 -15 129 -57q11 0 20 -40l-3 -20l3 -9q-22 -71 -40 -71q-7 -23 -69 -46h-8l17 -11q0 -12 14 -12q31 -46 57 -63q32 -43 72 -65q0 -5 60 -37l11 2q20 -5 20 -11v-6q-31 -40 -63 -40q-57 0 -157 106q-76 91 -88 91h-6q0 7 -20 15l-3 -35l3 -8l-3 -40v-29l-3 -3
l3 -2v-3q0 -42 -14 -72q0 -28 -32 -28l-11 -6q-37 15 -37 60h3l-3 3v3l3 8l-6 89v28l3 12l-3 3v3l3 34l-3 3v3l3 11l-3 20h3l-3 3v6l3 11l-3 11l3 23l-3 3v3l6 14l-3 3v3l3 20l-3 3v3q21 105 43 105q0 6 14 6v-3l3 -11q51 14 88 17zM111 610q0 -7 -28 -9v-2l6 -15h-3l3 -3
v-2l-3 -23l3 -9h-3l3 -3v-3l-3 -2l5 -46l-2 -3l5 -6v-5l-3 -3l3 -15h29l34 9h3l3 -3h3q68 42 68 72h3q0 68 -89 68z" />
    <glyph glyph-name="S" unicode="S" horiz-adv-x="351" 
d="M190 650q50 0 76 -43l-2 -9q16 -14 24 -57h3q-11 -21 -27 -21l-3 2l-3 -2q0 5 -11 5l-2 3v13l2 11q0 15 -22 38l-21 6q-106 -26 -106 -85q10 -27 35 -35l3 -3l8 3q0 -5 8 -5l3 2h3q70 -18 97 -51q27 -18 41 -38q16 0 30 -74q0 -68 -101 -136q-37 -15 -81 -24
q-58 0 -68 16q-33 11 -62 49l2 3v3q-11 16 -11 32h3l-8 46l5 6h-5v8q20 30 43 30h11l28 -8l8 -14l-3 -3v-2l5 -6v-2l-5 -9q8 0 8 -5q-7 -7 -41 -19l-2 -3v-2q0 -13 65 -22l8 3v-3q76 0 117 68l3 2v3q0 44 -22 60q-17 16 -52 33v2l-13 -2h-3q-10 8 -49 13l-3 -3l-41 36
l-16 30l3 2l-3 19q0 83 87 125q23 11 57 14z" />
    <glyph glyph-name="T" unicode="T" horiz-adv-x="384" 
d="M275 650l11 -8l11 3q27 0 35 -19q20 0 27 -41q-5 -9 -54 -19q-2 8 -22 8h-8l-8 -5l-8 11l-3 -3l-13 3h-11l-5 -6l5 -21l-3 -3v-3l6 -21h-3l6 -19l-3 -14l3 -2v-3l-3 -3v-3l3 -8q-2 -16 -6 -16l3 -3v-2l-3 -3l3 -3l-3 -19v-32l-3 -3l3 -2l-5 -49l2 -3l-5 -5v-19
q0 -33 -5 -33l2 -2q-5 -30 -5 -79l3 -2h2l-2 -19v-3l5 -8q-7 -19 -32 -19q-10 0 -33 38h-2q0 40 -9 40l3 8l-3 22h3l-5 14l2 2l-2 14v13l2 3l-2 3v13l2 11l-2 3v2l2 14l-2 14l2 2v3l-2 3l2 13v35l-2 11l5 38l-3 3l3 13v24l-3 11q6 17 6 49l-6 11l-2 -3h-3l-3 3l-21 -6h-8
l-3 3q-7 -5 -35 -8l-3 3l-5 -6l-11 3l-3 -3q-42 0 -51 30l3 3v2l-3 17q8 18 30 18l2 -2h3l3 2h2l17 -5l13 3l3 -3h3l18 8l36 -3l37 6l3 -3l3 3v3q24 -3 24 -9l3 3h16l11 -3l11 3h8l13 -3q0 14 16 14z" />
    <glyph glyph-name="U" unicode="U" horiz-adv-x="380" 
d="M40 650q44 -27 57 -68l-15 -94l3 -3v-3l-5 -17l2 -8l-2 -3v-3l2 -3l-5 -48l3 -11h-3l5 -23l-2 -11q3 -40 8 -46l-3 -17q9 -5 20 -43q36 -42 71 -42l3 -3h3l14 6v-3l3 3h5l3 -3q71 30 71 99v34q-17 91 -17 140v25q0 45 51 134l3 2h26q14 -8 14 -19q0 -18 -14 -40
q-12 -30 -17 -68l-3 -3v-3l3 -51h-3l8 -29h-2l5 -22h-3q15 -29 15 -54v-23l-3 -11l3 -9h-3l3 -3v-3q-9 -39 -26 -62q-15 -36 -45 -54q-51 -34 -71 -34v3l-57 -6q-37 0 -88 51q-48 71 -48 154l-6 28h3l-6 23l3 28l-3 3v3l3 8l-3 3l3 14v9l-3 11q5 17 9 17l-3 3v3q1 28 8 28
l-3 3v3l9 34l-3 14q5 0 9 17l-3 3l3 12l-3 22z" />
    <glyph glyph-name="V" unicode="V" horiz-adv-x="375" 
d="M340 650q7 0 7 -16h3q-4 -65 -25 -124l-7 -22l3 -16q-7 0 -25 -70q-17 -19 -26 -64q-57 -106 -57 -131l3 -3v-6l-28 -48h-3q-46 0 -61 38l-22 26l3 3v3l-16 22q6 0 10 23q-9 0 -19 67l-10 12v3l3 4v3q-11 0 -41 114h3l-13 42l3 9q-4 0 -22 77l3 19l-6 6v19l6 7
q48 -30 48 -70q6 0 6 -13h-3q42 -129 51 -137l-3 -3l51 -121h3q8 1 32 67q9 3 54 111l16 23q1 19 6 19l-3 3v3q10 6 48 102q6 0 13 16z" />
    <glyph glyph-name="W" unicode="W" horiz-adv-x="490" 
d="M10 650h6q10 0 36 -71h-4q13 -29 17 -81h-4l17 -61l-4 -3v-3q15 -53 23 -120h3q36 52 36 62q0 45 45 45l3 -3h3q0 6 26 9q23 0 29 -32l-6 -13l3 -3l-3 -16q23 -54 48 -78l10 23l-3 3v3l25 81l13 26l-3 3v3q62 201 97 226q42 0 42 -26v-19q0 -13 -26 -36l-29 -93l-39 -158
l-13 -58l4 -4v-3l-10 -19l3 -3v-10l-3 -19l3 -4v-3q-10 -42 -32 -42v-3q-44 0 -78 81q0 14 -58 84h-3l-23 -39l-22 -49l3 -12l-16 -26q0 -29 -23 -29q-17 0 -67 67l3 4l-7 32l4 3l-20 113h3l-16 100l3 16l-6 61l3 4l-3 32v48z" />
    <glyph glyph-name="X" unicode="X" horiz-adv-x="481" 
d="M20 650q0 -9 27 -13l10 3l-3 -17v-3q20 0 50 -37q59 -50 90 -94l4 3l10 -13q8 1 43 57q8 0 54 57q16 31 27 40h10q10 0 27 -53q0 -13 -37 -44l-60 -91l-7 -27l3 -3v-3l-3 -10q30 -25 30 -41l3 4h4l33 -37q22 -29 47 -44q0 -5 34 -20q0 -9 17 -10q23 -48 23 -64
q-16 -30 -37 -40h-10q-50 23 -50 30q-22 29 -74 74l-84 84q-9 0 -17 -24q-48 -51 -87 -114q-31 -43 -63 -43q-14 15 -14 23h3q-6 15 -6 44v17q0 6 20 13q40 47 40 57q8 0 34 40q37 36 37 61q-67 86 -88 100q-39 56 -43 84q-8 0 -17 47z" />
    <glyph glyph-name="Y" unicode="Y" horiz-adv-x="372" 
d="M8 650l40 -37q6 0 13 -13l42 -40q14 -26 35 -26q19 -27 45 -27q138 121 138 140h7q19 -18 19 -34q0 -15 -26 -48l-35 -42l-40 -40q0 -8 -13 -13q0 -6 -16 -18l-10 -27h-3l3 -18v-27l2 -10l-5 -11l3 -3v-5l-3 -13l3 -16v-3l-3 -16l3 -2l-3 -16l3 -16l-3 -18l3 -8l-3 -11
l3 -16l-3 -3v-2l3 -3v-2q-8 -53 -16 -53l-19 -3v3l-2 -3h-6q-9 5 -24 32l3 18l-5 21v3q5 0 8 50h2l-5 14l3 13l-3 18l5 53l-5 16l3 8l-6 5l3 19l-8 8v16q-13 0 -18 13q-6 0 -8 16q-15 0 -61 61q-37 47 -37 58q-11 26 -11 53z" />
    <glyph glyph-name="Z" unicode="Z" horiz-adv-x="427" 
d="M184 626l10 -3l2 3l15 -3l30 3l7 -3l3 3h2l3 -3h2l20 3q36 0 70 -45v-17q0 -9 -60 -67q-1 -8 -57 -64q-11 -25 -70 -86l-67 -89v-3l20 -5l32 2v-2l25 5l15 -3l23 3v-3q29 3 29 9l13 -3l32 3v-3l3 3h32l2 -3l3 3l10 -3l25 3q44 -26 44 -50q0 -20 -32 -28h-3l-2 3l-12 -6
l-10 3l-8 -3l-20 6l-2 -3l-25 3l-119 -9l-3 3v3l-12 -3h-22l-28 -3l-7 3l-13 -3l-10 3l-7 -3l-17 9l-25 -12q-19 0 -25 31l7 14l-2 3v3q8 50 32 50l154 197l60 78v3h-47l-8 -5q-12 0 -12 5l-3 -3h-2l-8 3l-2 -3h-3l-2 3h-3l-15 -5l-2 2h-2q-18 -2 -18 -8q-38 0 -64 56v3
l84 22h5l2 -3z" />
    <glyph glyph-name="bracketleft" unicode="[" horiz-adv-x="230" 
d="M86 670h4q8 -8 47 -11l29 11l3 -4l4 4q0 -10 29 -22l3 -14q-11 0 -11 -14h-3l3 -4v-4l-3 -3v-4l3 -3v-4q-13 -25 -28 -25l-26 3q0 -7 -10 -7q-29 0 -29 7l-4 -3h-25l-14 -83l-4 -4l4 -21l-4 -4l4 -3l-4 -18v-22l4 -11l-8 -65l4 -10l-4 -65l8 -25l-4 -15l11 -25l39 11
l18 -7l15 3q11 0 14 -36q0 -11 -50 -36l-15 4q-36 -11 -64 -11q-15 5 -22 18l4 25l-4 25l4 4v4l-4 10l7 11l-7 43l4 29l-4 15l7 14l-3 4v108l3 21l-3 11l7 29l-4 11h4l-4 3l4 11l-4 29l7 14l-3 11l3 22l-3 3v4l7 7l-7 7q17 34 32 36l11 -3q16 0 32 14z" />
    <glyph glyph-name="backslash" unicode="\" horiz-adv-x="547" 
d="M489 607q33 0 33 -42q0 -17 -36 -42q-10 -14 -16 -52q-12 0 -20 -45h4l9 3q27 0 39 -23v-12q0 -8 -45 -23l-13 3q-7 0 -16 -52q-9 -12 -17 -45l-3 -10h-3l3 -3l-3 -16l3 -10q0 -16 -19 -29h-10l-13 3l-3 -3h-3q-46 28 -46 84q-10 8 -22 52q-15 40 -30 52q-22 0 -68 -130
q-22 -28 -22 -48l-20 -23l-13 -3q-26 0 -26 16q-16 7 -16 23h-6l-7 9l3 20l-6 55h3l-9 55l3 3h-3l-56 -13q-13 0 -19 33q37 9 62 9h13v23l-4 16l4 20v9l-4 16q7 114 29 114h4q17 -5 29 -36v-13l-7 -6l4 -3q-3 -20 -7 -20l3 -3v-3l-3 -13l3 -4l-6 -35l3 -3v-49h3l72 6l3 -3
q43 71 78 71l22 4q17 0 17 -36l12 -32l13 -4l46 4h3q0 18 16 58l-3 10q4 0 13 29q9 45 26 45q6 33 29 33q0 7 16 9zM126 384v-16l7 -10v-7l-3 -3l6 -19h-3l3 -10h3q0 8 17 10l25 52l4 13zM337 390q15 -61 23 -61q16 33 16 61h-39zM139 313v-10h4l3 10h-7z" />
    <glyph glyph-name="bracketright" unicode="]" horiz-adv-x="237" 
d="M58 648l28 -10l4 3h36l4 -3l3 3q41 0 79 -29l-7 -32l4 -11l-4 -3h-3l3 -11l-3 -11l3 -11l-3 -57v-33l-4 -3l4 -11l-8 -69l4 -10l-7 -8v-18l3 -14l-7 -14l4 -4q-8 -130 -47 -130h-7l-18 4l-29 -7l-4 3h-3l-25 -10l-15 3l-14 -3q-19 0 -29 18v7q15 43 43 43q79 0 79 22
l4 14l-4 11l11 75l-3 11q5 108 10 108l-3 18v25l-4 33l4 18l-4 11h4q-4 14 -18 14l-43 -7q-15 0 -15 7l-3 -4h-4q-11 0 -11 22q-11 0 -11 7v18q0 25 26 25z" />
    <glyph glyph-name="asciicircum" unicode="^" horiz-adv-x="212" 
d="M73 606h3l3 -3l2 3h14l51 -57q10 0 33 -22q8 0 8 -19q-22 -29 -43 -29q0 4 -22 13q0 7 -19 25q-15 14 -38 24l-19 -22l3 -2v-11q-8 -21 -16 -25h-19q-9 3 -9 17v8h-5v11q10 35 24 35v8q0 14 14 19q0 7 22 22q0 4 13 5z" />
    <glyph glyph-name="underscore" unicode="_" horiz-adv-x="405" 
d="M312 248q61 -22 68 -36q-11 -35 -48 -60h-20l-40 4l-36 -4h-8l-4 4l-4 -4h-20l-4 4l-4 -4h-4l-4 4h-4l-4 -4l-48 8l-4 -4h-4q-104 14 -104 24q-16 22 -16 44l12 8l84 -4l4 4h4l4 -4l48 4h32l4 -4l44 8l12 -8l4 4h40z" />
    <glyph glyph-name="grave" unicode="`" horiz-adv-x="165" 
d="M22 579l26 -9l20 -16l12 -1l3 -5l-2 -3l13 -1q38 -22 43 -45l3 -18l-3 -29q-31 -36 -45 -30l-36 42l-19 19q-25 32 -37 49l3 32l3 8z" />
    <glyph glyph-name="a" unicode="a" horiz-adv-x="365" 
d="M281 530q27 -12 27 -36v-4q0 -27 -8 -27l4 -4v-4q0 -26 -15 -44l4 -4v-4q-16 -18 -16 -79l4 -4v-3l-4 -12q0 -56 35 -56q24 0 28 -19q0 -20 -32 -40q-52 0 -67 83l4 12l-4 4q-7 0 -71 -75q-30 -19 -79 -24q-71 23 -71 67q-8 0 -16 48h-4q9 59 16 59l-4 4v4q26 71 99 126
l8 8h4l4 -4h3q0 12 44 12h16q27 -4 27 -12q26 22 64 28zM47 332l4 -15l-4 -4v-4q15 -44 40 -44q56 16 91 95l20 75l-8 12v8l4 4v4l-16 12l-12 -4l-4 4h-4q-38 -9 -51 -32q-31 -11 -56 -91z" />
    <glyph glyph-name="b" unicode="b" horiz-adv-x="305" 
d="M38 768h17q25 -18 25 -71l-7 -22l3 -4h4l-4 -44v-18l-3 -4l3 -5l-3 -22v-66l-4 -4l4 -14l-4 -4v-4l4 -18q44 53 90 53h34q83 -35 83 -141q-17 -84 -45 -84q-19 -39 -76 -71l-3 5h-4l-66 -31l-6 -9l-18 4l-24 -4l-24 44v5l3 13h-3q-6 0 -11 26l4 27l-4 22h4l-7 17l7 22
l-7 27v18l3 4l-3 4l3 27l-3 26l10 124l-3 4v5l31 154v9zM97 368l3 -5v-4l-14 -40l4 -31v-31q59 15 117 97q15 16 25 58q-2 22 -11 22l-3 13h-4l-17 -4l-7 8h-10q-67 0 -83 -83z" />
    <glyph glyph-name="c" unicode="c" horiz-adv-x="269" 
d="M128 530q70 -3 76 -44q11 0 20 -20v-16q-6 -16 -28 -16q-21 26 -36 28q-41 -7 -72 -44l-32 -92q17 -68 68 -68q19 0 44 28q18 0 28 16q40 0 48 -56q0 -16 -20 -16q0 -21 -12 -24l-4 4h-4q-35 -20 -100 -20q-100 30 -100 100l-4 32v4q1 48 8 48l-4 4q0 40 56 116z" />
    <glyph glyph-name="d" unicode="d" horiz-adv-x="363" 
d="M250 722q34 -22 34 -45l-4 -13l12 -9l-8 -49l4 -18l-8 -32l4 -4v-4l-9 -41v-44l-4 -72l4 -4v-5l-4 -4v-5l9 -49l-5 -13l13 -14l-4 -4v-5q8 -9 33 -9l21 -35q-18 -39 -25 -41h-17q-47 0 -62 72h-4q-60 -85 -113 -85q-65 0 -79 36l-30 44l5 5q-13 29 -13 71v18
q0 133 113 157h25l50 -14l16 125v5l-8 13v14q13 13 21 49zM46 364v-31q0 -48 29 -76h33q67 42 67 112h4l-4 4l9 54q0 10 -46 40q-80 -25 -80 -62z" />
    <glyph glyph-name="e" unicode="e" horiz-adv-x="313" 
d="M202 530l52 -26l13 -26v-21q0 -31 -65 -69l-69 -17h-51l-13 -13v-39l8 -13l-4 -13h4q22 -34 56 -34l13 -13l30 4l9 -8h17q0 16 39 25l4 -4h4l22 4q0 -8 13 -8l4 -4v-5q-3 -22 -43 -56h-30l-17 -4l-5 4l-17 -4q-141 0 -167 116l4 5l-13 25q25 107 64 134q8 0 18 26
q15 0 47 21zM95 420l42 -8q36 0 93 34q0 16 -25 16l-34 -8l-9 8h-8q-53 0 -59 -42z" />
    <glyph glyph-name="f" unicode="f" horiz-adv-x="325" 
d="M218 799h21q34 0 48 -39q-8 -20 -17 -22q-16 13 -31 13q-62 0 -69 -178l4 -5l-4 -21v-39l17 -5l26 13l22 -8l4 4h5q46 -16 56 -44q0 -9 -30 -21q-13 -26 -52 -26q-22 0 -22 8q-26 -4 -26 -21l8 -27l-8 -47l4 -5v-4q-26 -135 -91 -135h-26q-34 22 -44 48q0 26 35 26
q33 0 52 91l-4 13h4l-4 5v4l4 26q0 23 -22 35h-43q-9 0 -9 17q-12 2 -26 31l4 4v5l-4 4v4l13 18q31 -18 78 -18l9 52l-4 5v4q18 148 48 183q51 52 74 52z" />
    <glyph glyph-name="g" unicode="g" horiz-adv-x="314" 
d="M170 540l94 -39l-4 -4q7 -35 15 -35l-8 -69l6 -13l-9 -60l6 -17l-4 -5l4 -4l-5 -43l5 -4v-9l-4 -4l5 -5v-4l-3 -22q9 0 10 -12l-4 -5v-4l15 -26l-14 -39l2 -26q3 -40 -49 -99q-51 -47 -117 -47q-48 0 -87 56l-21 56q-3 41 123 82q0 10 93 26l-7 38l3 26l-5 5v4l2 26
l-6 21q-24 -25 -41 -25l1 -9h-26q-79 0 -98 99l-1 17l11 78q48 95 118 95zM84 363l5 -13l-4 -4l1 -4q24 -43 33 -44q31 0 59 78l-6 17h5l-11 31l17 56h-8q-84 0 -91 -117zM41 70l1 -9q24 -69 74 -69v-4q56 0 97 82q3 43 10 43l-5 13l3 13h-4q-107 -19 -176 -69z" />
    <glyph glyph-name="h" unicode="h" horiz-adv-x="295" 
d="M38 763q39 -18 51 -44l-9 -26l4 -5v-5l-8 -26l4 -16l-8 -86l4 -15h-4l4 -6v-5l-4 -5v-16h4l-4 -36v-32h4q58 56 88 63q38 -6 38 -16l5 5h4q27 -22 42 -78l-4 -5v-5l8 -11v-16q0 -50 13 -140h-4l4 -5v-21q0 -16 -55 -16h-8q-10 0 -17 109l12 16q-12 104 -33 104h-13
q-55 -38 -55 -78l-12 -10l4 -6v-5q-5 -135 -55 -135q-27 63 -38 68l17 88l-4 42h4l-13 89l9 84l-5 -15l5 26v32l-5 21q9 26 9 84v5l-4 5q8 44 25 44z" />
    <glyph glyph-name="i" unicode="i" horiz-adv-x="128" 
d="M46 623q45 0 56 -31v-10l-31 -30h-30q-41 23 -41 56q23 15 46 15zM31 526q25 0 51 -20h5l5 -46l-10 -51l5 -5v-30l-5 -5l10 -51l-5 -16l5 -20h-5l16 -26q0 -37 -41 -66h-5q-41 16 -41 71v6l10 10v127l-5 117l5 5h5z" />
    <glyph glyph-name="j" unicode="j" horiz-adv-x="273" 
d="M181 640q63 -13 63 -50v-4l-27 -27h-18q-15 0 -32 58v14q0 9 14 9zM199 527h9q35 -19 40 -31v-14l-4 -18l4 -5v-4l-9 -45l5 -23l-5 -31l5 -5l-5 -23v-22q0 -203 -72 -253q-33 -13 -95 -18q-58 22 -58 50l-14 27q18 81 81 81l5 5h4l9 -28q-13 -13 -45 -13l-18 -36
q18 -32 50 -32h45q63 52 63 140l-4 5l4 22v9l-4 27l4 5l-4 68v131l-5 22z" />
    <glyph glyph-name="k" unicode="k" horiz-adv-x="315" 
d="M46 692q34 0 42 -71v-5q-8 -8 -8 -37h-4l4 -5v-42l4 -16l-8 -26v-58h4q83 42 96 42l17 12h9l25 -21l-4 -12l4 -5v-4q0 -22 -46 -38l-5 4h-4q-20 -4 -38 -25q-14 0 -25 -25l109 -92l68 -26l4 -42q-13 0 -13 -12l-4 -4h-13l-4 4l-4 -4h-8l-13 8l-4 -4h-4q-39 3 -143 109
l-4 -25l12 -25v-9l-4 -21l13 -12q-16 -44 -47 -55h-12q-38 25 -38 84l8 8v9l-4 80l4 4v4l-4 17v25l4 4l-4 4l4 30v4l-4 34l4 33v17l5 4l-5 5l9 96l4 4h4l-4 5v4l8 33l-4 13q7 0 13 21h8z" />
    <glyph glyph-name="l" unicode="l" horiz-adv-x="112" 
d="M34 678h11q23 -17 31 -52h3l-3 -4v-4l3 -12l-11 -12l4 -4v-20l-4 -4l4 -4v-16l-4 -36l4 -12l-4 -40l4 -4l-4 -20v-52l4 -16l-4 -4v-4l8 -64l-4 -4v-4l15 -72l-4 -12l4 -24l-30 -28h-8q-28 0 -49 52l4 4l-4 4v4l11 36l-7 88l4 4l-4 4h-4v8h4l-4 40v4l4 20l-4 24v28l4 4
l-4 4l8 72l-4 12q17 116 30 116z" />
    <glyph glyph-name="m" unicode="m" horiz-adv-x="451" 
d="M45 521q37 -27 37 -50l-9 -36l4 -5q83 77 150 77l27 -31q0 12 54 27q96 -30 96 -113l9 -50v-32l13 -23l-4 -27l4 -14q-23 -27 -36 -27q-19 6 -27 23l4 4l-13 19l9 18l-5 18l9 9l-4 4v5l4 18q-24 113 -45 113l-23 14h-4q-32 -12 -32 -50l-9 -27l4 -5q-4 -49 -13 -59l9 -9
v-9l-9 -13l9 -50h-5l5 -5v-18l-27 -27h-5q-28 14 -32 32l5 41l-5 18l10 9l-5 131l-14 9h-4q-50 -38 -73 -145q0 -86 -45 -86q-59 43 -59 77v14l9 9l-4 4v5q9 12 13 63l-4 14l4 14l-4 13h4l-4 5q0 104 31 104z" />
    <glyph glyph-name="n" unicode="n" horiz-adv-x="351" 
d="M238 521q83 -26 83 -112l5 -24q-18 -46 -18 -83l9 -78q-12 -31 -22 -34h-5l-4 5l-13 -5q-20 9 -22 19l4 5l-13 15l18 92l-5 5l9 49q0 68 -48 68v5q-87 -43 -124 -161l5 -5v-4q-14 -73 -35 -73q-46 26 -62 87l13 15l-4 5l9 43l-5 5v20l-9 68l5 5h4l-4 5v4q4 39 13 39h4
q40 0 49 -29l-5 -5v-5l5 -24l-5 -15v-4h5q46 66 163 102z" />
    <glyph glyph-name="o" unicode="o" horiz-adv-x="307" 
d="M141 525l48 -19l14 4q66 0 79 -121v-15l-5 -29l5 -14q-34 -122 -110 -122q-16 -14 -31 -14v5l-18 -10q-85 0 -114 83l-5 24l5 5v5l-9 48l4 5q34 165 137 165zM66 360q12 -87 48 -87v-10h22l5 -5q79 19 79 155q-44 25 -44 44q-9 29 -31 29q-53 0 -75 -102z" />
    <glyph glyph-name="p" unicode="p" horiz-adv-x="323" 
d="M66 504l4 -5l21 5h21q142 0 182 -124l4 -41q0 -64 -132 -64v4l-5 -4h-16q-87 0 -87 -32v-40l4 -41l-4 -5l4 -48v-5l4 -5l3 -57l-4 -18l-21 -35h-21q-13 0 -23 44l8 32l-4 14h4l-4 5v32l-4 28l4 18l-4 41l4 14l-4 5l8 163h4l-4 4l4 23l-4 19q7 10 13 64zM58 393v-58l12 -6
l9 11h16l42 -17l4 6l29 -6q62 0 62 41q0 69 -75 99h-70q-29 0 -29 -70z" />
    <glyph glyph-name="q" unicode="q" horiz-adv-x="303" 
d="M148 523q113 -15 113 -40q6 0 17 -44q-9 -15 -17 -100l4 -15h-4l4 -5v-5l-4 -5v-5l8 -10l-8 -9v-10l4 -25l-4 -15l4 -109v-5l4 -25h-4l4 -5v-5l-4 -5l9 -60q-9 -31 -22 -34h-13q-33 0 -48 44l4 5v5l-4 5l4 25v20l-4 20l4 5l-4 25q2 29 9 29l-5 5v5l5 5l-5 15l5 55l-5 5v5
l-78 -15q-101 0 -117 139v5q58 129 148 129zM51 383v-10q12 -69 60 -69l4 6h5l4 -6h5q69 12 69 58l9 94l-9 21l-5 -5l-23 5q-47 0 -96 -42z" />
    <glyph glyph-name="r" unicode="r" horiz-adv-x="319" 
d="M26 529l48 -56l-9 -70h4q89 75 121 75l18 6q38 0 38 -21l5 5h4q33 0 39 -50q-19 -12 -22 -26q-33 6 -69 31h-26q-59 -63 -73 -117l-5 -25l5 -5v-5l-5 -5q3 -29 13 -46q-5 -30 -38 -30q-36 0 -65 76l8 15q-17 98 -17 187q13 51 26 61z" />
    <glyph glyph-name="s" unicode="s" horiz-adv-x="268" 
d="M116 539q83 0 116 -74q-14 -38 -28 -39q-28 5 -28 21l4 11q-19 19 -64 24h-10l-32 -10v3q-16 0 -35 -35q0 -42 70 -46l4 -3l3 3h4q119 -50 119 -81l4 -24q-7 0 -7 -29q-25 -43 -78 -70h-38l-4 4l-10 -4l-25 11l-4 -4h-3l-25 11l-14 -4q-12 8 -24 46l7 10l-4 4v3
q17 18 39 18l10 -7l4 4h3l22 -25l17 -4l28 4v-4q13 3 46 29v35q-29 28 -70 28l-4 -4h-3q-81 12 -81 29q-25 29 -25 42h4l-4 3v4l4 14l-4 14q30 78 67 78q0 4 49 14z" />
    <glyph glyph-name="t" unicode="t" horiz-adv-x="301" 
d="M117 688q42 -26 42 -67l-4 -17l4 -4v-4l-8 -54l4 -13h29l4 -4l46 8l30 -17l12 -21v-12q0 -14 -54 -21l-63 8v-4l-4 -4l4 -4v-9l-8 -33v-50l4 -63h-4q15 -67 37 -67q17 0 17 21l17 13q21 0 42 -21v-13q-50 -42 -80 -42l-21 -4v4l-4 -4h-4q-31 0 -59 75l-4 21h4l-4 4v9l4 4
l-8 25v134l-8 8h-5l-37 -4q-27 0 -38 46q13 0 13 17l16 21h4l59 -17l8 46l-4 4l9 76l-9 8v4z" />
    <glyph glyph-name="u" unicode="u" horiz-adv-x="327" 
d="M51 517q17 -5 38 -42v-5l-21 -114q14 -122 51 -128q66 0 123 217l-4 4q0 49 51 60h4l9 -9v-17l-5 -25l5 -17l-22 -94l5 -4v-4q0 -74 17 -119l-26 -17q-34 0 -34 59q-52 -68 -110 -68l-5 -4q-65 0 -89 42q-38 73 -38 145q23 140 51 140z" />
    <glyph glyph-name="v" unicode="v" horiz-adv-x="276" 
d="M50 533l42 -54l-4 -5h-13l-16 13l-5 -4q42 -104 55 -155h4l50 151q27 41 46 41h21l21 -33q-21 -38 -42 -117q-38 -64 -50 -163q-8 0 -8 -13l-5 -4h-37q-31 19 -50 67l4 4v4l-21 59h4l-13 38l5 4q-12 0 -30 92l-8 8v13q0 54 50 54z" />
    <glyph glyph-name="w" unicode="w" horiz-adv-x="411" 
d="M340 519q46 0 46 -42q0 -13 -55 -70l-12 -38l4 -5q-9 0 -33 -113v-33q0 -14 -42 -23q-51 36 -51 94q-29 67 -29 113q-7 0 -38 -108l-33 -85l-17 -19q-45 0 -55 75h4l-8 29h4l-12 56h4l-13 57h4l-8 32q3 71 17 71q29 -27 29 -66l-4 -5v-4q15 -109 25 -109q61 130 76 146
l50 15q17 -20 17 -48h-4l4 -4v-5l-4 -5q4 -63 21 -108l96 193z" />
    <glyph glyph-name="x" unicode="x" horiz-adv-x="316" 
d="M24 463l103 -98l62 57q36 32 64 32l20 -28q-4 -42 -68 -84l-17 -28v-5l103 -103q-4 -47 -39 -33h-9q-32 0 -96 84l-13 9q-27 -46 -67 -89l-25 -17q-35 0 -39 26q-3 13 5 31l5 10l19 16q53 55 54 66q-34 39 -55 43l-17 28l-9 32l3 37z" />
    <glyph glyph-name="y" unicode="y" horiz-adv-x="323" 
d="M21 492h13q20 -10 46 -80l50 -75l50 -38h13q42 95 50 138l-4 5v4l21 29h4q30 0 30 -25h-4l8 -29l-67 -227l-63 -101l-50 -71l-34 -21h-4q-46 0 -46 13q0 21 67 100q60 92 67 130q-168 129 -168 214q0 22 21 34z" />
    <glyph glyph-name="z" unicode="z" horiz-adv-x="302" 
d="M147 490v-4l4 4h17q29 -13 75 -63v-13q-41 -30 -50 -67q-25 -19 -71 -100h4l13 4l46 -4l16 4q38 0 76 -42v-17q0 -7 -29 -21l-5 4h-4l-12 -4q-38 3 -38 8l-84 -16v4l-63 -17h-13q-15 9 -29 34v16q8 9 13 51q16 21 33 21l93 113l12 38l-29 -9l-21 5l-13 -5l-4 5h-4l-30 -9
l-4 4l-8 -8h-21q-9 0 -17 29q46 55 147 55z" />
    <glyph glyph-name="braceleft" unicode="{" horiz-adv-x="219" 
d="M158 710q17 -6 26 -22q-14 -36 -33 -43q-28 -31 -39 -83l7 -18l-4 -18l7 -47q0 -38 -46 -93q13 0 36 -44h-4l4 -3v-76l-8 -7l4 -4v-3l-7 -51l3 -3v-4l-3 -14q3 -12 25 -25l36 7q24 0 32 -36q-30 -25 -57 -25v3l-33 -11q-43 13 -43 51v11l4 3v4l-7 7v32l21 105
q-7 10 -7 39l-29 8h-25l-18 14q15 50 36 50q31 29 40 51v11q-7 6 -18 79q10 85 43 122q19 20 57 33z" />
    <glyph glyph-name="bar" unicode="|" horiz-adv-x="119" 
d="M54 666q23 0 32 -90l-3 -3l3 -36v-22l-3 -39l3 -26h-3l11 -28l-4 -4h-4l4 -11l-4 -39v-8l4 -18q-7 -35 -7 -104v-22l7 -21q-7 -8 -7 -43l-22 -15l-3 4h-4l-7 -7q-32 0 -47 61q2 21 11 21l-4 4v4l4 3l-4 4q6 97 11 97l-7 11l7 43l-4 4v3l8 15l-4 3v4l4 3l-4 4l4 25l-4 29
h4l-4 4l11 90v25l3 3l-3 11l7 15l-4 3q0 32 22 43z" />
    <glyph glyph-name="braceright" unicode="}" horiz-adv-x="237" 
d="M79 710q90 -46 90 -105l4 -25h-4l4 -4q-12 -106 -36 -158q2 -16 50 -29q0 -7 22 -14l3 -18q-13 -4 -32 -29q-11 0 -29 -18l11 -61l-4 -11l8 -7l-4 -11l4 -18v-14q0 -73 -105 -83l-36 -15q-25 3 -25 26l7 7l-3 11q16 14 32 14l22 -4l3 4q51 11 51 68l-8 94q4 31 26 54
q-40 24 -40 43v11q0 34 22 72l-4 11l14 61l-3 29h3l-7 21l4 4l-29 36q-44 14 -47 25v7q16 21 36 26z" />
    <glyph glyph-name="asciitilde" unicode="~" horiz-adv-x="546" 
d="M148 442h6l6 -7l9 3l44 -11l10 4q68 -19 122 -55h28q41 17 66 44l26 -4l9 4l41 -22v-11l-3 -4v-3l9 -11l-31 -15q0 -16 -113 -44q-31 0 -95 29l-15 4l-3 -4q0 16 -73 37l-59 -15l-10 4q0 -16 -87 -40q-35 -14 -35 7q30 46 63 77q38 22 72 26l3 -4z" />
    <glyph glyph-name="uni2015" unicode="&#x2015;" horiz-adv-x="975" 
d="M950 440v-49h-950v49h950z" />
    <glyph glyph-name="quoteleft" unicode="&#x2018;" horiz-adv-x="145" 
d="M96 684h12q9 0 12 -20q-48 -24 -64 -40v-8q28 -8 28 -28q0 -37 -60 -72q-18 0 -24 52v16q48 77 96 100z" />
    <glyph glyph-name="quoteright" unicode="&#x2019;" horiz-adv-x="141" 
d="M59 676l3 -2q45 -30 53 -63q1 -20 -12 -51l-1 -4q-29 -41 -55 -30l-10 17l15 6q20 15 17 33l1 3l-2 5l2 4l-40 -2q-30 22 -26 32l4 20l3 8q8 22 31 13q7 14 17 11z" />
    <glyph glyph-name="quotedblleft" unicode="&#x201c;" horiz-adv-x="245" 
d="M96 678q18 -8 20 -16v-8q0 -12 -44 -16l-20 -20q44 -29 44 -44q0 -31 -56 -52q-40 5 -40 28q0 66 72 124zM188 658q20 0 32 -20v-4q-8 -16 -24 -16l-12 8q-18 -8 -20 -16v-4q21 0 32 -20v-36q-14 0 -20 -24l-4 4l-48 -8q-13 0 -16 56q12 0 12 16q38 52 68 64z" />
    <glyph glyph-name="quotedblright" unicode="&#x201d;" horiz-adv-x="247" 
d="M36 642h4l4 -4l4 4h20q27 -19 44 -52v-32q0 -33 -40 -44l-8 12l13 9l3 15l-12 12q0 -6 -16 -12q-52 10 -52 44l4 16l-4 4zM138 686h4q52 -12 72 -40q8 -18 8 -52v-4q-3 -38 -30 -52q-25 0 -25 6l6 12q13 19 9 46v4l-4 4v4l-36 -16q-36 9 -36 20l-4 20v8q0 24 24 24
q2 16 12 16z" />
    <glyph glyph-name="twodotenleader" unicode="&#x2025;" horiz-adv-x="375" 
d="M58 444h24q14 0 24 -48q-9 0 -15 -33l-24 -5q-30 0 -67 38q0 26 29 44h9l5 -5h5zM341 446l9 -15v-14q0 -58 -72 -58h-4l-34 34v19q18 34 101 34z" />
    <glyph glyph-name="ellipsis" unicode="&#x2026;" horiz-adv-x="617" 
d="M58 444h24q14 0 24 -48q-9 0 -15 -33l-24 -5q-30 0 -67 38q0 26 29 44h9l5 -5h5zM524 465h5q40 0 63 -82v-19q-22 -29 -39 -29q-6 19 -29 19l-28 34l-5 -5h-10l-24 19q22 20 34 53zM341 446l9 -15v-14q0 -58 -72 -58h-4l-34 34v19q18 34 101 34z" />
    <glyph glyph-name="uni203B" unicode="&#x203b;" horiz-adv-x="340" 
d="M34 424h15q9 0 14 -29q-5 0 -8 -19l-15 -4q-18 0 -40 23q0 16 17 26h5l4 -2h3zM187 568l6 -9v-8q0 -35 -43 -35h-4l-19 20v11q10 21 60 21zM154 291h14q8 0 14 -29q-5 0 -9 -20l-14 -3q-18 0 -40 23q0 16 17 26h6l3 -3h2zM305 438l5 -9v-8q0 -35 -43 -35h-2l-21 21v11
q11 20 61 20zM27 567q0 -6 18 -9l7 2l-2 -12v-2q14 0 34 -25q40 -34 61 -63l2 2l7 -9q6 1 28 26q29 30 65 61q11 21 18 27h7q7 0 28 -35q0 -8 -42 -48l-38 -40l-27 -32l2 -2v-3l-2 -6q20 -17 20 -28l2 3h3l22 -25q8 -13 25 -23q0 -4 23 -14q0 -6 11 -7q16 -32 16 -43
q-10 -20 -25 -27h-6q-34 16 -34 20q-15 20 -44 44l-56 56q-7 0 -12 -16q-33 -34 -59 -77q-21 -29 -43 -29q-9 10 -9 16h2q-4 10 -4 29v12q0 4 13 9q28 31 28 38q5 0 22 27q25 25 25 41q-44 59 -59 68q-26 38 -29 57q-6 0 -11 32z" />
    <glyph glyph-name="uni2460" unicode="&#x2460;" horiz-adv-x="904" 
d="M474 705v-597h-47v559h-80v38h127zM440 878q93 0 173 -38t139 -101q59 -64 93 -148t34 -175q0 -93 -34 -177t-93 -147q-60 -63 -140 -100.5t-172 -37.5t-172.5 37.5t-139.5 100.5q-60 63 -94 147t-34 177q0 91 33.5 175t93.5 148q59 63 139.5 101t173.5 38zM440 827
q-83 0 -154 -33.5t-123 -89.5q-52 -57 -81.5 -131.5t-29.5 -156.5t29 -156.5t81 -130.5q52 -57 123 -90.5t155 -33.5q82 0 153 33t123 90q52 56 81.5 130.5t29.5 157.5q0 81 -29.5 155.5t-81.5 131.5q-52 56 -123 90t-153 34z" />
    <glyph glyph-name="uni2461" unicode="&#x2461;" horiz-adv-x="904" 
d="M438 750q40 0 75 -14.5t61 -39.5q26 -26 41 -60.5t15 -74.5q0 -45 -21 -87t-58 -72q-34 -28 -76.5 -54t-79.5 -51q-37 -26 -62.5 -53t-25.5 -57h334v-48h-398q0 41 16.5 76t44.5 66q27 30 64 57t78 52q27 16 50.5 33t41.5 37t28.5 44.5t10.5 56.5q0 27 -11 52.5t-29 44.5
q-19 19 -44.5 30.5t-54.5 11.5q-25 0 -49.5 -9t-43.5 -26q-20 -17 -32 -40.5t-12 -51.5h-52q0 37 16 69.5t42 56.5t60.5 37.5t70.5 13.5zM440 878q93 0 173 -38t139 -101q59 -64 93 -148t34 -175q0 -93 -34 -177t-93 -147q-60 -63 -140 -100.5t-172 -37.5t-172.5 37.5
t-139.5 100.5q-60 63 -94 147t-34 177q0 91 33.5 175t93.5 148q59 63 139.5 101t173.5 38zM440 827q-83 0 -154 -33.5t-123 -89.5q-52 -57 -81.5 -131.5t-29.5 -156.5t29 -156.5t81 -130.5q52 -57 123 -90.5t155 -33.5q82 0 153 33t123 90q52 56 81.5 130.5t29.5 157.5
q0 81 -29.5 155.5t-81.5 131.5q-52 56 -123 90t-153 34z" />
    <glyph glyph-name="uni2462" unicode="&#x2462;" horiz-adv-x="904" 
d="M623 567q0 -17 -6 -36t-17 -37q-12 -18 -28.5 -33.5t-37.5 -23.5q48 -19 80 -60t32 -94q0 -37 -16 -69.5t-43 -56.5q-28 -25 -65 -39t-79 -14q-41 0 -78 11t-64 33q-28 22 -44.5 53.5t-16.5 72.5h54q0 -30 13 -53t34 -38q21 -16 48 -24t54 -8q30 0 57 10.5t48 28.5
q20 18 32 42t12 51q0 25 -12 47.5t-32 40.5q-20 17 -46.5 27.5t-56.5 10.5h-42v48h42q25 1 47 10t39 24t27 34.5t10 41.5t-10 41.5t-27 34.5q-18 14 -41 22.5t-48 8.5q-23 0 -45 -8t-39 -20q-18 -13 -29 -29.5t-11 -33.5h-56q0 29 16 54.5t42 45.5q25 19 57 30.5t65 11.5
q38 0 71 -12.5t58 -33.5q24 -22 38 -51t14 -61zM440 878q93 0 173 -38t139 -101q59 -64 93 -148t34 -175q0 -93 -34 -177t-93 -147q-60 -63 -140 -100.5t-172 -37.5t-172.5 37.5t-139.5 100.5q-60 63 -94 147t-34 177q0 91 33.5 175t93.5 148q59 63 139.5 101t173.5 38z
M440 827q-83 0 -154 -33.5t-123 -89.5q-52 -57 -81.5 -131.5t-29.5 -156.5t29 -156.5t81 -130.5q52 -57 123 -90.5t155 -33.5q82 0 153 33t123 90q52 56 81.5 130.5t29.5 157.5q0 81 -29.5 155.5t-81.5 131.5q-52 56 -123 90t-153 34z" />
    <glyph glyph-name="uni2463" unicode="&#x2463;" horiz-adv-x="904" 
d="M199 302q75 106 148 209.5t147 209.5h48v-416h71v-48h-71v-142h-51v142h-292v45zM491 305v325q-59 -83 -115.5 -162.5t-115.5 -162.5h231zM440 878q93 0 173 -38t139 -101q59 -64 93 -148t34 -175q0 -93 -34 -177t-93 -147q-60 -63 -140 -100.5t-172 -37.5t-172.5 37.5
t-139.5 100.5q-60 63 -94 147t-34 177q0 91 33.5 175t93.5 148q59 63 139.5 101t173.5 38zM440 827q-83 0 -154 -33.5t-123 -89.5q-52 -57 -81.5 -131.5t-29.5 -156.5t29 -156.5t81 -130.5q52 -57 123 -90.5t155 -33.5q82 0 153 33t123 90q52 56 81.5 130.5t29.5 157.5
q0 81 -29.5 155.5t-81.5 131.5q-52 56 -123 90t-153 34z" />
    <glyph glyph-name="uni2464" unicode="&#x2464;" horiz-adv-x="904" 
d="M606 717v-48h-264q-6 -55 -12 -105t-12 -104q23 22 57.5 33.5t63.5 11.5q42 0 78 -16t63 -43q26 -28 41 -64.5t15 -76.5q0 -41 -15.5 -77.5t-42.5 -63.5q-27 -28 -63 -44.5t-78 -16.5q-35 0 -67 12t-57 34q-26 21 -44.5 50.5t-25.5 64.5h52q13 -51 51 -82.5t91 -31.5
q30 0 57.5 12.5t47.5 34.5q20 21 32 49t12 59t-11.5 58.5t-31.5 48.5q-21 21 -48 33t-58 12q-33 0 -61.5 -14.5t-50.5 -38.5h-64q9 78 18 156.5t17 156.5h310zM440 878q93 0 173 -38t139 -101q59 -64 93 -148t34 -175q0 -93 -34 -177t-93 -147q-60 -63 -140 -100.5
t-172 -37.5t-172.5 37.5t-139.5 100.5q-60 63 -94 147t-34 177q0 91 33.5 175t93.5 148q59 63 139.5 101t173.5 38zM440 827q-83 0 -154 -33.5t-123 -89.5q-52 -57 -81.5 -131.5t-29.5 -156.5t29 -156.5t81 -130.5q52 -57 123 -90.5t155 -33.5q82 0 153 33t123 90
q52 56 81.5 130.5t29.5 157.5q0 81 -29.5 155.5t-81.5 131.5q-52 56 -123 90t-153 34z" />
    <glyph glyph-name="uni2465" unicode="&#x2465;" horiz-adv-x="904" 
d="M446 489q41 0 77 -15.5t63 -41.5q26 -27 41.5 -63t15.5 -77t-15.5 -76.5t-41.5 -62.5q-27 -27 -63 -42.5t-77 -15.5q-98 0 -155 76.5t-57 230.5q0 60 9.5 116.5t34.5 99.5q24 43 65 69t104 26q34 0 64 -10.5t55 -29.5q24 -19 41.5 -45t26.5 -57h-52q-17 42 -53 68.5
t-82 26.5q-48 0 -79.5 -22t-49.5 -59q-18 -38 -25.5 -87.5t-8.5 -103.5q14 26 34.5 44t43.5 30q22 11 44 16t40 5zM446 142q30 0 57 12t47 33q20 20 31.5 47t11.5 58t-11.5 58t-31.5 47t-47 32t-57 12q-28 0 -54.5 -11t-46.5 -30q-21 -20 -33.5 -47.5t-12.5 -60.5
q0 -31 11.5 -58t31.5 -47q20 -21 46.5 -33t57.5 -12zM440 878q93 0 173 -38t139 -101q59 -64 93 -148t34 -175q0 -93 -34 -177t-93 -147q-60 -63 -140 -100.5t-172 -37.5t-172.5 37.5t-139.5 100.5q-60 63 -94 147t-34 177q0 91 33.5 175t93.5 148q59 63 139.5 101t173.5 38
zM440 827q-83 0 -154 -33.5t-123 -89.5q-52 -57 -81.5 -131.5t-29.5 -156.5t29 -156.5t81 -130.5q52 -57 123 -90.5t155 -33.5q82 0 153 33t123 90q52 56 81.5 130.5t29.5 157.5q0 81 -29.5 155.5t-81.5 131.5q-52 56 -123 90t-153 34z" />
    <glyph glyph-name="uni2466" unicode="&#x2466;" horiz-adv-x="904" 
d="M640 695v-139q-33 -36 -73 -89.5t-75 -116.5q-36 -64 -59.5 -133.5t-23.5 -137.5h-53q0 57 19.5 123t51.5 133q32 66 74.5 128t87.5 110v73h-334v49h385zM440 878q93 0 173 -38t139 -101q59 -64 93 -148t34 -175q0 -93 -34 -177t-93 -147q-60 -63 -140 -100.5t-172 -37.5
t-172.5 37.5t-139.5 100.5q-60 63 -94 147t-34 177q0 91 33.5 175t93.5 148q59 63 139.5 101t173.5 38zM440 827q-83 0 -154 -33.5t-123 -89.5q-52 -57 -81.5 -131.5t-29.5 -156.5t29 -156.5t81 -130.5q52 -57 123 -90.5t155 -33.5q82 0 153 33t123 90q52 56 81.5 130.5
t29.5 157.5q0 81 -29.5 155.5t-81.5 131.5q-52 56 -123 90t-153 34z" />
    <glyph glyph-name="uni2467" unicode="&#x2467;" horiz-adv-x="904" 
d="M239 282q0 28 9.5 52.5t24.5 44.5q15 19 34 33t39 23q-24 9 -40.5 24t-27.5 33t-16 38t-5 39q0 33 14.5 62t39.5 50q24 21 57 33.5t71 12.5q37 0 70.5 -12t58.5 -33t39.5 -50t14.5 -63q0 -19 -5 -39t-16 -38t-27.5 -32.5t-40.5 -23.5q20 -9 39.5 -23.5t34.5 -33.5
q15 -20 24.5 -44.5t9.5 -52.5q0 -39 -16 -72t-43 -56t-64 -36t-79 -13t-78.5 13t-63.5 36t-42.5 56t-15.5 72zM588 282q0 24 -12 47.5t-32 41.5q-21 18 -48 29t-56 11q-30 0 -57 -11t-47 -29q-21 -18 -33 -41.5t-12 -47.5q0 -29 12 -53.5t33 -41.5q20 -17 47 -26.5t56 -9.5
q30 0 57 9.5t48 26.5q20 17 32 41.5t12 53.5zM569 569q0 24 -11 43.5t-29 34.5q-18 14 -41.5 22t-48.5 8q-26 0 -49 -8t-41 -22q-18 -15 -28.5 -34.5t-10.5 -43.5t11 -44t29 -34t41.5 -22t48.5 -9q24 1 47.5 9t41.5 22t29 34t11 44zM440 878q93 0 173 -38t139 -101
q59 -64 93 -148t34 -175q0 -93 -34 -177t-93 -147q-60 -63 -140 -100.5t-172 -37.5t-172.5 37.5t-139.5 100.5q-60 63 -94 147t-34 177q0 91 33.5 175t93.5 148q59 63 139.5 101t173.5 38zM440 827q-83 0 -154 -33.5t-123 -89.5q-52 -57 -81.5 -131.5t-29.5 -156.5
t29 -156.5t81 -130.5q52 -57 123 -90.5t155 -33.5q82 0 153 33t123 90q52 56 81.5 130.5t29.5 157.5q0 81 -29.5 155.5t-81.5 131.5q-52 56 -123 90t-153 34z" />
    <glyph glyph-name="uni2468" unicode="&#x2468;" horiz-adv-x="904" 
d="M442 315q-41 0 -76.5 16.5t-62.5 44.5t-42.5 65t-15.5 78t15.5 78t42.5 65t62.5 44.5t76.5 16.5q48 0 87.5 -16t67.5 -50q27 -34 42 -87t15 -127q0 -61 -9.5 -121t-32.5 -107q-24 -47 -64.5 -76.5t-102.5 -29.5q-69 0 -118.5 39.5t-66.5 102.5h53q14 -42 50 -69t82 -27
q48 0 79 24.5t49 62.5q17 37 24 82.5t8 88.5q-14 -26 -34.5 -44.5t-42.5 -30.5q-23 -12 -45.5 -17.5t-40.5 -5.5zM442 675q-30 0 -57 -12.5t-46 -33.5q-20 -22 -31.5 -50.5t-11.5 -59.5q0 -32 11.5 -60t31.5 -49q19 -22 46 -34.5t57 -12.5q28 0 55.5 13t49.5 35
q22 21 35 48.5t13 57.5q0 34 -11 63t-31 50t-48.5 33t-62.5 12zM440 878q93 0 173 -38t139 -101q59 -64 93 -148t34 -175q0 -93 -34 -177t-93 -147q-60 -63 -140 -100.5t-172 -37.5t-172.5 37.5t-139.5 100.5q-60 63 -94 147t-34 177q0 91 33.5 175t93.5 148
q59 63 139.5 101t173.5 38zM440 827q-83 0 -154 -33.5t-123 -89.5q-52 -57 -81.5 -131.5t-29.5 -156.5t29 -156.5t81 -130.5q52 -57 123 -90.5t155 -33.5q82 0 153 33t123 90q52 56 81.5 130.5t29.5 157.5q0 81 -29.5 155.5t-81.5 131.5q-52 56 -123 90t-153 34z" />
    <glyph glyph-name="uni2469" unicode="&#x2469;" horiz-adv-x="904" 
d="M539 686q44 0 78.5 -20.5t58.5 -57.5q23 -37 35 -88.5t12 -113.5q0 -63 -12 -114.5t-35 -88.5q-24 -37 -58.5 -57.5t-78.5 -20.5q-45 0 -79.5 20.5t-57.5 57.5q-24 37 -36 88.5t-12 114.5q0 62 12 113.5t36 88.5q23 37 57.5 57.5t79.5 20.5zM539 172q30 0 56 15.5
t45 45.5q18 29 29 72.5t11 100.5q0 56 -11 99.5t-29 73.5q-19 29 -45 44.5t-56 15.5q-62 0 -102 -60t-40 -173q0 -114 40 -174t102 -60zM304 685v-547h-47v509h-80v38h127zM440 878q93 0 173 -38t139 -101q59 -64 93 -148t34 -175q0 -93 -34 -177t-93 -147
q-60 -63 -140 -100.5t-172 -37.5t-172.5 37.5t-139.5 100.5q-60 63 -94 147t-34 177q0 91 33.5 175t93.5 148q59 63 139.5 101t173.5 38zM440 827q-83 0 -154 -33.5t-123 -89.5q-52 -57 -81.5 -131.5t-29.5 -156.5t29 -156.5t81 -130.5q52 -57 123 -90.5t155 -33.5
q82 0 153 33t123 90q52 56 81.5 130.5t29.5 157.5q0 81 -29.5 155.5t-81.5 131.5q-52 56 -123 90t-153 34z" />
    <glyph glyph-name="uni246A" unicode="&#x246a;" horiz-adv-x="904" 
d="M617 705v-597h-47v559h-80v38h127zM334 705v-597h-47v559h-80v38h127zM440 878q93 0 173 -38t139 -101q59 -64 93 -148t34 -175q0 -93 -34 -177t-93 -147q-60 -63 -140 -100.5t-172 -37.5t-172.5 37.5t-139.5 100.5q-60 63 -94 147t-34 177q0 91 33.5 175t93.5 148
q59 63 139.5 101t173.5 38zM440 827q-83 0 -154 -33.5t-123 -89.5q-52 -57 -81.5 -131.5t-29.5 -156.5t29 -156.5t81 -130.5q52 -57 123 -90.5t155 -33.5q82 0 153 33t123 90q52 56 81.5 130.5t29.5 157.5q0 81 -29.5 155.5t-81.5 131.5q-52 56 -123 90t-153 34z" />
    <glyph glyph-name="uni246B" unicode="&#x246b;" horiz-adv-x="904" 
d="M518 697q36 0 67.5 -13t55.5 -36q23 -23 36.5 -54.5t13.5 -68.5q0 -40 -19 -79.5t-52 -66.5q-30 -24 -67.5 -47.5t-70.5 -47.5q-34 -24 -57.5 -49t-24.5 -53h301v-44h-358q0 37 14.5 69.5t39.5 60.5t58 53t71 48q24 15 45.5 30t37.5 34q16 18 25.5 40t9.5 51
q0 26 -9.5 49t-26.5 41q-17 17 -40 27t-50 10q-22 0 -44 -8.5t-39 -23.5q-18 -15 -29 -36.5t-11 -47.5h-46q0 34 14 63.5t38 51.5q23 22 53.5 34.5t63.5 12.5zM304 685v-547h-47v509h-80v38h127zM440 878q93 0 173 -38t139 -101q59 -64 93 -148t34 -175q0 -93 -34 -177
t-93 -147q-60 -63 -140 -100.5t-172 -37.5t-172.5 37.5t-139.5 100.5q-60 63 -94 147t-34 177q0 91 33.5 175t93.5 148q59 63 139.5 101t173.5 38zM440 827q-83 0 -154 -33.5t-123 -89.5q-52 -57 -81.5 -131.5t-29.5 -156.5t29 -156.5t81 -130.5q52 -57 123 -90.5t155 -33.5
q82 0 153 33t123 90q52 56 81.5 130.5t29.5 157.5q0 81 -29.5 155.5t-81.5 131.5q-52 56 -123 90t-153 34z" />
    <glyph glyph-name="uni246C" unicode="&#x246c;" horiz-adv-x="904" 
d="M704 554q0 -15 -5.5 -32.5t-15.5 -34.5q-11 -17 -26 -31t-34 -21q44 -17 72.5 -54.5t28.5 -85.5q0 -34 -14.5 -64t-38.5 -52q-25 -23 -58.5 -36.5t-70.5 -13.5t-70.5 10.5t-58.5 30.5t-39.5 49.5t-14.5 67.5h48q0 -28 12 -49t31 -35q19 -15 43 -22t49 -7q27 0 51 9.5
t43 26.5q18 16 29 38t11 47q0 22 -11 42.5t-29 36.5t-42 25.5t-50 9.5h-38v45h38q22 1 42 9t35 22q15 13 24 31t9 38t-9 37.5t-24 30.5q-16 13 -36.5 20.5t-43.5 7.5q-20 0 -40 -7t-36 -18q-16 -12 -26 -26.5t-10 -30.5h-51q0 27 14.5 50.5t37.5 41.5q23 17 52 27.5t59 10.5
q34 0 64 -11.5t52 -30.5q22 -20 34.5 -46.5t12.5 -55.5zM304 685v-547h-47v509h-80v38h127zM440 878q93 0 173 -38t139 -101q59 -64 93 -148t34 -175q0 -93 -34 -177t-93 -147q-60 -63 -140 -100.5t-172 -37.5t-172.5 37.5t-139.5 100.5q-60 63 -94 147t-34 177
q0 91 33.5 175t93.5 148q59 63 139.5 101t173.5 38zM440 827q-83 0 -154 -33.5t-123 -89.5q-52 -57 -81.5 -131.5t-29.5 -156.5t29 -156.5t81 -130.5q52 -57 123 -90.5t155 -33.5q82 0 153 33t123 90q52 56 81.5 130.5t29.5 157.5q0 81 -29.5 155.5t-81.5 131.5
q-52 56 -123 90t-153 34z" />
    <glyph glyph-name="uni246D" unicode="&#x246d;" horiz-adv-x="904" 
d="M338 302q67 96 133 191.5t133 191.5h42v-380h65v-45h-65v-130h-45v130h-263v42zM601 305v295q-53 -75 -104 -147.5t-104 -147.5h208zM304 685v-547h-47v509h-80v38h127zM440 878q93 0 173 -38t139 -101q59 -64 93 -148t34 -175q0 -93 -34 -177t-93 -147
q-60 -63 -140 -100.5t-172 -37.5t-172.5 37.5t-139.5 100.5q-60 63 -94 147t-34 177q0 91 33.5 175t93.5 148q59 63 139.5 101t173.5 38zM440 827q-83 0 -154 -33.5t-123 -89.5q-52 -57 -81.5 -131.5t-29.5 -156.5t29 -156.5t81 -130.5q52 -57 123 -90.5t155 -33.5
q82 0 153 33t123 90q52 56 81.5 130.5t29.5 157.5q0 81 -29.5 155.5t-81.5 131.5q-52 56 -123 90t-153 34z" />
    <glyph glyph-name="uni246E" unicode="&#x246e;" horiz-adv-x="904" 
d="M672 681v-44h-237q-5 -50 -10.5 -95t-12.5 -95q22 20 53 30.5t57 10.5q37 0 69.5 -14.5t56.5 -39.5t37.5 -58.5t13.5 -70.5t-14 -71t-38 -59q-24 -26 -57 -41t-70 -15q-32 0 -60.5 11.5t-51.5 31.5q-23 19 -39.5 46t-23.5 59h48q11 -46 45 -75t82 -29q27 0 51.5 11.5
t43.5 31.5q18 19 28.5 45t10.5 54t-10.5 53t-28.5 44t-42.5 30t-52.5 11q-29 0 -55 -12.5t-46 -35.5h-58q8 72 16.5 143t16.5 143h278zM304 685v-547h-47v509h-80v38h127zM440 878q93 0 173 -38t139 -101q59 -64 93 -148t34 -175q0 -93 -34 -177t-93 -147
q-60 -63 -140 -100.5t-172 -37.5t-172.5 37.5t-139.5 100.5q-60 63 -94 147t-34 177q0 91 33.5 175t93.5 148q59 63 139.5 101t173.5 38zM440 827q-83 0 -154 -33.5t-123 -89.5q-52 -57 -81.5 -131.5t-29.5 -156.5t29 -156.5t81 -130.5q52 -57 123 -90.5t155 -33.5
q82 0 153 33t123 90q52 56 81.5 130.5t29.5 157.5q0 81 -29.5 155.5t-81.5 131.5q-52 56 -123 90t-153 34z" />
    <glyph glyph-name="uni24D0" unicode="&#x24d0;" horiz-adv-x="904" 
d="M428 158q-47 0 -89.5 18.5t-75.5 50.5q-33 31 -52.5 74t-19.5 92q0 47 18.5 89.5t51.5 75.5q32 32 75 51.5t92 19.5q25 0 52 -7t53 -19q25 -13 47 -32t37 -43v94h49v-455h-49v91q-17 -28 -40 -47t-48 -31q-26 -12 -52 -17t-49 -5zM428 584q-39 0 -73.5 -15t-59.5 -40
q-26 -26 -41 -61t-15 -75t15 -74.5t41 -59.5q25 -26 59.5 -40.5t73.5 -14.5t74 14.5t61 40.5q25 25 40 59.5t15 74.5q0 42 -15.5 77t-41.5 61q-26 25 -60.5 39t-72.5 14zM440 878q93 0 173 -38t139 -101q59 -64 93 -148t34 -175q0 -93 -34 -177t-93 -147
q-60 -63 -140 -100.5t-172 -37.5t-172.5 37.5t-139.5 100.5q-60 63 -94 147t-34 177q0 91 33.5 175t93.5 148q59 63 139.5 101t173.5 38zM440 827q-83 0 -154 -33.5t-123 -89.5q-52 -57 -81.5 -131.5t-29.5 -156.5t29 -156.5t81 -130.5q52 -57 123 -90.5t155 -33.5
q82 0 153 33t123 90q52 56 81.5 130.5t29.5 157.5q0 81 -29.5 155.5t-81.5 131.5q-52 56 -123 90t-153 34z" />
    <glyph glyph-name="uni24D1" unicode="&#x24d1;" horiz-adv-x="904" 
d="M481 76q-23 0 -48.5 5t-50.5 16q-26 12 -49 30.5t-40 46.5v-90h-48v653h48v-296q15 24 37 42.5t48 31.5q25 13 52 19.5t51 6.5q48 0 91 -18t75 -49q32 -32 50.5 -74.5t18.5 -91.5t-19.5 -91.5t-51.5 -73.5q-33 -31 -75.5 -49t-88.5 -18zM481 496q-38 0 -72 -14t-60 -39
t-41.5 -59.5t-15.5 -75.5q0 -40 15 -74.5t41 -59.5q25 -26 59.5 -40.5t73.5 -14.5t73 14.5t60 40.5q25 25 39.5 59.5t14.5 74.5q0 39 -14.5 73.5t-39.5 60.5q-26 25 -60 39.5t-73 14.5zM440 878q93 0 173 -38t139 -101q59 -64 93 -148t34 -175q0 -93 -34 -177t-93 -147
q-60 -63 -140 -100.5t-172 -37.5t-172.5 37.5t-139.5 100.5q-60 63 -94 147t-34 177q0 91 33.5 175t93.5 148q59 63 139.5 101t173.5 38zM440 827q-83 0 -154 -33.5t-123 -89.5q-52 -57 -81.5 -131.5t-29.5 -156.5t29 -156.5t81 -130.5q52 -57 123 -90.5t155 -33.5
q82 0 153 33t123 90q52 56 81.5 130.5t29.5 157.5q0 81 -29.5 155.5t-81.5 131.5q-52 56 -123 90t-153 34z" />
    <glyph glyph-name="uni24D2" unicode="&#x24d2;" horiz-adv-x="904" 
d="M586 267q9 -8 17 -16.5t17 -16.5q-32 -31 -75.5 -48.5t-88.5 -17.5q-47 0 -90 17.5t-75 48.5q-33 31 -52 74.5t-19 94.5q0 49 18 92.5t50 75.5t75 50.5t93 18.5q45 0 85.5 -16.5t73.5 -46.5q-8 -8 -16.5 -16t-17.5 -16q-49 49 -125 49q-39 0 -73.5 -15t-59.5 -40
q-26 -26 -40.5 -61t-14.5 -75q0 -39 14.5 -74t40.5 -60q25 -26 59.5 -41t73.5 -15q38 0 72 15t58 39zM440 878q93 0 173 -38t139 -101q59 -64 93 -148t34 -175q0 -93 -34 -177t-93 -147q-60 -63 -140 -100.5t-172 -37.5t-172.5 37.5t-139.5 100.5q-60 63 -94 147t-34 177
q0 91 33.5 175t93.5 148q59 63 139.5 101t173.5 38zM440 827q-83 0 -154 -33.5t-123 -89.5q-52 -57 -81.5 -131.5t-29.5 -156.5t29 -156.5t81 -130.5q52 -57 123 -90.5t155 -33.5q82 0 153 33t123 90q52 56 81.5 130.5t29.5 157.5q0 81 -29.5 155.5t-81.5 131.5
q-52 56 -123 90t-153 34z" />
    <glyph glyph-name="uni24D3" unicode="&#x24d3;" horiz-adv-x="904" 
d="M416 103q-46 0 -88 17.5t-74 48.5q-33 31 -52.5 73.5t-19.5 91.5t18.5 92t50.5 75q31 31 74 49t91 18q25 0 52 -7t53 -19q25 -13 47 -31.5t36 -42.5v269h48v-626h-48v90q-17 -28 -40 -47t-48 -30q-26 -11 -51.5 -16t-48.5 -5zM416 523q-39 0 -73 -14.5t-59 -39.5
q-26 -26 -40.5 -60.5t-14.5 -74.5q0 -39 14.5 -73.5t40.5 -59.5q25 -26 59 -40.5t73 -14.5t73.5 14.5t60.5 40.5q25 25 40 59.5t15 73.5q0 41 -15.5 76t-41.5 60t-60 39t-72 14zM440 878q93 0 173 -38t139 -101q59 -64 93 -148t34 -175q0 -93 -34 -177t-93 -147
q-60 -63 -140 -100.5t-172 -37.5t-172.5 37.5t-139.5 100.5q-60 63 -94 147t-34 177q0 91 33.5 175t93.5 148q59 63 139.5 101t173.5 38zM440 827q-83 0 -154 -33.5t-123 -89.5q-52 -57 -81.5 -131.5t-29.5 -156.5t29 -156.5t81 -130.5q52 -57 123 -90.5t155 -33.5
q82 0 153 33t123 90q52 56 81.5 130.5t29.5 157.5q0 81 -29.5 155.5t-81.5 131.5q-52 56 -123 90t-153 34z" />
    <glyph glyph-name="uni24D4" unicode="&#x24d4;" horiz-adv-x="904" 
d="M437 639q51 0 92 -17.5t71 -49.5q29 -33 44.5 -80t15.5 -107h-388q0 -37 15 -68.5t40 -54.5t58 -36t69 -13q43 0 81 17.5t67 49.5q8 -8 15.5 -15t15.5 -15q-34 -38 -79.5 -60t-99.5 -22q-47 0 -89.5 17t-74.5 49q-33 31 -52.5 74.5t-19.5 97.5q0 53 18 96t48 74
q30 30 69.5 46.5t83.5 16.5zM607 429q0 37 -15 67t-39 52q-24 21 -54.5 32.5t-61.5 11.5t-60.5 -12.5t-52.5 -34.5q-24 -22 -38 -52t-14 -64h335zM440 878q93 0 173 -38t139 -101q59 -64 93 -148t34 -175q0 -93 -34 -177t-93 -147q-60 -63 -140 -100.5t-172 -37.5
t-172.5 37.5t-139.5 100.5q-60 63 -94 147t-34 177q0 91 33.5 175t93.5 148q59 63 139.5 101t173.5 38zM440 827q-83 0 -154 -33.5t-123 -89.5q-52 -57 -81.5 -131.5t-29.5 -156.5t29 -156.5t81 -130.5q52 -57 123 -90.5t155 -33.5q82 0 153 33t123 90q52 56 81.5 130.5
t29.5 157.5q0 81 -29.5 155.5t-81.5 131.5q-52 56 -123 90t-153 34z" />
    <glyph glyph-name="uni24D5" unicode="&#x24d5;" horiz-adv-x="904" 
d="M397 489h133v-45h-133v-352h-48v352h-74v45h74v84q0 37 12.5 69t35.5 56q22 23 53 36.5t68 13.5q32 0 55.5 -11t46.5 -28q-9 -7 -17 -14.5t-16 -14.5q-17 11 -32.5 17.5t-35.5 6.5q-27 0 -49.5 -10t-38.5 -27q-16 -18 -25 -42t-9 -52v-84zM440 878q93 0 173 -38t139 -101
q59 -64 93 -148t34 -175q0 -93 -34 -177t-93 -147q-60 -63 -140 -100.5t-172 -37.5t-172.5 37.5t-139.5 100.5q-60 63 -94 147t-34 177q0 91 33.5 175t93.5 148q59 63 139.5 101t173.5 38zM440 827q-83 0 -154 -33.5t-123 -89.5q-52 -57 -81.5 -131.5t-29.5 -156.5
t29 -156.5t81 -130.5q52 -57 123 -90.5t155 -33.5q82 0 153 33t123 90q52 56 81.5 130.5t29.5 157.5q0 81 -29.5 155.5t-81.5 131.5q-52 56 -123 90t-153 34z" />
    <glyph glyph-name="uni24D6" unicode="&#x24d6;" horiz-adv-x="904" 
d="M436 238q-46 0 -88 18t-74 50q-33 31 -52.5 73.5t-19.5 91.5q0 46 18.5 88.5t50.5 75.5q31 32 74 51t91 19q25 0 52 -7t53 -19q25 -13 47 -31.5t36 -42.5v93h48v-410q-1 -49 -19.5 -90.5t-50.5 -71.5q-33 -31 -77 -48t-96 -17q-57 0 -105.5 19t-84.5 57q15 16 31 31
q28 -30 69.5 -46.5t89.5 -16.5q40 0 75 12t61 36q26 23 41.5 57t17.5 78v50q-17 -28 -40 -47t-48 -31q-26 -12 -51.5 -17t-48.5 -5zM436 661q-39 0 -73 -15t-59 -40q-26 -26 -40.5 -60.5t-14.5 -74.5t14.5 -74t40.5 -59q25 -26 59 -40.5t73 -14.5t73.5 14.5t60.5 40.5
q25 25 40 59t15 74q0 41 -15.5 76t-41.5 61q-26 25 -60 39t-72 14zM440 878q93 0 173 -38t139 -101q59 -64 93 -148t34 -175q0 -93 -34 -177t-93 -147q-60 -63 -140 -100.5t-172 -37.5t-172.5 37.5t-139.5 100.5q-60 63 -94 147t-34 177q0 91 33.5 175t93.5 148
q59 63 139.5 101t173.5 38zM440 827q-83 0 -154 -33.5t-123 -89.5q-52 -57 -81.5 -131.5t-29.5 -156.5t29 -156.5t81 -130.5q52 -57 123 -90.5t155 -33.5q82 0 153 33t123 90q52 56 81.5 130.5t29.5 157.5q0 81 -29.5 155.5t-81.5 131.5q-52 56 -123 90t-153 34z" />
    <glyph glyph-name="uni24D7" unicode="&#x24d7;" horiz-adv-x="904" 
d="M658 105h-47v214q0 71 -38 111.5t-107 40.5q-32 0 -58 -13.5t-45 -34.5q-20 -22 -30.5 -49.5t-10.5 -54.5v-214h-48v647h48v-318q13 22 31.5 37.5t38.5 25.5t39.5 14.5t35.5 4.5q44 0 79.5 -13.5t60.5 -37.5q24 -25 37.5 -59.5t13.5 -77.5v-223zM440 878q93 0 173 -38
t139 -101q59 -64 93 -148t34 -175q0 -93 -34 -177t-93 -147q-60 -63 -140 -100.5t-172 -37.5t-172.5 37.5t-139.5 100.5q-60 63 -94 147t-34 177q0 91 33.5 175t93.5 148q59 63 139.5 101t173.5 38zM440 827q-83 0 -154 -33.5t-123 -89.5q-52 -57 -81.5 -131.5t-29.5 -156.5
t29 -156.5t81 -130.5q52 -57 123 -90.5t155 -33.5q82 0 153 33t123 90q52 56 81.5 130.5t29.5 157.5q0 81 -29.5 155.5t-81.5 131.5q-52 56 -123 90t-153 34z" />
    <glyph glyph-name="uni24D8" unicode="&#x24d8;" horiz-adv-x="904" 
d="M413 578h49v-462h-49v462zM437 680q-15 0 -25.5 11t-10.5 26q0 14 10.5 24.5t25.5 10.5q16 0 26 -10.5t10 -24.5q0 -15 -10 -26t-26 -11zM440 878q93 0 173 -38t139 -101q59 -64 93 -148t34 -175q0 -93 -34 -177t-93 -147q-60 -63 -140 -100.5t-172 -37.5t-172.5 37.5
t-139.5 100.5q-60 63 -94 147t-34 177q0 91 33.5 175t93.5 148q59 63 139.5 101t173.5 38zM440 827q-83 0 -154 -33.5t-123 -89.5q-52 -57 -81.5 -131.5t-29.5 -156.5t29 -156.5t81 -130.5q52 -57 123 -90.5t155 -33.5q82 0 153 33t123 90q52 56 81.5 130.5t29.5 157.5
q0 81 -29.5 155.5t-81.5 131.5q-52 56 -123 90t-153 34z" />
    <glyph glyph-name="uni24D9" unicode="&#x24d9;" horiz-adv-x="904" 
d="M510 743q15 0 25.5 -10t10.5 -24t-10.5 -25.5t-25.5 -11.5q-14 0 -25 11.5t-11 25.5t11 24t25 10zM534 296q0 -104 -38 -154.5t-121 -50.5q-29 0 -61 13t-52 33q8 8 16 16.5t16 17.5q13 -14 37 -25t43 -11q64 0 88 41t24 120v273h48v-273zM440 878q93 0 173 -38t139 -101
q59 -64 93 -148t34 -175q0 -93 -34 -177t-93 -147q-60 -63 -140 -100.5t-172 -37.5t-172.5 37.5t-139.5 100.5q-60 63 -94 147t-34 177q0 91 33.5 175t93.5 148q59 63 139.5 101t173.5 38zM440 827q-83 0 -154 -33.5t-123 -89.5q-52 -57 -81.5 -131.5t-29.5 -156.5
t29 -156.5t81 -130.5q52 -57 123 -90.5t155 -33.5q82 0 153 33t123 90q52 56 81.5 130.5t29.5 157.5q0 81 -29.5 155.5t-81.5 131.5q-52 56 -123 90t-153 34z" />
    <glyph glyph-name="uni24DA" unicode="&#x24da;" horiz-adv-x="904" 
d="M317 346q62 55 123 109t124 109h63q-52 -47 -104.5 -93t-104.5 -93q63 -69 124 -137t123 -136h-58q-56 60 -111 120t-111 121q-16 -15 -34 -31t-35 -30q0 -46 0.5 -90.5t0.5 -89.5h-48v632h48v-391zM440 878q93 0 173 -38t139 -101q59 -64 93 -148t34 -175
q0 -93 -34 -177t-93 -147q-60 -63 -140 -100.5t-172 -37.5t-172.5 37.5t-139.5 100.5q-60 63 -94 147t-34 177q0 91 33.5 175t93.5 148q59 63 139.5 101t173.5 38zM440 827q-83 0 -154 -33.5t-123 -89.5q-52 -57 -81.5 -131.5t-29.5 -156.5t29 -156.5t81 -130.5
q52 -57 123 -90.5t155 -33.5q82 0 153 33t123 90q52 56 81.5 130.5t29.5 157.5q0 81 -29.5 155.5t-81.5 131.5q-52 56 -123 90t-153 34z" />
    <glyph glyph-name="uni24DB" unicode="&#x24db;" horiz-adv-x="904" 
d="M507 68q-2 -10 -4 -15q-27 0 -46 4.5t-31 15.5q-12 12 -17.5 32t-5.5 50v603h49v-517q0 -49 3 -77.5t10 -42.5q7 -15 17.5 -19t24.5 -4v-30zM440 878q93 0 173 -38t139 -101q59 -64 93 -148t34 -175q0 -93 -34 -177t-93 -147q-60 -63 -140 -100.5t-172 -37.5t-172.5 37.5
t-139.5 100.5q-60 63 -94 147t-34 177q0 91 33.5 175t93.5 148q59 63 139.5 101t173.5 38zM440 827q-83 0 -154 -33.5t-123 -89.5q-52 -57 -81.5 -131.5t-29.5 -156.5t29 -156.5t81 -130.5q52 -57 123 -90.5t155 -33.5q82 0 153 33t123 90q52 56 81.5 130.5t29.5 157.5
q0 81 -29.5 155.5t-81.5 131.5q-52 56 -123 90t-153 34z" />
    <glyph glyph-name="uni24DC" unicode="&#x24dc;" horiz-adv-x="904" 
d="M738 198h-45v244q0 68 -26.5 105t-87.5 37q-28 0 -49.5 -11t-35.5 -30q-15 -20 -22.5 -45.5t-7.5 -55.5v-244h-45v244q0 29 -7 54.5t-21 44.5q-15 19 -36 30t-48 11q-54 0 -86 -37.5t-32 -95.5v-251h-45v421h45v-58q7 16 20 28.5t29 21.5q16 8 33 12.5t33 4.5
q45 0 84 -24.5t53 -70.5q15 46 53.5 70.5t84.5 24.5q84 0 121.5 -50.5t37.5 -135.5v-244zM440 878q93 0 173 -38t139 -101q59 -64 93 -148t34 -175q0 -93 -34 -177t-93 -147q-60 -63 -140 -100.5t-172 -37.5t-172.5 37.5t-139.5 100.5q-60 63 -94 147t-34 177q0 91 33.5 175
t93.5 148q59 63 139.5 101t173.5 38zM440 827q-83 0 -154 -33.5t-123 -89.5q-52 -57 -81.5 -131.5t-29.5 -156.5t29 -156.5t81 -130.5q52 -57 123 -90.5t155 -33.5q82 0 153 33t123 90q52 56 81.5 130.5t29.5 157.5q0 81 -29.5 155.5t-81.5 131.5q-52 56 -123 90t-153 34z
" />
    <glyph glyph-name="uni24DD" unicode="&#x24dd;" horiz-adv-x="904" 
d="M652 188h-49v280q0 33 -11 58.5t-30 43.5q-20 17 -46.5 26t-57.5 9q-30 0 -56.5 -10t-45.5 -28q-20 -18 -31.5 -43.5t-11.5 -55.5v-280h-49v454h49v-71q10 21 28.5 35.5t39.5 24.5q20 10 41 14.5t36 4.5q40 0 75.5 -11.5t61.5 -34.5t41.5 -57t15.5 -79v-280zM440 878
q93 0 173 -38t139 -101q59 -64 93 -148t34 -175q0 -93 -34 -177t-93 -147q-60 -63 -140 -100.5t-172 -37.5t-172.5 37.5t-139.5 100.5q-60 63 -94 147t-34 177q0 91 33.5 175t93.5 148q59 63 139.5 101t173.5 38zM440 827q-83 0 -154 -33.5t-123 -89.5q-52 -57 -81.5 -131.5
t-29.5 -156.5t29 -156.5t81 -130.5q52 -57 123 -90.5t155 -33.5q82 0 153 33t123 90q52 56 81.5 130.5t29.5 157.5q0 81 -29.5 155.5t-81.5 131.5q-52 56 -123 90t-153 34z" />
    <glyph glyph-name="uni24DE" unicode="&#x24de;" horiz-adv-x="904" 
d="M210 413q0 48 18.5 91t50.5 76q32 32 75 50.5t92 18.5t92.5 -18.5t75.5 -50.5t51 -75t19 -92q0 -48 -18.5 -90.5t-50.5 -74.5q-33 -33 -76.5 -51.5t-92.5 -18.5q-48 0 -91 18.5t-75 50.5q-33 32 -51.5 75t-18.5 91zM258 413q0 -40 14.5 -75t40.5 -60q25 -26 59.5 -40.5
t73.5 -14.5t74 14.5t61 40.5q25 25 40 60t15 75t-15 75t-40 61q-26 25 -61 40t-74 15t-73.5 -15t-59.5 -40q-26 -26 -40.5 -61t-14.5 -75zM440 878q93 0 173 -38t139 -101q59 -64 93 -148t34 -175q0 -93 -34 -177t-93 -147q-60 -63 -140 -100.5t-172 -37.5t-172.5 37.5
t-139.5 100.5q-60 63 -94 147t-34 177q0 91 33.5 175t93.5 148q59 63 139.5 101t173.5 38zM440 827q-83 0 -154 -33.5t-123 -89.5q-52 -57 -81.5 -131.5t-29.5 -156.5t29 -156.5t81 -130.5q52 -57 123 -90.5t155 -33.5q82 0 153 33t123 90q52 56 81.5 130.5t29.5 157.5
q0 81 -29.5 155.5t-81.5 131.5q-52 56 -123 90t-153 34z" />
    <glyph glyph-name="uni24DF" unicode="&#x24df;" horiz-adv-x="904" 
d="M479 688q47 0 89.5 -18t75.5 -49q32 -32 51 -74.5t19 -90.5q0 -50 -18.5 -92.5t-50.5 -73.5q-33 -32 -75.5 -50t-90.5 -18q-25 0 -52 7t-52 20q-26 12 -47.5 30.5t-36.5 42.5v-233h-47v591h47v-91q17 28 40.5 47t49.5 31q25 11 50.5 16t47.5 5zM479 267q39 0 73 14.5
t60 40.5q25 25 40 59.5t15 74.5q0 39 -15 73.5t-40 60.5q-26 25 -60 39.5t-73 14.5t-73.5 -14.5t-59.5 -39.5q-26 -26 -40.5 -60.5t-14.5 -73.5q0 -41 15 -76t41 -60t60 -39t72 -14zM440 878q93 0 173 -38t139 -101q59 -64 93 -148t34 -175q0 -93 -34 -177t-93 -147
q-60 -63 -140 -100.5t-172 -37.5t-172.5 37.5t-139.5 100.5q-60 63 -94 147t-34 177q0 91 33.5 175t93.5 148q59 63 139.5 101t173.5 38zM440 827q-83 0 -154 -33.5t-123 -89.5q-52 -57 -81.5 -131.5t-29.5 -156.5t29 -156.5t81 -130.5q52 -57 123 -90.5t155 -33.5
q82 0 153 33t123 90q52 56 81.5 130.5t29.5 157.5q0 81 -29.5 155.5t-81.5 131.5q-52 56 -123 90t-153 34z" />
    <glyph glyph-name="uni24E0" unicode="&#x24e0;" horiz-adv-x="904" 
d="M416 686q22 0 48 -5t52 -16q25 -12 48 -30.5t40 -46.5v91h48v-592h-48v234q-14 -24 -36 -43t-47 -31q-26 -13 -53 -20t-52 -7q-48 0 -90.5 18t-74.5 50q-32 31 -50.5 73.5t-18.5 92.5q0 48 19 90.5t52 74.5q32 31 74 49t89 18zM416 265q38 0 72.5 14t60.5 39t41 60t15 76
q0 40 -15 74t-40 60q-26 25 -60.5 39.5t-73.5 14.5t-73 -14.5t-59 -39.5q-26 -26 -40.5 -60.5t-14.5 -73.5q0 -40 14.5 -74.5t40.5 -59.5q25 -26 59 -40.5t73 -14.5zM440 878q93 0 173 -38t139 -101q59 -64 93 -148t34 -175q0 -93 -34 -177t-93 -147q-60 -63 -140 -100.5
t-172 -37.5t-172.5 37.5t-139.5 100.5q-60 63 -94 147t-34 177q0 91 33.5 175t93.5 148q59 63 139.5 101t173.5 38zM440 827q-83 0 -154 -33.5t-123 -89.5q-52 -57 -81.5 -131.5t-29.5 -156.5t29 -156.5t81 -130.5q52 -57 123 -90.5t155 -33.5q82 0 153 33t123 90
q52 56 81.5 130.5t29.5 157.5q0 81 -29.5 155.5t-81.5 131.5q-52 56 -123 90t-153 34z" />
    <glyph glyph-name="uni24E1" unicode="&#x24e1;" horiz-adv-x="904" 
d="M575 563q-27 0 -53.5 -12t-47.5 -35q-22 -24 -35.5 -59.5t-13.5 -82.5v-228h-49v461h49v-97q22 46 63.5 72.5t86.5 26.5v-46zM440 878q93 0 173 -38t139 -101q59 -64 93 -148t34 -175q0 -93 -34 -177t-93 -147q-60 -63 -140 -100.5t-172 -37.5t-172.5 37.5t-139.5 100.5
q-60 63 -94 147t-34 177q0 91 33.5 175t93.5 148q59 63 139.5 101t173.5 38zM440 827q-83 0 -154 -33.5t-123 -89.5q-52 -57 -81.5 -131.5t-29.5 -156.5t29 -156.5t81 -130.5q52 -57 123 -90.5t155 -33.5q82 0 153 33t123 90q52 56 81.5 130.5t29.5 157.5q0 81 -29.5 155.5
t-81.5 131.5q-52 56 -123 90t-153 34z" />
    <glyph glyph-name="uni24E2" unicode="&#x24e2;" horiz-adv-x="904" 
d="M440 629q42 0 82 -16.5t68 -48.5q-8 -8 -16 -14.5t-16 -13.5q-20 22 -52.5 35t-66.5 13q-13 0 -30.5 -4t-33.5 -12q-17 -9 -28.5 -22.5t-11.5 -32.5q0 -30 20.5 -46t51.5 -26t66.5 -18.5t66.5 -23.5t51.5 -40t20.5 -69q0 -30 -16 -54t-41 -40q-26 -17 -58 -25.5t-65 -8.5
q-23 0 -47 4t-47 13t-43 23t-34 33q7 7 13 12.5t22 19.5q10 -16 25.5 -27.5t33.5 -18.5q18 -8 37.5 -12t38.5 -4q18 0 40 5.5t42 16.5q19 10 32 26.5t13 38.5q0 32 -20.5 50.5t-50.5 29.5q-31 11 -66.5 19.5t-65.5 22.5q-31 13 -51.5 35.5t-20.5 61.5q0 28 14 50t37 37
q22 15 50 23t56 8zM440 878q93 0 173 -38t139 -101q59 -64 93 -148t34 -175q0 -93 -34 -177t-93 -147q-60 -63 -140 -100.5t-172 -37.5t-172.5 37.5t-139.5 100.5q-60 63 -94 147t-34 177q0 91 33.5 175t93.5 148q59 63 139.5 101t173.5 38zM440 827q-83 0 -154 -33.5
t-123 -89.5q-52 -57 -81.5 -131.5t-29.5 -156.5t29 -156.5t81 -130.5q52 -57 123 -90.5t155 -33.5q82 0 153 33t123 90q52 56 81.5 130.5t29.5 157.5q0 81 -29.5 155.5t-81.5 131.5q-52 56 -123 90t-153 34z" />
    <glyph glyph-name="uni24E3" unicode="&#x24e3;" horiz-adv-x="904" 
d="M404 251q0 -30 7.5 -49t19.5 -30t28 -15.5t34 -4.5q21 0 40 11t29 22q7 -8 14 -15.5t15 -15.5q-14 -17 -42.5 -31.5t-58.5 -14.5q-66 0 -99 31t-35 103v286h-73v45h73v193h48v-193h143v-45h-143v-277zM440 878q93 0 173 -38t139 -101q59 -64 93 -148t34 -175
q0 -93 -34 -177t-93 -147q-60 -63 -140 -100.5t-172 -37.5t-172.5 37.5t-139.5 100.5q-60 63 -94 147t-34 177q0 91 33.5 175t93.5 148q59 63 139.5 101t173.5 38zM440 827q-83 0 -154 -33.5t-123 -89.5q-52 -57 -81.5 -131.5t-29.5 -156.5t29 -156.5t81 -130.5
q52 -57 123 -90.5t155 -33.5q82 0 153 33t123 90q52 56 81.5 130.5t29.5 157.5q0 81 -29.5 155.5t-81.5 131.5q-52 56 -123 90t-153 34z" />
    <glyph glyph-name="uni24E4" unicode="&#x24e4;" horiz-adv-x="904" 
d="M244 619h49v-289q0 -33 11 -58.5t31 -42.5q19 -18 45.5 -27t57.5 -9q30 0 56 10t46 29q20 18 31.5 43t11.5 55v289h49v-462h-49v70q-11 -21 -29 -35.5t-39 -24.5t-41.5 -14.5t-36.5 -4.5q-40 0 -75 11.5t-61 34.5q-27 23 -42 57t-15 79v289zM440 878q93 0 173 -38
t139 -101q59 -64 93 -148t34 -175q0 -93 -34 -177t-93 -147q-60 -63 -140 -100.5t-172 -37.5t-172.5 37.5t-139.5 100.5q-60 63 -94 147t-34 177q0 91 33.5 175t93.5 148q59 63 139.5 101t173.5 38zM440 827q-83 0 -154 -33.5t-123 -89.5q-52 -57 -81.5 -131.5t-29.5 -156.5
t29 -156.5t81 -130.5q52 -57 123 -90.5t155 -33.5q82 0 153 33t123 90q52 56 81.5 130.5t29.5 157.5q0 81 -29.5 155.5t-81.5 131.5q-52 56 -123 90t-153 34z" />
    <glyph glyph-name="uni24E5" unicode="&#x24e5;" horiz-adv-x="904" 
d="M644 600q-51 -118 -102.5 -235.5t-102.5 -235.5q-52 118 -103 235.5t-103 235.5h52q38 -90 77 -178.5t77 -178.5l153 357h52zM440 878q93 0 173 -38t139 -101q59 -64 93 -148t34 -175q0 -93 -34 -177t-93 -147q-60 -63 -140 -100.5t-172 -37.5t-172.5 37.5t-139.5 100.5
q-60 63 -94 147t-34 177q0 91 33.5 175t93.5 148q59 63 139.5 101t173.5 38zM440 827q-83 0 -154 -33.5t-123 -89.5q-52 -57 -81.5 -131.5t-29.5 -156.5t29 -156.5t81 -130.5q52 -57 123 -90.5t155 -33.5q82 0 153 33t123 90q52 56 81.5 130.5t29.5 157.5q0 81 -29.5 155.5
t-81.5 131.5q-52 56 -123 90t-153 34z" />
    <glyph glyph-name="uni24E6" unicode="&#x24e6;" horiz-adv-x="904" 
d="M672 609q-19 -119 -36.5 -236t-36.5 -236l-159 303q-41 -76 -80 -151.5t-80 -151.5q-18 119 -36 236t-37 236h48q13 -85 25 -170l24 -170q34 66 68.5 132t67.5 132l135 -264l24 170t25 170h48zM440 878q93 0 173 -38t139 -101q59 -64 93 -148t34 -175q0 -93 -34 -177
t-93 -147q-60 -63 -140 -100.5t-172 -37.5t-172.5 37.5t-139.5 100.5q-60 63 -94 147t-34 177q0 91 33.5 175t93.5 148q59 63 139.5 101t173.5 38zM440 827q-83 0 -154 -33.5t-123 -89.5q-52 -57 -81.5 -131.5t-29.5 -156.5t29 -156.5t81 -130.5q52 -57 123 -90.5t155 -33.5
q82 0 153 33t123 90q52 56 81.5 130.5t29.5 157.5q0 81 -29.5 155.5t-81.5 131.5q-52 56 -123 90t-153 34z" />
    <glyph glyph-name="uni24E7" unicode="&#x24e7;" horiz-adv-x="904" 
d="M613 635q-36 -53 -72 -105t-73 -105q42 -63 84 -125.5t84 -125.5h-53q-35 53 -71.5 105.5t-72.5 105.5q-36 -53 -72 -105.5t-72 -105.5h-54q42 63 84 125t85 125q-37 54 -72.5 106t-72.5 105h55q30 -42 60 -83.5t59 -83.5q30 42 59.5 83.5t59.5 83.5h55zM440 878
q93 0 173 -38t139 -101q59 -64 93 -148t34 -175q0 -93 -34 -177t-93 -147q-60 -63 -140 -100.5t-172 -37.5t-172.5 37.5t-139.5 100.5q-60 63 -94 147t-34 177q0 91 33.5 175t93.5 148q59 63 139.5 101t173.5 38zM440 827q-83 0 -154 -33.5t-123 -89.5q-52 -57 -81.5 -131.5
t-29.5 -156.5t29 -156.5t81 -130.5q52 -57 123 -90.5t155 -33.5q82 0 153 33t123 90q52 56 81.5 130.5t29.5 157.5q0 81 -29.5 155.5t-81.5 131.5q-52 56 -123 90t-153 34z" />
    <glyph glyph-name="uni24E8" unicode="&#x24e8;" horiz-adv-x="904" 
d="M647 694q-63 -162 -124.5 -322.5t-124.5 -321.5h-50q18 48 36 94t36 94l-189 456h52q40 -99 80 -197.5t81 -198.5q38 100 76.5 198.5t76.5 197.5h50zM440 878q93 0 173 -38t139 -101q59 -64 93 -148t34 -175q0 -93 -34 -177t-93 -147q-60 -63 -140 -100.5t-172 -37.5
t-172.5 37.5t-139.5 100.5q-60 63 -94 147t-34 177q0 91 33.5 175t93.5 148q59 63 139.5 101t173.5 38zM440 827q-83 0 -154 -33.5t-123 -89.5q-52 -57 -81.5 -131.5t-29.5 -156.5t29 -156.5t81 -130.5q52 -57 123 -90.5t155 -33.5q82 0 153 33t123 90q52 56 81.5 130.5
t29.5 157.5q0 81 -29.5 155.5t-81.5 131.5q-52 56 -123 90t-153 34z" />
    <glyph glyph-name="uni24E9" unicode="&#x24e9;" horiz-adv-x="904" 
d="M634 660q-76 -114 -151.5 -227.5t-151.5 -228.5h326v-49h-420q77 115 152.5 228.5t152.5 228.5h-293v48h385zM440 878q93 0 173 -38t139 -101q59 -64 93 -148t34 -175q0 -93 -34 -177t-93 -147q-60 -63 -140 -100.5t-172 -37.5t-172.5 37.5t-139.5 100.5q-60 63 -94 147
t-34 177q0 91 33.5 175t93.5 148q59 63 139.5 101t173.5 38zM440 827q-83 0 -154 -33.5t-123 -89.5q-52 -57 -81.5 -131.5t-29.5 -156.5t29 -156.5t81 -130.5q52 -57 123 -90.5t155 -33.5q82 0 153 33t123 90q52 56 81.5 130.5t29.5 157.5q0 81 -29.5 155.5t-81.5 131.5
q-52 56 -123 90t-153 34z" />
    <glyph glyph-name="uni3131" unicode="&#x3131;" horiz-adv-x="278" 
d="M28 539l56 -5l14 5v-5l4 5q122 0 151 -42l-27 -140l4 -4l-9 -58v-14q0 -13 -33 -19l-32 19l-5 4v14q0 60 19 142q-8 32 -23 32l-5 -4l-14 4l-58 -4q-34 0 -70 37v5q14 28 28 28z" />
    <glyph glyph-name="uni3132" unicode="&#x3132;" horiz-adv-x="425" 
d="M246 592q148 -17 148 -49l6 -6v-11l-33 -126l-6 -17v-38l-38 -44h-28q-16 5 -16 33v27q31 53 38 110l-5 6v11l5 5l-5 17h-22l-28 -6q-49 42 -49 72zM110 528v-5l6 5h22q42 0 66 -55l-6 -33l6 -16h-6l6 -6v-5l-6 -39l6 -16l-6 -33l11 -66q-21 -50 -71 -50l-22 50l5 5
l-11 44l6 6v5l-6 17l6 5v6l-6 22l6 16l-6 6v5l6 17l-6 33v22l-16 5l-28 -5q-66 18 -66 33l22 22h6z" />
    <glyph glyph-name="uni3133" unicode="&#x3133;" horiz-adv-x="540" 
d="M387 516h15q45 -76 102 -144l11 -34q-11 0 -11 -30l-19 -7q-19 3 -68 83q-18 41 -27 41l-30 -87q-3 -25 -38 -60q-23 8 -26 19v19q7 9 7 26l12 4l-4 4v11q26 45 53 121h4l-4 4v4zM204 522h45l4 -4l4 4h22q21 0 42 -23q-47 -72 -106 -204l-19 -11q-34 5 -34 15v4
q0 14 68 151v19h-26l-38 -4v4l-45 -8l-4 4q-36 0 -79 -26h-4q-23 0 -34 26q0 38 110 38q0 6 94 15z" />
    <glyph glyph-name="uni3134" unicode="&#x3134;" horiz-adv-x="233" 
d="M32 562q32 -2 32 -12l-8 -56v-28l-4 -4l4 -4v-4l-4 -4l4 -4v-4l-4 -20l4 -16h-4l4 -4l-4 -20v-8q0 -56 36 -56l40 -8h16l16 4q48 -12 48 -20v-24q0 -21 -16 -28h-56l-16 -4l-32 8l-4 -4h-28l-4 4l-4 -4h-4q-27 0 -40 72l4 12l-4 4h-4q19 216 32 216l-8 12l4 4h4z" />
    <glyph glyph-name="uni3135" unicode="&#x3135;" horiz-adv-x="483" 
d="M35 553l22 -9l-5 -96v-18q0 -73 23 -73h16q26 0 53 18h13q30 -11 30 -36q-33 -26 -148 -61h-9q-24 0 -30 179q0 96 26 96h9zM223 543q144 0 144 -36v-7l-53 -110h5l18 5q23 0 79 -33l42 -41v-12q-23 -3 -27 -27l-22 -8l-33 29l-26 26q-36 28 -36 57h-4q-35 -44 -69 -114
l-23 -18l-4 5h-5l-12 -12h-18l-4 4h-5q0 28 92 165l36 66v18h-9v4l-5 -4h-13l-5 4l-16 -9q-30 10 -36 30z" />
    <glyph glyph-name="uni3136" unicode="&#x3136;" horiz-adv-x="449" 
d="M293 600h5q23 -14 44 -58v-39q0 -7 -34 -25h-10q-19 45 -19 84v23zM38 551l25 -9l-5 -107v-19q0 -83 24 -83h20q28 0 58 20h15q34 -13 34 -39q-37 -29 -165 -68h-10q-28 0 -34 199q0 106 29 106h9zM182 467l24 -5l5 5l24 -5h14q175 -12 175 -34q-10 -54 -24 -54h-29l-5 6
l-4 -6h-6l-140 15l-39 -5l-24 34v5q0 44 29 44zM333 351q38 0 43 -54q-8 0 -25 -53q-23 -24 -77 -44h-25q-25 0 -33 20q0 43 117 131zM260 249l4 -5h20q49 6 49 48l-11 19q-62 -34 -62 -62z" />
    <glyph glyph-name="uni3137" unicode="&#x3137;" horiz-adv-x="265" 
d="M10 530h48q24 -1 24 -9l4 5q130 -9 130 -29q-10 -48 -38 -48l-96 14l-5 -14l5 -67v-10q0 -13 62 -24l29 5h9l5 -5l5 5h5q43 -12 43 -43v-5q-19 0 -19 -24l-48 -10l-53 10l-5 -5l-24 5h-48q-24 11 -24 48v57l5 20l-5 4v5l5 5v5q-8 51 -24 62v34z" />
    <glyph glyph-name="uni3138" unicode="&#x3138;" horiz-adv-x="383" 
d="M99 561l20 -4h22q56 -4 56 -16q0 -27 -32 -40l-54 8h-16q-35 -13 -35 -28l-5 -52v-12q0 -60 45 -60l32 5q40 -12 40 -29q0 -55 -16 -55l-80 -5v5l-4 -5q-49 0 -68 60v4l4 12l-4 20v48l4 84l-8 36q17 16 99 24zM191 499l27 -5h88q14 0 28 -12q-4 -35 -20 -35l-76 4l-20 -4
l4 -13l-4 -19l28 -100l57 -5l31 5q24 -5 24 -12v-16q0 -48 -120 -48h-20q-27 23 -44 143l-12 104z" />
    <glyph glyph-name="uni3139" unicode="&#x3139;" horiz-adv-x="292" 
d="M192 573l62 -13l10 -16l-7 -43l7 -6l-4 -3l7 -39q0 -40 -107 -49l-75 -36q-15 0 -23 -59q32 -13 49 -13l19 4l4 -4h3l19 4h20l13 -13v-7q0 -6 -10 -6l3 -17l-19 -16h-20l-107 -13q-30 0 -36 59l7 16l-4 3l7 29l-3 10l19 42q51 43 72 43v-3l88 32v-3q32 14 32 32v23
q0 17 -52 13h-10l-19 -4l-10 4l-36 -10q-19 28 -19 33q5 26 120 26z" />
    <glyph glyph-name="uni313A" unicode="&#x313a;" horiz-adv-x="461" 
d="M254 511l48 -5l12 5v-5l4 5q94 0 118 -36l-23 -119l3 -3l-7 -80v-12q0 -10 -28 -15l-28 15l-4 4v12q0 81 16 150q-5 28 -19 28l-4 -3l-12 3l-40 -3q-28 0 -50 21v14q2 24 14 24zM141 557l77 -3l17 -17v-16q-8 -10 -12 -35h-2l2 -3q0 -70 -42 -89q-29 0 -80 -48l-3 -3v-3
l3 -10q-10 -4 -10 -21l10 -6h2l92 17l5 -27q-43 -35 -133 -50q-23 8 -23 43v23q0 59 63 85q64 37 64 66l3 14l-3 9h3q0 38 -33 28v3l-10 -3l-11 3q-31 0 -77 -23l-6 -8h-3q-21 12 -34 34l9 26h8q6 0 42 10z" />
    <glyph glyph-name="uni313B" unicode="&#x313b;" horiz-adv-x="502" 
d="M164 561l79 -3l17 -17v-17q-8 -10 -11 -35h-3l3 -3q0 -73 -44 -92q-30 0 -82 -48l-3 -4v-3l3 -10q-10 -4 -10 -21l10 -7h3l93 18l6 -28q-44 -36 -136 -51q-24 9 -24 44v24q0 60 65 86q65 38 65 68l3 14l-3 10h3q0 38 -34 38v3l-10 -3l-11 3q-53 0 -99 -34l-6 -7h-4
q-21 11 -34 34l10 27h7q7 0 7 -10zM309 561l46 -3h46q50 0 57 -100l19 -69q-37 -41 -96 -41l-79 -38h-13l-19 19v11l5 3l-8 19l3 39v42q12 72 39 118zM305 435l8 -68q95 40 95 57q0 71 -42 80q-53 0 -53 -27z" />
    <glyph glyph-name="uni313C" unicode="&#x313c;" horiz-adv-x="424" 
d="M222 555h7q12 -5 22 -30l-7 -70l3 -3v-4l-3 -15l7 -7l4 3h4l3 -3l37 3h26v15q0 48 -11 81l18 19q29 0 41 -22v-26l-4 -15l4 -4l-4 -11l15 -96h-4l8 -24h-4l15 -49q-15 -41 -30 -41q-19 -7 -118 -11l-11 -11h-7q-20 9 -30 30v3l7 15l-8 25l1 24l-4 4l4 19l-11 42l4 56l3 3
l-3 4v4l3 3l-3 4v4l3 3l-3 15q0 46 26 63zM28 567h20q96 0 96 -52l8 -64q-15 -29 -76 -68l-12 -20l4 -4v-4l-4 -16q0 -32 40 -32l52 4l16 -12q-8 -44 -44 -44q-10 -8 -80 -12q-48 17 -48 48l4 12l-4 32q0 60 80 108q16 17 16 32v16q0 36 -52 36q-22 0 -32 20v4zM277 381
q-28 0 -33 -14l7 -8l-7 -17l7 -22l-1 -27v-4h11q59 0 75 15l-4 9l4 11q-8 57 -18 57h-8v4l-3 -4h-30z" />
    <glyph glyph-name="uni313D" unicode="&#x313d;" horiz-adv-x="480" 
d="M278 549q55 0 55 -30l122 -162v-8q-23 -37 -37 -37q-24 7 -92 107q-27 28 -27 37q-95 -147 -106 -192l-37 -15h-7l-7 8q3 21 21 48q53 88 102 218q0 11 13 26zM178 551q28 -8 29 -16v-6q-20 -104 -32 -104q0 -18 -101 -32l-3 -3q-19 0 -29 -36l3 -13l-3 -3l23 -3h3l23 3
v-3l22 6q15 -5 23 -19v-10q0 -29 -20 -29l-3 3l-16 -3h-13l-52 -3q-32 13 -32 45l3 3l-3 16v10q0 71 65 71v-3q77 23 77 42l10 39l-10 19h-19l-13 -3l-3 3q-63 -16 -88 -16v16q25 29 159 29z" />
    <glyph glyph-name="uni313E" unicode="&#x313e;" horiz-adv-x="476" 
d="M161 565q34 0 34 -49l-4 -3l15 -53q-7 0 -26 -37q-17 0 -101 -64v-23q2 -22 11 -22q49 18 79 41h3l8 -7v-8l-11 -11l3 -4v-7q-35 -45 -97 -75h-8q-24 0 -41 75v37q16 26 109 75l26 34l-4 4v3l4 4l-11 45h-15l-15 4q-70 -8 -98 -23q-15 5 -22 19v11q0 19 142 30zM252 521
l27 -3h82q13 0 26 -12q-3 -33 -18 -33l-72 3l-18 -3l3 -12l-3 -18l3 -15l-3 -4v-4l7 -15q9 7 101 11l4 -3h4l19 3q37 -11 37 -18l-4 -4l4 -4v-11l-22 -19q-135 14 -135 26v-3l18 -72h15l19 -3l45 7q30 -6 30 -15v-7q0 -53 -109 -53l-15 -4q-27 0 -52 132h4q-12 38 -23 138
q11 12 26 12v3z" />
    <glyph glyph-name="uni313F" unicode="&#x313f;" horiz-adv-x="518" 
d="M139 563l77 -3l16 -18v-16q-8 -11 -12 -37h-2l2 -2q0 -74 -41 -94q-29 0 -79 -50l-3 -2v-4l3 -10q-10 -4 -10 -22l10 -7h1l91 18l6 -28q-44 -37 -132 -52q-22 8 -22 45v24q0 62 62 88q62 38 62 69l4 14l-4 11h4q0 39 -33 28v4l-11 -4l-9 4q-32 0 -77 -25l-5 -7h-4
q-20 12 -33 35l9 27h7q6 0 42 10zM277 562h6q14 -1 14 -6l2 4h4l104 -12l3 2l20 -2l18 -7l3 -4l4 4h2q20 0 20 -20q-11 -21 -38 -21l-13 -3l4 -20v-5l-4 -11l6 -47h18l12 3l3 -3h3l14 8l11 -21l-3 -2v-4l3 -11q0 -16 -31 -18v2l-164 -25v3l-26 -5l-18 25l10 29l14 -4h12
q17 0 17 8l-2 31q9 0 9 31h4l-4 2q4 34 18 34v3l-25 2l-2 -2h-6l-16 2l-4 -2h-2q-29 10 -32 26q-5 20 -5 26v2q0 8 37 8zM343 497v-3l7 -5l-7 -20l3 -2v-14l6 -52q43 3 43 13l-3 3l3 39l-3 38l-10 3l-2 -3h-3l-31 3h-3z" />
    <glyph glyph-name="uni3140" unicode="&#x3140;" horiz-adv-x="487" 
d="M190 537q24 0 32 -24l-8 -24l4 -20l-4 -4l4 -20v-24l-40 -32h-4l-4 4l-76 -36l-12 -32l12 -20l64 12q20 -5 20 -12l-8 -8l4 -4v-4q0 -24 -132 -40q-12 21 -12 40l4 4l-4 4v8l4 4l-4 4q0 69 60 92l60 32v20l4 4q0 20 -20 32q-49 -13 -110 -36h-4l-20 20q0 28 64 36
q0 15 126 24zM318 573h4q20 -13 38 -50v-34q0 -6 -30 -20h-8q-17 38 -17 71v20zM253 458l21 -4l4 4l21 -4h13q150 -9 150 -29q-9 -46 -21 -46h-25l-4 4l-4 -4h-4l-122 12l-33 -4l-21 29v4q0 38 25 38zM351 358q34 0 38 -46q-7 0 -21 -46q-20 -20 -67 -38h-21q-22 0 -29 17
q0 38 100 113zM289 270l4 -4h16q42 5 42 42l-8 16q-54 -30 -54 -54z" />
    <glyph glyph-name="uni3141" unicode="&#x3141;" horiz-adv-x="264" 
d="M48 544l52 -4h52q58 0 65 -113l22 -79q-42 -47 -109 -47l-91 -44h-13l-22 22v13l5 4l-9 22l4 43v48q12 83 44 135zM43 401l9 -79q109 46 109 66q0 81 -48 91q-61 0 -61 -31z" />
    <glyph glyph-name="uni3142" unicode="&#x3142;" horiz-adv-x="269" 
d="M206 619q31 -27 38 -53q-10 0 -21 -194v-70q0 -34 -38 -36q-25 0 -34 49l4 17l-4 23l9 22l-5 13l9 9q0 10 -34 17v5l-4 -5h-25l-21 5v-27q21 -132 46 -132q76 -18 80 -27v-8l-25 -45h-21q-97 0 -97 36q-38 156 -63 317h4l-4 5v22q0 11 17 13q15 0 38 -40l-5 -4v-4
q10 -67 30 -67l88 -8q17 77 17 163l4 4h17z" />
    <glyph glyph-name="uni3143" unicode="&#x3143;" horiz-adv-x="431" 
d="M169 608q25 -21 31 -41q-9 0 -18 -152v-55q0 -26 -31 -27q-20 0 -27 38l3 13l-3 18l7 17l-4 10l7 7q0 8 -27 14v3l-4 -3h-20l-18 3v-20q18 -104 38 -104q62 -14 66 -20v-7l-21 -35h-17q-79 0 -79 28q-31 122 -52 248h3l-3 3v17q0 9 14 11q12 0 31 -31l-4 -4v-3
q8 -52 24 -52l73 -7q13 61 13 128l4 3h14zM234 563h7q11 -4 20 -27l-6 -66l3 -3v-4l-3 -13l6 -7l4 3h3l4 -3l34 3h24v14q0 45 -10 76l17 17q27 0 38 -21v-24l-3 -14l3 -3l-3 -10l13 -90h-3l24 -134v-3q-14 -45 -31 -45v3q-11 -7 -45 -7v-3l-17 3q-50 0 -62 -13q-34 4 -34 31
v3l7 7q-10 25 -14 89l7 14l-4 4v13l4 14l-11 48l4 52l3 3l-3 4v3l3 4l-3 3v4l3 3l-3 14q0 42 24 58zM286 402q-27 0 -31 -14l6 -7q-2 -24 -6 -24l3 -4v-3l-3 -3l6 -31l-6 -14l6 -7v-10l-10 -35v-7q93 0 93 17l4 28q-7 12 -18 114l-13 3l-4 -3h-27z" />
    <glyph glyph-name="uni3144" unicode="&#x3144;" horiz-adv-x="461" 
d="M180 582q27 -22 33 -44q-9 0 -19 -161v-59q0 -28 -33 -29q-22 0 -29 40l4 15l-4 18l7 18l-3 11l7 8q0 8 -29 14v4l-4 -4h-22l-18 4v-22q18 -110 40 -110q66 -15 70 -22v-7l-22 -37h-19q-84 0 -84 29q-33 130 -55 264h4l-4 4v18q0 9 15 11q13 0 33 -33l-4 -4v-3
q8 -55 26 -55l77 -8q14 65 14 136l4 4h15zM311 541h15q44 -73 99 -139l11 -33q-11 0 -11 -29l-18 -7q-19 2 -66 80q-18 40 -26 40l-29 -84q-3 -24 -37 -58q-23 7 -26 18v18q8 9 8 26l11 4l-4 3v11q26 44 51 117h4l-4 4v4z" />
    <glyph glyph-name="uni3145" unicode="&#x3145;" horiz-adv-x="257" 
d="M96 526h16q48 -80 108 -152l12 -36q-12 0 -12 -32l-20 -8q-20 3 -72 88q-19 44 -28 44l-32 -92q-3 -27 -40 -64q-25 8 -28 20v20q8 9 8 28l12 4l-4 4v12q28 48 56 128h4l-4 4v4z" />
    <glyph glyph-name="uni3146" unicode="&#x3146;" horiz-adv-x="456" 
d="M83 546h14q44 -71 70 -101l28 -31l45 111l10 11q56 0 56 -28l125 -153v-7q-23 -35 -38 -35q-25 7 -94 101q-28 26 -28 35q-97 -139 -108 -181l-38 -14h-7l-7 7q0 17 49 90l-70 112h-3l-28 -80q-2 -24 -35 -56q-21 7 -24 17v18q7 8 7 24l10 4l-3 3v10q24 42 49 112h3l-3 3
v4z" />
    <glyph glyph-name="uni3147" unicode="&#x3147;" horiz-adv-x="289" 
d="M206 529q36 0 58 -65v-39q-31 -79 -116 -141l-83 -13q-37 0 -65 65q0 70 200 193h6zM71 375v-20q3 -13 33 -26q55 0 76 83v7l-6 45q-79 -45 -103 -89z" />
    <glyph glyph-name="uni3148" unicode="&#x3148;" horiz-adv-x="295" 
d="M19 592h10l5 -5l5 5q69 -7 69 -15l5 5q73 -8 73 -49l-54 -157q35 0 138 -113l-39 -39h-15q-93 85 -93 113h-5q-22 -21 -49 -109l-30 -19h-10l-14 15q10 67 83 275l-4 5v10l4 4v5q-98 19 -98 40v10z" />
    <glyph glyph-name="uni3149" unicode="&#x3149;" horiz-adv-x="419" 
d="M268 621l16 -4l12 4q40 -5 40 -36q-10 -4 -56 -88q-12 -2 -28 -44q40 0 112 -156q26 -40 30 -73v-8l-44 -36q-22 25 -36 63q-16 44 -34 94q-23 54 -36 108q-8 0 -28 -48q-18 -36 -28 -36l32 -40l-32 -32h-12q-76 70 -76 92h-4q-18 -17 -40 -88l-24 -16h-8l-12 12
q8 55 68 224l-4 4v8l4 4v4q-80 16 -80 32v8l16 16h8l4 -4l4 4q56 -6 56 -12l4 4q60 -7 60 -40l-44 -128l52 -28q104 161 104 180l-20 4q-15 0 -32 -12h-8l-32 32v16l8 12l28 -4h8q34 0 52 8z" />
    <glyph glyph-name="uni314A" unicode="&#x314a;" horiz-adv-x="308" 
d="M18 507h8l5 -5l4 5q61 -7 61 -13l5 4q65 -8 65 -44l-48 -140q31 0 165 -33l-16 -49h-13q-144 23 -144 47h-5q-20 -19 -44 -96l-26 -18h-9l-13 13q9 60 75 246l-5 4v9l5 4v4q-88 18 -88 35v9zM137 636h13q29 -16 29 -68q-15 -43 -56 -43l-24 -4l-9 12v12q0 22 47 91z" />
    <glyph glyph-name="uni314B" unicode="&#x314b;" horiz-adv-x="297" 
d="M99 580h9q87 -2 87 -9l4 5h9q46 0 64 -31q-51 -124 -90 -276q-12 -29 -44 -48h-4l-9 9v17l35 134q-156 16 -156 35l-4 17q10 8 117 13l4 -4h4l22 4l26 -9q17 44 22 82l-5 13l-56 5l-9 -9h-8l-56 30v5q5 17 38 17z" />
    <glyph glyph-name="uni314C" unicode="&#x314c;" horiz-adv-x="269" 
d="M29 561l28 -4h90q13 0 28 -13q-4 -38 -20 -38l-78 4l-20 -4l4 -12l-4 -22l4 -17l-4 -4v-4l8 -17q10 7 110 13l4 -4h4l21 4q40 -13 40 -21l-4 -5l4 -4v-13l-24 -21q-147 16 -147 30v-4l21 -81h16l20 -4l49 8q33 -6 33 -16v-9q0 -59 -118 -59l-17 -4q-29 0 -57 148h4
q-12 44 -24 156q12 13 29 13v4z" />
    <glyph glyph-name="uni314D" unicode="&#x314d;" horiz-adv-x="391" 
d="M55 550h7q17 -1 17 -7l4 4h3l142 -25l3 4l25 -4h51l4 -3l3 3h4q48 0 48 -24q-13 -27 -69 -27l-52 -4l4 -24v-7l-4 -14l7 -78h21l14 3l3 -3h3l42 10l14 -28l-4 -3v-4l4 -13q0 -20 -62 -25v4l-218 -31v3l-31 -7l-21 31l11 38l17 -3h14q34 0 34 7l-3 41q10 0 10 58h4l-4 4
q4 41 21 41v4l-28 3l-3 -3h-7l-21 3l-3 -3h-4q-45 13 -45 58q-10 0 -10 7v4q0 10 55 10zM135 467v-3l7 -7l-7 -24l3 -4v-17l7 -86q62 6 62 18l-3 3l3 68l-3 49l-11 3l-3 -3h-4l-48 3h-3z" />
    <glyph glyph-name="uni314E" unicode="&#x314e;" horiz-adv-x="315" 
d="M150 620h5q24 -15 47 -62v-42q0 -8 -36 -25h-11q-20 48 -20 88v25zM31 465l26 -5l5 5l26 -5h16q186 -12 186 -37q-12 -57 -26 -57h-31l-5 6l-5 -6h-6l-150 16l-41 -5l-26 36v5q0 47 31 47zM192 340q41 0 46 -56q-9 0 -26 -57q-25 -25 -83 -47h-25q-28 0 -37 21
q0 46 125 139zM114 232l5 -5h21q52 7 52 51l-11 21q-67 -38 -67 -67z" />
    <glyph glyph-name="uni314F" unicode="&#x314f;" horiz-adv-x="280" 
d="M92 491l5 2l58 4l10 2l13 6l11 -1l16 7q1 -5 43 -7l4 -3q3 -20 -14 -47l-10 -2l-4 4l-3 -5l-10 -2q-103 7 -106 14q-8 -1 -9 10h-1zM114 280h-3v-13l-2 -15l11 -43h-4l7 -35q-2 -48 -58 -48l-15 -13h-4q-16 0 -26 108h5l-4 13l5 5v4l-3 19l-4 5v4l4 5v4l-6 31l4 13l-3 26
l5 26l-7 53l5 4l-21 245l13 9h5q51 -30 49 -96l25 -140h-5l19 -88l-1 -13l3 -53z" />
    <glyph glyph-name="uni3150" unicode="&#x3150;" horiz-adv-x="289" 
d="M17 705q47 -19 47 -120l12 -77h-4l13 -91h-4l4 -5v-29l115 -24l21 135l-3 24v14q0 36 12 38q16 0 34 -28q-4 -108 -12 -120l8 -10l-4 -5l4 -5v-4q-2 -58 -13 -58l5 -5v-14l-5 -5l5 -5v-14l-5 -5l5 -14l-5 -5l5 -24v-34q-13 -57 -43 -57h-13q-13 0 -17 48h4l-4 4l4 72v15
l-12 -5l-73 10v-5l9 -53h-5q13 -54 13 -106v-4q-8 -34 -25 -34l-26 -5q-25 29 -38 178l3 5v4q-10 32 -25 260l4 4v5l-4 5l4 24l-4 48h4l-8 53q4 24 17 24z" />
    <glyph glyph-name="uni3151" unicode="&#x3151;" horiz-adv-x="287" 
d="M34 662h4q39 0 57 -61v-4q-10 0 -15 -71h4q5 6 102 11l4 -4h4l19 4q38 -11 38 -19l-4 -4l4 -4v-11l-23 -19q-137 14 -137 27l-4 11h-3l-4 -15l4 -4v-4l-4 -4v-3l4 -4v-4l-4 -11l7 -65l-3 -4v-4q0 -69 26 -69l46 -4h11l15 4l12 -4l19 4q0 -6 45 -16l4 -3q0 -20 -23 -42
h-11l-4 4l-4 -4h-11l-106 26l-4 4h-4v-4l15 -39h-4q12 -23 12 -68q0 -46 -69 -46l-11 34h4l-12 48h4l-23 94h4l-15 81h4l-4 4v15l4 4l-4 4v27q11 141 23 178v22z" />
    <glyph glyph-name="uni3152" unicode="&#x3152;" horiz-adv-x="295" 
d="M18 638q40 -10 40 -88l16 -68l100 8l28 -4q0 71 52 98h8l8 -12v-4q-24 -166 -36 -326q-17 -38 -36 -38h-12q-7 9 -11 20l-1 30l-8 30l-72 8v-4l8 -90v-4q-8 -28 -24 -28l-24 -4q-28 46 -28 96l-5 51l-2 36q-7 51 -8 108l-6 27v17l1 17l-1 20l-4 24l-1 32l2 28q4 20 16 20
zM74 450l8 -52h-4l4 -4v-34l108 -20l12 86h-4l-12 -4z" />
    <glyph glyph-name="uni3153" unicode="&#x3153;" horiz-adv-x="261" 
d="M173 585q43 0 43 -129l20 -190l-16 -34l-34 -17h-9q-17 0 -9 116h-5l-19 -5l-5 5l-48 -5h-19q-72 5 -72 29l24 19q135 4 135 19v20q0 82 -10 129h5l-5 5v24q0 8 24 14z" />
    <glyph glyph-name="uni3154" unicode="&#x3154;" horiz-adv-x="329" 
d="M279 623q13 0 25 -47l-4 -23l4 -4v-4l-4 -31l4 -4v-4l-7 -35l3 -4v-31l-3 -4l3 -4v-27l-3 -27l3 -4h4l-4 -20v-3l4 -43l-4 -4v-4l4 -3q0 -74 -33 -74q-16 0 -32 -16h-12l-6 66q3 31 6 31l-2 11l21 144l-4 4v5l8 15l-4 3q11 71 11 136l4 5h18zM154 605q29 -18 26 -51
l-4 -3l2 -27l-2 -24l-6 -22q7 -58 2 -123l-2 -15l-6 -16l5 -38l-3 -4l-1 -3l3 -5v-3l-5 -16l3 -11l-5 -12l7 -8l-1 -12l-17 -23l-40 -12q-8 0 -13 23l6 32l4 44l1 17l-3 4l1 20l5 15l-2 12l3 3l-1 20l5 19q-16 11 -64 19l-23 -5l-29 32l5 15l116 1v4l8 55l3 79l-7 7
q1 9 29 12z" />
    <glyph glyph-name="uni3155" unicode="&#x3155;" horiz-adv-x="231" 
d="M162 575h6q38 -5 33 -89l-1 -17v-40v-25l-6 -64l3 -4q-3 -58 -13 -75l4 -2v-3q-5 -11 -10 -11l2 -3v-4q-10 -10 -28 -14q-12 7 -19 21q-8 19 -11 28l1 19l2 22l-11 1q-20 -3 -43 -4q-17 -5 -39 -4l-6 1l-3 4l-3 -4q-20 21 -19 38q9 7 31 11l2 4l18 -1l16 6l12 -1
q33 -4 46 -6l1 20l5 24l-26 14l-4 -3h-3l-21 4l-36 1q-24 9 -29 35l1 3q1 21 109 21l11 -4l1 3q7 99 27 98z" />
    <glyph glyph-name="uni3156" unicode="&#x3156;" horiz-adv-x="276" 
d="M203 590h14q12 0 25 -46l-2 -24l3 -3v-4l-2 -31l4 -4v-4l-6 -35l3 -4l2 -31l-3 -3l3 -4l1 -27l-3 -27l4 -4l1 -24l4 -23l-2 -4l1 -17l-2 -16q-1 -28 -25 -38q-15 0 -31 -6h-10v46q2 31 6 31l-4 12l8 124l-4 4v3l6 16l-3 4l9 104l-3 4l-1 23zM124 567q24 -12 25 -44l-4 -4
v-3l5 -17l-1 -19q-1 -37 -3 -101l-1 -14l-4 -13l3 -57l-4 -3v-4l4 -3l-1 -4l-4 -17l6 -7v-10l-15 -12l-36 -2q-7 0 -13 12l5 19l-5 38l9 22l-4 4l2 17l4 13l-2 11l3 3l-2 34l5 17q-22 0 -58 -2l-27 6l-10 36l4 14l94 1v4l5 17l1 51l-7 7q1 8 26 10zM88 364l3 -3l-1 -5
q-6 -25 -50 -35q-14 1 -27 3l-13 20l2 14q4 24 86 6z" />
    <glyph glyph-name="uni3157" unicode="&#x3157;" horiz-adv-x="354" 
d="M143 537h8q20 -30 35 -102q6 0 8 -17l-4 -5l4 -8v-4l9 -43l4 -5l22 5h60q40 0 40 -39q0 -31 -161 -31v5q-10 -8 -82 -17q-4 -13 -26 -13q-31 0 -60 34v17q0 15 125 31v42h5q-8 25 -8 55h3l-3 5v21l3 17l-3 13q9 39 21 39z" />
    <glyph glyph-name="uni3158" unicode="&#x3158;" horiz-adv-x="653" 
d="M402 660l10 -28v-5l9 -114l129 14l4 -5h5l23 5q46 -14 46 -23l-5 -5l5 -5v-13l-28 -23q-165 17 -165 32l-5 14q-9 0 -9 -14l4 -19l-4 -13l4 -14h-4l4 -14l23 -133l-4 -13l4 -5h5l-5 -28l5 -59q-22 -51 -55 -51q-17 0 -28 97l5 32l-5 37h5l-5 5v4l5 19l-5 49v46l5 55
l-5 55v56q0 64 28 64h4zM143 450h8q20 -30 35 -82q6 0 8 -20v-4l9 -23l4 -5l22 5h60q40 0 40 -39q0 -31 -161 -31v5q-10 -8 -82 -17q-4 -13 -26 -13q-31 0 -60 34v17q0 15 125 31v11l1 15l-4 21h3l-3 5v21l3 17l-3 13q9 39 21 39z" />
    <glyph glyph-name="uni3159" unicode="&#x3159;" horiz-adv-x="607" 
d="M347 608h3q50 0 50 -80l8 -44l4 -50h-3l3 -3l10 -29l102 -10l9 73l6 63v11q0 29 12 32q14 0 31 -23q-4 -123 -11 -133l7 -8l-3 -4l3 -3v-5q-2 -45 -12 -45l5 -5v-11l-5 -5l5 -3v-12l-5 -3l5 -11l-5 -5l5 -20v-36q-11 -46 -39 -46h-11q-12 0 -16 39h4l-4 4l4 94v11l-12 -3
l-65 7v-4l3 -39l5 -19q7 -29 7 -46v-2q-8 -28 -23 -28l-24 -4q-21 23 -28 70l-2 27v2q-10 25 -23 192l3 4v3l-3 5l3 19l-3 39h3l-7 25zM143 435h8q20 -30 35 -82q6 0 8 -20v-4l9 -23l4 -5l22 5h60q40 0 40 -39q0 -31 -161 -31v5q-10 -8 -82 -17q-4 -13 -26 -13q-31 0 -60 34
v17q0 15 125 31v11l1 15l-4 21h3l-3 5v21l3 17l-3 13q9 39 21 39z" />
    <glyph glyph-name="uni315A" unicode="&#x315a;" horiz-adv-x="478" 
d="M407 694q25 -8 25 -21l-4 -21l9 -36l-9 -59q13 -43 13 -116l-4 -58l12 -146h-4l8 -35h-4l4 -3v-9l-4 -25l4 -12q-10 -32 -37 -46h-9q-28 0 -33 117l5 21l-5 21l5 34l-5 16h5l-5 5v4l5 4v4l-5 21h5l-5 4v4l5 12l-5 13l5 59v16l-5 16l9 13l-4 4l4 17l-4 21l4 3v5l-4 4v4
l7 17l-3 4v5q1 28 8 28l-5 4v5q0 82 21 82zM175 487q33 0 74 -162l42 4h9q22 0 28 -16q-18 -51 -91 -51l-179 -58q-34 0 -58 42q0 12 62 16l9 9h8l4 -4l95 33l5 4q13 0 13 9q-30 121 -30 161z" />
    <glyph glyph-name="uni315B" unicode="&#x315b;" horiz-adv-x="446" 
d="M231 503q26 -2 31 -41l2 -25q4 -35 17 -39l65 -5l25 -2q31 -2 50 -30v-3q-13 -29 -29 -39l-19 2l-14 4l-4 -3h-4l-11 5l-22 -2l-14 5q-118 -3 -235 -22q-1 -9 -49 -11l-20 32l1 7q2 18 8 18l18 10l24 5l37 10l-2 12l3 7l-5 43l-4 30l13 17q27 3 33 -17q13 -27 15 -49
l7 -29l30 2q24 -3 26 16l3 28l2 31q4 24 22 33z" />
    <glyph glyph-name="uni315C" unicode="&#x315c;" horiz-adv-x="483" 
d="M401 515v-4l4 3l24 -3l4 -3l11 2q14 -8 13 -13l-1 -8q-18 -45 -53 -40q0 -5 -52 -1l-3 4h-4q-17 -4 -47 0l-15 2l-5 -14q-2 -13 11 -48v-14l7 -21q5 -37 2 -47l-11 -19l-32 -5q-18 5 -20 20l-6 18q-1 25 -4 59l5 10q-6 1 -18 54q-126 -14 -181 -33q-26 12 -30 26l1 2
q4 32 70 32q58 20 171 36l2 -5h4l60 7v-3z" />
    <glyph glyph-name="uni315D" unicode="&#x315d;" horiz-adv-x="456" 
d="M403 637q17 -5 28 -33l-16 -128l-19 -171l6 -14l-6 -4l6 -25v-18q-13 -18 -47 -20q-34 3 -34 15l5 90l-5 6l-5 -6h-13l-19 6l-67 -15v5l-32 -18h-10l-10 10v27q0 27 138 46q0 8 41 15l5 -5l30 214l-5 4v4q5 15 29 15zM39 460l57 5l87 15l28 10l21 -7l12 7l20 -11l2 -9
l-21 -42h-33l-87 -15l-67 -18q-51 3 -56 34q-2 9 37 31zM99 391h23q8 0 14 -28l-4 -19l4 -4l-9 -43l9 -42h-4l9 -40q-19 -49 -33 -51h-4q-21 0 -29 44h4l-4 4v5l4 5v4l-4 4l4 20l-4 28l4 23l-4 5v5q14 80 24 80z" />
    <glyph glyph-name="uni315E" unicode="&#x315e;" horiz-adv-x="499" 
d="M468 619l4 -25l2 -51l-9 -40l-1 -166v-4l-3 -3l2 -3l-3 -32l3 -15l-4 -4l3 -3l-1 -19l1 -26q6 -9 5 -20l-52 -8q-13 1 -14 88l2 9l-1 16l4 9l-2 19l8 93l-2 16l4 9l2 25l4 12l-2 4l3 18l1 14l5 11q6 77 20 87zM356 622q17 -4 28 -33l-15 -109l-19 -171l5 -13l-5 -5l5 -24
v-18q-12 -18 -46 -20q-34 3 -34 14l5 91l-5 5l-5 -5h-14l-19 5l-20 -5v4l-33 -9h-9l-10 10v28q4 24 91 28q20 6 36 8l11 2l8 58l3 20l13 125q6 14 29 14zM41 463h57l87 8l29 7l20 -8l12 5l20 -12l1 -9l-24 -40l-34 2l-88 -7l-67 -12q-50 7 -53 39q-1 8 40 27zM72 396h22
q8 0 15 -29l-5 -19l5 -3l-9 -44l9 -41h-5l9 -40q-19 -49 -32 -51h-5q-21 0 -28 43h4l-4 5v5l4 5v4l-4 4l4 20l-4 27l4 24l-4 4v6q14 80 24 80z" />
    <glyph glyph-name="uni315F" unicode="&#x315f;" horiz-adv-x="451" 
d="M195 168q-39 4 -39 17q0 62 -17 101l-121 -28q-18 1 -18 11l5 5v5l-5 17v4q29 10 58 18l33 12l178 36l62 7l7 -49l-13 -14h-9l-4 4q-113 -6 -113 -28l4 -4v-22v-8v-5l5 -56l-5 -14zM419 473l-3 -12l6 -15l-3 -20v-5l3 -3v-5l-3 -4h3l-3 -12l7 -91l-4 -5v-4l4 -3
q-1 -63 -7 -63q0 -52 -50 -52l-21 12q-7 18 -5 44l6 86l6 69v71l-4 36l4 12l-6 92h2q10 30 18 32h8q25 0 42 -160z" />
    <glyph glyph-name="uni3160" unicode="&#x3160;" horiz-adv-x="429" 
d="M36 529q67 -19 192 -32l12 3l4 -3l84 10h4h36q36 -25 36 -43v-7q0 -12 -112 -22l-16 4l-32 -4l-50 4q-13 0 -22 -64q-9 -94 -24 -94l-24 -9q-8 2 -16 18l4 18l-4 4v13q6 56 8 121l-84 18l-4 -3h-4q-16 5 -24 18q15 50 36 50zM304 468q16 -6 32 -17l-6 -22l4 -3l-4 -10
l4 -33l-4 -21l4 -32v-18v-3q-7 -23 -28 -32q-32 0 -32 47l-4 8v9v3l8 62l-4 3v4q20 49 30 55z" />
    <glyph glyph-name="uni3161" unicode="&#x3161;" horiz-adv-x="490" 
d="M24 408l157 19l6 -4l6 5q245 14 272 -1v-13q-20 -27 -42 -39l-24 -3l-188 -1l-6 -5l-133 5l-18 -6q-54 1 -54 27z" />
    <glyph glyph-name="uni3162" unicode="&#x3162;" horiz-adv-x="449" 
d="M389 609h6l29 -30l-52 -191v-6l5 -5v-7q-41 -166 -51 -173v-6q-59 0 -59 46l11 105l-67 -16l-66 -7l-10 -7l-13 1h-5l-71 -24q-26 11 -46 41v24q0 15 151 41q0 7 35 8l37 8q45 8 62 23h29q53 152 75 175z" />
    <glyph glyph-name="uni3163" unicode="&#x3163;" horiz-adv-x="120" 
d="M34 697q26 -8 26 -21l-4 -19l8 -66l-8 -58l30 -228h-4l4 -4v-46l5 -21h-5l5 -3v-29l4 -53q0 -41 -39 -41l-13 -4h-9q-17 0 -29 136l4 15l-4 20l4 5l-4 28v131l-5 16l9 13l-4 4l4 16l-4 21l4 4v4l-4 4v5l8 15l-4 5v4q1 28 8 28l-4 4v4q0 111 21 111z" />
    <glyph glyph-name="uniAC00" unicode="&#xac00;" horiz-adv-x="637" 
d="M432 713q32 0 48 -51v-4q-7 -5 -9 -46l2 -2v-3q-5 -13 -5 -35l3 -31l-3 -8l3 -11l-3 -25l5 -45l-2 -3v-3l2 -4v-3l-2 -10l6 -54l-4 -4v-3l11 -81l-4 -3v-2l16 -100h-4q10 -26 10 -57q0 -39 -57 -39l-10 29h2l-9 26v4l3 2l-14 89l2 3h3l-10 51h5l-15 78h4l-4 3v14l4 2
l-4 4v55l4 10l-4 15v59l-1 19l5 12l-4 4q17 148 24 148h6zM577 503q35 -8 35 -18q-9 -48 -22 -48q-18 13 -82 17l-26 27q6 18 31 18h38zM25 562l124 -17l26 6q93 -12 93 -57q-149 -226 -149 -304q-23 0 -43 -22l-19 22v28q0 30 89 229l15 36l-55 11l-49 11l-7 -4h-7
q-43 12 -43 21q9 40 25 40z" />
    <glyph glyph-name="uniAC01" unicode="&#xac01;" horiz-adv-x="660" 
d="M320 825h4q52 -29 52 -95l30 -138h-4l21 -86v-13l5 -52l13 4l73 -9h13l17 5l13 -5l22 5q0 -7 52 -17l4 -5q-1 -22 -26 -47h-13l-4 4l-4 -4h-13q-127 30 -130 39q-9 0 -9 13h-4v-13l4 -18h-4l4 -4v-4l-4 -5v-4l13 -52h-4l8 -34q0 -48 -56 -48l-13 -13h-4q-16 0 -30 117h4
l-4 13l4 4v4l-9 26v9l5 4l-5 5v4l5 4v5l-9 30l4 13l-4 26l4 26l-8 51l4 5l-30 242zM39 620h9q86 -1 86 -9l4 5h9q46 0 65 -30q-52 -125 -91 -277q-12 -29 -43 -47h-5l-8 8v17l69 273l-4 13l-57 4l-8 -9h-9l-56 30v5q5 17 39 17zM281 203h43l3 -4l4 4h22q19 0 39 -22
q-44 -68 -101 -194l-18 -11q-32 4 -32 14v4q0 14 65 144v18h-25l-36 -3v3l-44 -7l-3 4q-35 0 -76 -26h-4q-21 0 -32 26q0 36 104 36q0 5 91 14z" />
    <glyph glyph-name="uniAC04" unicode="&#xac04;" horiz-adv-x="660" 
d="M320 795h4q52 -29 52 -95l30 -138h-4l21 -86v-13l5 -52l13 4l73 -9h13l17 5l13 -5l22 5q0 -7 52 -17l4 -5q-1 -22 -26 -47h-13l-4 4l-4 -4h-13q-127 30 -130 39q-9 0 -9 13h-4v-13l4 -18h-4l4 -4v-4l-4 -5v-4l13 -52h-4l8 -34q0 -48 -56 -48l-13 -13h-4q-16 0 -30 117h4
l-4 13l4 4v4l-9 26v9l5 4l-5 5v4l5 4v5l-9 30l4 13l-4 26l4 26l-8 51l4 5l-30 242zM39 590h9q86 -1 86 -9l4 5h9q46 0 65 -30q-52 -125 -91 -277q-12 -29 -43 -47h-5l-8 8v17l69 273l-4 13l-57 4l-8 -9h-9l-56 30v5q5 17 39 17zM147 199h4q35 -12 35 -82q0 -37 65 -43l4 4h4
l5 -4h4l78 8l4 -4v-8q0 -57 -82 -57q0 -8 -74 -8h-8l-5 4l-4 -4h-4q-19 0 -35 73h5l-5 4v5l-4 103z" />
    <glyph glyph-name="uniAC07" unicode="&#xac07;" horiz-adv-x="660" 
d="M330 775h4q52 -29 52 -95l20 -98h-4l21 -86v-13l5 -52l13 4l73 -9h13l17 5l13 -5l22 5q0 -7 52 -17l4 -5q-1 -22 -26 -47h-13l-4 4l-4 -4h-13q-127 30 -130 39q-9 0 -9 13h-4v-13l4 -18h-4l4 -4v-4l-4 -5v-4l13 -52h-4l8 -34q0 -48 -56 -48l-13 -13h-4q-16 0 -30 117h4
l-4 13l4 4v4l-9 26v9l5 4l-5 5v4l5 4v5l-9 30l4 13l-4 26l4 26l-8 51l4 5l-20 202zM39 610h9q86 -1 86 -9l4 5h9q46 0 65 -30q-52 -125 -91 -277q-12 -29 -43 -47h-5l-8 8v17l69 273l-4 13l-57 4l-8 -9h-9l-56 30v5q5 17 39 17zM199 194l16 -5h56l4 -4l3 4h30q36 0 36 -40
l-20 -27l-36 4l-86 -4q-12 -4 -26 -32q0 -48 53 -54l16 -5l3 5h4l128 9l10 -36q-7 -18 -115 -18h-33l-23 -5v5l-4 -5h-32q-37 22 -37 68l-26 95q8 40 36 40v-4l4 4h29z" />
    <glyph glyph-name="uniAC08" unicode="&#xac08;" horiz-adv-x="660" 
d="M320 873h4q52 -29 52 -95l30 -138h-4l21 -86v-13l5 -52l13 4l73 -9h13l17 5l13 -5l22 5q0 -7 52 -17l4 -5q-1 -22 -26 -47h-13l-4 4l-4 -4h-13q-127 30 -130 39q-9 0 -9 13h-4v-13l4 -18h-4l4 -4v-4l-4 -5v-4l13 -52h-4l8 -34q0 -48 -56 -48l-13 -13h-4q-16 0 -30 117h4
l-4 13l4 4v4l-9 26v9l5 4l-5 5v4l5 4v5l-9 30l4 13l-4 26l4 26l-8 51l4 5l-30 242zM39 668h9q86 -1 86 -9l4 5h9q46 0 65 -30q-52 -125 -91 -277q-12 -29 -43 -47h-5l-8 8v17l69 273l-4 13l-57 4l-8 -9h-9l-56 30v5q5 17 39 17zM273 272l62 -13l10 -16l-7 -43l7 -6l-4 -3
l7 -39q0 -40 -107 -49l-75 -36q-15 0 -23 -59q32 -13 49 -13l19 4l4 -4h3l19 4h20l13 -13v-7q0 -6 -10 -6l3 -17l-19 -16h-20l-107 -13q-30 0 -36 59l7 16l-4 3l7 29l-3 10l19 42q51 43 72 43v-3l88 32v-3q32 14 32 32v23q0 27 -52 33h-10l-19 -4l-10 4l-36 -10
q-19 8 -19 13q5 26 120 26z" />
    <glyph glyph-name="uniAC09" unicode="&#xac09;" horiz-adv-x="660" 
d="M330 814h4q52 -29 52 -95l20 -78h-4l21 -86v-13l5 -52l13 4l73 -9h13l17 5l13 -5l22 5q0 -7 52 -17l4 -5q-1 -22 -26 -47h-13l-4 4l-4 -4h-13q-127 30 -130 39q-9 0 -9 13h-4v-13l4 -18h-4l4 -4v-4l-4 -5v-4l13 -52h-4l8 -34q0 -48 -56 -48l-13 -13h-4q-16 0 -30 117h4
l-4 13l4 4v4l-9 26v9l5 4l-5 5v4l5 4v5l-9 30l4 13l-4 26l4 26l-8 51l4 5l-20 182zM39 639h9q86 -1 86 -9l4 5h9q46 0 65 -30q-52 -125 -91 -277q-12 -29 -43 -47h-5l-8 8v17l69 273l-4 13l-57 4l-8 -9h-9l-56 30v5q5 17 39 17zM330 814h4q52 -29 52 -95l20 -78h-4l21 -86
v-13l5 -52l13 4l73 -9h13l17 5l13 -5l22 5q0 -7 52 -17l4 -5q-1 -22 -26 -47h-13l-4 4l-4 -4h-13q-127 30 -130 39q-9 0 -9 13h-4v-13l4 -18h-4l4 -4v-4l-4 -5v-4l13 -52h-4l8 -34q0 -48 -56 -48l-13 -13h-4q-16 0 -30 117h4l-4 13l4 4v4l-9 26v9l5 4l-5 5v4l5 4v5l-9 30
l4 13l-4 26l4 26l-8 51l4 5l-20 182zM39 639h9q86 -1 86 -9l4 5h9q46 0 65 -30q-52 -125 -91 -277q-12 -29 -43 -47h-5l-8 8v17l69 273l-4 13l-57 4l-8 -9h-9l-56 30v5q5 17 39 17zM235 255q22 0 29 -22l-7 -22l4 -19l-4 -4l4 -18v-22l-37 -30h-4l-4 4l-70 -33l-11 -30
l11 -18l59 11q19 -5 19 -11l-8 -8l4 -4v-3q0 -22 -122 -37q-11 19 -11 37l4 3l-4 4v8l4 3l-4 4q0 63 55 85l56 30v18l4 4q0 21 -23 29q-67 -18 -125 -51h-8l-18 18q0 26 59 33q92 41 148 41zM301 225l85 -11l4 4h4q59 -9 59 -30l-26 -125l4 -4v-4q-8 -8 -15 -74l-18 -37
q-25 -18 -37 -18l-4 4v3l26 230v7q-88 0 -96 22v15z" />
    <glyph glyph-name="uniAC0A" unicode="&#xac0a;" horiz-adv-x="660" 
d="M320 882h4q52 -29 52 -95l30 -138h-4l21 -86v-13l5 -52l13 4l73 -9h13l17 5l13 -5l22 5q0 -7 52 -17l4 -5q-1 -22 -26 -47h-13l-4 4l-4 -4h-13q-127 30 -130 39q-9 0 -9 13h-4v-13l4 -18h-4l4 -4v-4l-4 -5v-4l13 -52h-4l8 -34q0 -48 -56 -48l-13 -13h-4q-16 0 -30 117h4
l-4 13l4 4v4l-9 26v9l5 4l-5 5v4l5 4v5l-9 30l4 13l-4 26l4 26l-8 51l4 5l-30 242zM39 647h9q86 -1 86 -9l4 5h9q46 0 65 -30q-52 -125 -91 -277q-12 -29 -43 -47h-5l-8 8v17l69 273l-4 13l-57 4l-8 -9h-9l-56 30v5q5 17 39 17zM320 882h4q52 -29 52 -95l30 -138h-4l21 -86
v-13l5 -52l13 4l73 -9h13l17 5l13 -5l22 5q0 -7 52 -17l4 -5q-1 -22 -26 -47h-13l-4 4l-4 -4h-13q-127 30 -130 39q-9 0 -9 13h-4v-13l4 -18h-4l4 -4v-4l-4 -5v-4l13 -52h-4l8 -34q0 -48 -56 -48l-13 -13h-4q-16 0 -30 117h4l-4 13l4 4v4l-9 26v9l5 4l-5 5v4l5 4v5l-9 30
l4 13l-4 26l4 26l-8 51l4 5l-30 242zM39 647h9q86 -1 86 -9l4 5h9q46 0 65 -30q-52 -125 -91 -277q-12 -29 -43 -47h-5l-8 8v17l69 273l-4 13l-57 4l-8 -9h-9l-56 30v5q5 17 39 17zM194 239l79 -3l17 -17v-17q-8 -10 -11 -35h-3l3 -3q0 -73 -44 -92q-30 0 -82 -48l-3 -4v-3
l3 -10q-10 -4 -10 -21l10 -7h3l93 18l6 -28q-44 -36 -136 -51q-24 9 -24 44v24q0 60 65 86q65 38 65 68l3 14l-3 10h3q0 38 -34 38v3l-10 -3l-11 3q-53 0 -99 -34l-6 -7h-4q-21 11 -34 34l10 27h7q7 0 7 -10zM355 239l41 -3h41q45 0 51 -89l17 -62q-33 -37 -86 -37l-71 -34
h-11l-17 17v10l4 3l-7 17l3 35v37q10 65 35 106zM351 126l7 -61q85 36 85 51q0 64 -37 72q-48 0 -48 -24z" />
    <glyph glyph-name="uniAC10" unicode="&#xac10;" horiz-adv-x="660" 
d="M320 837h4q52 -29 52 -95l30 -138h-4l21 -86v-13l5 -52l13 4l73 -9h13l17 5l13 -5l22 5q0 -7 52 -17l4 -5q-1 -22 -26 -47h-13l-4 4l-4 -4h-13q-127 30 -130 39q-9 0 -9 13h-4v-13l4 -18h-4l4 -4v-4l-4 -5v-4l13 -52h-4l8 -34q0 -48 -56 -48l-13 -13h-4q-16 0 -30 117h4
l-4 13l4 4v4l-9 26v9l5 4l-5 5v4l5 4v5l-9 30l4 13l-4 26l4 26l-8 51l4 5l-30 242zM39 632h9q86 -1 86 -9l4 5h9q46 0 65 -30q-52 -125 -91 -277q-12 -29 -43 -47h-5l-8 8v17l69 273l-4 13l-57 4l-8 -9h-9l-56 30v5q5 17 39 17zM318 196h20q36 0 48 -32l-4 -16l8 -8l-4 -4
v-4l12 -48l-24 -16l-28 -20h-20q-112 -21 -112 -36q-53 -30 -68 -48q-9 0 -16 52h4l-4 4v120l4 4l-4 12q3 14 24 24l4 -4h4l24 8l16 -4q51 16 116 16zM166 136v-20l4 -16l-4 -4v-4l8 -52l156 56q0 47 -24 52v4l-4 -4h-4l-40 4q-61 0 -92 -16z" />
    <glyph glyph-name="uniAC11" unicode="&#xac11;" horiz-adv-x="660" 
d="M330 819h4q52 -29 52 -95l20 -98h-4l21 -86v-13l5 -52l13 4l73 -9h13l17 5l13 -5l22 5q0 -7 52 -17l4 -5q-1 -22 -26 -47h-13l-4 4l-4 -4h-13q-127 30 -130 39q-9 0 -9 13h-4v-13l4 -18h-4l4 -4v-4l-4 -5v-4l13 -52h-4l8 -34q0 -48 -56 -48l-13 -13h-4q-16 0 -30 117h4
l-4 13l4 4v4l-9 26v9l5 4l-5 5v4l5 4v5l-9 30l4 13l-4 26l4 26l-8 51l4 5l-20 202zM39 654h9q86 -1 86 -9l4 5h9q46 0 65 -30q-52 -125 -91 -277q-12 -29 -43 -47h-5l-8 8v17l69 273l-4 13l-57 4l-8 -9h-9l-56 30v5q5 17 39 17zM338 245q26 -19 29 -37q-9 0 -43 -134l-8 -49
q-4 -24 -40 -25q-24 0 -26 34l6 12l-2 15l11 16l-2 9l9 6q1 7 -30 12v3l-4 -3h-24l-20 3l-3 -18q4 -92 28 -92q70 -12 73 -18l-1 -6l-29 -31h-20q-92 0 -88 24q-17 109 -22 221h4l-4 3l3 15q1 8 17 9q15 0 32 -27l-5 -3v-3q1 -46 20 -46l83 -6q25 54 35 113l5 3h16z" />
    <glyph glyph-name="uniAC12" unicode="&#xac12;" horiz-adv-x="660" 
d="M320 884h4q52 -29 52 -95l30 -138h-4l21 -86v-13l5 -52l13 4l73 -9h13l17 5l13 -5l22 5q0 -7 52 -17l4 -5q-1 -22 -26 -47h-13l-4 4l-4 -4h-13q-127 30 -130 39q-9 0 -9 13h-4v-13l4 -18h-4l4 -4v-4l-4 -5v-4l13 -52h-4l8 -34q0 -48 -56 -48l-13 -13h-4q-16 0 -30 117h4
l-4 13l4 4v4l-9 26v9l5 4l-5 5v4l5 4v5l-9 30l4 13l-4 26l4 26l-8 51l4 5l-30 242zM39 649h9q86 -1 86 -9l4 5h9q46 0 65 -30q-52 -125 -91 -277q-12 -29 -43 -47h-5l-8 8v17l69 273l-4 13l-57 4l-8 -9h-9l-56 30v5q5 17 39 17zM320 884h4q52 -29 52 -95l30 -138h-4l21 -86
v-13l5 -52l13 4l73 -9h13l17 5l13 -5l22 5q0 -7 52 -17l4 -5q-1 -22 -26 -47h-13l-4 4l-4 -4h-13q-127 30 -130 39q-9 0 -9 13h-4v-13l4 -18h-4l4 -4v-4l-4 -5v-4l13 -52h-4l8 -34q0 -48 -56 -48l-13 -13h-4q-16 0 -30 117h4l-4 13l4 4v4l-9 26v9l5 4l-5 5v4l5 4v5l-9 30
l4 13l-4 26l4 26l-8 51l4 5l-30 242zM39 649h9q86 -1 86 -9l4 5h9q46 0 65 -30q-52 -125 -91 -277q-12 -29 -43 -47h-5l-8 8v17l69 273l-4 13l-57 4l-8 -9h-9l-56 30v5q5 17 39 17zM253 266q27 -22 32 -43q-8 0 -17 -156v-56q0 -27 -32 -28q-21 0 -29 38l4 15l-4 17l7 18
l-3 11l7 7q0 8 -28 14v3l-4 -3h-21l-18 3v-21q18 -106 39 -106q64 -14 67 -21v-7l-21 -36h-18q-81 0 -81 29q-32 125 -53 254h4l-4 4v18q0 8 14 10q13 0 32 -32l-4 -3v-4q9 -53 25 -53l75 -7q14 62 14 131l3 4h14zM381 227h14q42 -71 95 -135l11 -32q-11 0 -11 -28l-17 -7
q-18 3 -64 78q-17 39 -25 39l-28 -82q-3 -23 -35 -56q-22 7 -25 17v18q7 8 7 25l10 3l-3 4v11q25 42 49 113h4l-4 3v4z" />
    <glyph glyph-name="uniAC13" unicode="&#xac13;" horiz-adv-x="660" 
d="M330 824h4q52 -29 52 -95l20 -118h-4l21 -86v-13l5 -52l13 4l73 -9h13l17 5l13 -5l22 5q0 -7 52 -17l4 -5q-1 -22 -26 -47h-13l-4 4l-4 -4h-13q-127 30 -130 39q-9 0 -9 13h-4v-13l4 -18h-4l4 -4v-4l-4 -5v-4l13 -52h-4l8 -34q0 -48 -56 -48l-13 -13h-4q-16 0 -30 117h4
l-4 13l4 4v4l-9 26v9l5 4l-5 5v4l5 4v5l-9 30l4 13l-4 26l4 26l-8 51l4 5l-20 222zM39 639h9q86 -1 86 -9l4 5h9q46 0 65 -30q-52 -125 -91 -277q-12 -29 -43 -47h-5l-8 8v17l69 273l-4 13l-57 4l-8 -9h-9l-56 30v5q5 17 39 17zM232 209h16q48 -80 108 -152l12 -36
q-12 0 -12 -32l-20 -8q-20 3 -72 88q-19 44 -28 44l-32 -92q-3 -27 -40 -64q-25 8 -28 20v20q8 9 8 28l12 4l-4 4v12q28 48 56 128h4l-4 4v4z" />
    <glyph glyph-name="uniAC14" unicode="&#xac14;" horiz-adv-x="660" 
d="M320 864h4q52 -29 52 -95l30 -138h-4l21 -86v-13l5 -52l13 4l73 -9h13l17 5l13 -5l22 5q0 -7 52 -17l4 -5q-1 -22 -26 -47h-13l-4 4l-4 -4h-13q-127 30 -130 39q-9 0 -9 13h-4v-13l4 -18h-4l4 -4v-4l-4 -5v-4l13 -52h-4l8 -34q0 -48 -56 -48l-13 -13h-4q-16 0 -30 117h4
l-4 13l4 4v4l-9 26v9l5 4l-5 5v4l5 4v5l-9 30l4 13l-4 26l4 26l-8 51l4 5l-30 242zM39 629h9q86 -1 86 -9l4 5h9q46 0 65 -30q-52 -125 -91 -277q-12 -29 -43 -47h-5l-8 8v17l69 273l-4 13l-57 4l-8 -9h-9l-56 30v5q5 17 39 17zM320 864h4q52 -29 52 -95l30 -138h-4l21 -86
v-13l5 -52l13 4l73 -9h13l17 5l13 -5l22 5q0 -7 52 -17l4 -5q-1 -22 -26 -47h-13l-4 4l-4 -4h-13q-127 30 -130 39q-9 0 -9 13h-4v-13l4 -18h-4l4 -4v-4l-4 -5v-4l13 -52h-4l8 -34q0 -48 -56 -48l-13 -13h-4q-16 0 -30 117h4l-4 13l4 4v4l-9 26v9l5 4l-5 5v4l5 4v5l-9 30
l4 13l-4 26l4 26l-8 51l4 5l-30 242zM39 629h9q86 -1 86 -9l4 5h9q46 0 65 -30q-52 -125 -91 -277q-12 -29 -43 -47h-5l-8 8v17l69 273l-4 13l-57 4l-8 -9h-9l-56 30v5q5 17 39 17zM123 228h14q44 -71 70 -101l28 -31l45 111l10 11q56 0 56 -28l125 -153v-7q-23 -35 -38 -35
q-25 7 -94 101q-28 26 -28 35q-97 -139 -108 -181l-38 -14h-7l-7 7q0 17 49 90l-70 112h-3l-28 -80q-2 -24 -35 -56q-21 7 -24 17v18q7 8 7 24l10 4l-3 3v10q24 42 49 112h3l-3 3v4z" />
    <glyph glyph-name="uniAC15" unicode="&#xac15;" horiz-adv-x="731" 
d="M470 807l10 -29v-5l10 -120l134 15l5 -5h5l24 5q48 -15 48 -24l-5 -5l5 -5v-14l-29 -24q-173 18 -173 33l-5 15q-9 0 -9 -15l4 -19l-4 -14l4 -15h-4l4 -14l24 -159l-4 -14l4 -5h5l-5 -29l5 -62q-23 -53 -57 -53q-18 0 -29 101l5 34l-5 38h5l-5 5v5l5 19l-5 72v48l5 57
l-5 58v58q0 67 29 67h4zM442 185q26 0 43 -48v-29q-23 -60 -87 -105l-62 -10q-28 0 -48 48q0 53 149 144h5zM341 70v-14q2 -10 24 -20q39 0 57 63v5l-4 33q-59 -33 -77 -67zM49 590h11q107 -1 107 -11l5 6h12q57 0 81 -37q-65 -157 -114 -346q-15 -37 -54 -59h-6l-10 10v21
l86 341l-5 16l-71 5l-10 -11h-11l-70 38v6q6 21 49 21z" />
    <glyph glyph-name="uniAC16" unicode="&#xac16;" horiz-adv-x="721" 
d="M460 834l10 -29v-5l10 -120l134 15l5 -5h5l24 5q48 -15 48 -24l-5 -5l5 -5v-14l-29 -24q-173 18 -173 33l-5 15q-9 0 -9 -15l4 -19l-4 -14l4 -15h-4l4 -14l24 -129l-4 -14l4 -5h5l-5 -29l5 -42q-23 -53 -57 -53q-18 0 -29 81l5 34v38l-5 5v5l5 19l-5 42v48l5 57l-5 58v58
q0 67 29 67h4zM49 667h11q107 -1 107 -11l5 6h12q57 0 81 -37q-65 -157 -114 -346q-15 -37 -54 -59h-6l-10 10v21l86 341l-5 16l-71 5l-10 -11h-11l-70 38v6q6 21 49 21zM300 279h9l5 -4l5 4q69 -6 69 -12l5 4q74 -7 74 -40l-54 -128q34 0 137 -92l-39 -32h-15
q-93 70 -93 92h-5q-22 -17 -49 -88l-30 -16h-10l-14 12q10 55 83 224l-5 4v8l5 4v4q-98 16 -98 32v8z" />
    <glyph glyph-name="uniAC17" unicode="&#xac17;" horiz-adv-x="681" 
d="M420 878l10 -29v-5l10 -120l134 15l5 -5h5l24 5q48 -15 48 -24l-5 -5l5 -5v-14l-29 -24q-173 18 -173 33l-5 15q-9 0 -9 -15l4 -19l-4 -14l4 -15h-4l4 -14l24 -159l-4 -14l4 -5h5l-5 -29l5 -62q-23 -53 -57 -53q-18 0 -29 101l5 34l-5 38h5l-5 5v5l5 19l-5 72v48l5 57
l-5 58v58q0 67 29 67h4zM241 267v12q16 25 67 27q44 -11 45 -46l5 -20l-12 -9h-12q-21 -1 -93 36zM218 205h9l5 -4l5 4q69 -6 69 -12l5 4q74 -7 74 -40l-54 -128q34 0 137 -92l-39 -32h-15q-93 70 -93 92h-5q-22 -17 -49 -88l-30 -16h-10l-14 12q10 55 83 224l-5 4v8l5 4v4
q-98 16 -98 32v8zM39 660h9q86 -1 86 -9l4 5h9q46 0 65 -30q-52 -125 -91 -277q-12 -29 -43 -47h-5l-8 8v17l69 273l-4 13l-57 4l-8 -9h-9l-56 30v5q5 17 39 17z" />
    <glyph glyph-name="uniAC19" unicode="&#xac19;" horiz-adv-x="731" 
d="M470 859l10 -29v-5l10 -120l134 15l5 -5h5l24 5q48 -15 48 -24l-5 -5l5 -5v-14l-29 -24q-173 18 -173 33l-5 15q-9 0 -9 -15l4 -19l-4 -14l4 -15h-4l4 -14l24 -159l-4 -14l4 -5h5l-5 -29l5 -62q-23 -53 -57 -53q-18 0 -29 101l5 34l-5 38h5l-5 5v5l5 19l-5 72v48l5 57
l-5 58v58q0 67 29 67h4zM49 642h11q107 -1 107 -11l5 6h12q57 0 81 -37q-65 -157 -114 -346q-15 -37 -54 -59h-6l-10 10v21l86 341l-5 16l-71 5l-10 -11h-11l-70 38v6q6 21 49 21zM308 245l28 -4h88q13 0 28 -12q-4 -36 -20 -36l-76 4l-20 -4l4 -12l-4 -20l4 -16l-4 -4v-4
l8 -16q9 7 108 12l4 -4h4l20 4q40 -12 40 -20l-4 -4l4 -4v-12l-24 -20q-144 15 -144 28v-4l20 -76h16l20 -4l48 8q32 -6 32 -16v-8q0 -56 -116 -56l-16 -4q-29 0 -56 140h4q-12 42 -24 148q12 12 28 12v4z" />
    <glyph glyph-name="uniAC1A" unicode="&#xac1a;" horiz-adv-x="731" 
d="M470 832l10 -29v-5l10 -120l134 15l5 -5h5l24 5q48 -15 48 -24l-5 -5l5 -5v-14l-29 -24q-173 18 -173 33l-5 15q-9 0 -9 -15l4 -19l-4 -14l4 -15h-4l4 -14l24 -159l-4 -14l4 -5h5l-5 -29l5 -62q-23 -53 -57 -53q-18 0 -29 101l5 34l-5 38h5l-5 5v5l5 19l-5 72v48l5 57
l-5 58v58q0 67 29 67h4zM49 615h11q107 -1 107 -11l5 6h12q57 0 81 -37q-65 -157 -114 -346q-15 -37 -54 -59h-6l-10 10v21l86 341l-5 16l-71 5l-10 -11h-11l-70 38v6q6 21 49 21zM278 227h7q18 -1 18 -6l3 3h4l147 -22l4 3l25 -3h54l3 -4l4 4h4q50 0 50 -23
q-14 -25 -72 -25l-54 -3l4 -23v-6l-4 -13l7 -54h22l14 3l4 -3h4l43 9l14 -25l-4 -3v-3l4 -13q0 -18 -65 -22v3l-226 -29v3l-32 -6l-22 29l11 35l18 -4h14q36 0 36 7l-4 38q11 0 11 35h4l-4 3q4 39 22 39v3l-29 3l-4 -3h-7l-21 3l-4 -3h-3q-47 12 -47 54q-11 0 -11 6v3
q0 10 58 10zM360 151v-4l7 -6l-7 -22l4 -4v-15l7 -61q65 5 65 16l-4 3l4 45l-4 44l-11 4l-3 -4h-4l-50 4h-4z" />
    <glyph glyph-name="uniAC1B" unicode="&#xac1b;" horiz-adv-x="731" 
d="M470 872l10 -29v-5l10 -120l134 15l5 -5h5l24 5q48 -15 48 -24l-5 -5l5 -5v-14l-29 -24q-173 18 -173 33l-5 15q-9 0 -9 -15l4 -19l-4 -14l4 -15h-4l4 -14l24 -159l-4 -14l4 -5h5l-5 -29l5 -62q-23 -53 -57 -53q-18 0 -29 101l5 34l-5 38h5l-5 5v5l5 19l-5 72v48l5 57
l-5 58v58q0 67 29 67h4zM49 655h11q107 -1 107 -11l5 6h12q57 0 81 -37q-65 -157 -114 -346q-15 -37 -54 -59h-6l-10 10v21l86 341l-5 16l-71 5l-10 -11h-11l-70 38v6q6 21 49 21zM329 241l2 4q18 16 62 22l34 -11q6 -2 11 -36l-2 -9q-45 -4 -77 7l-21 6zM269 172l23 -5l4 5
l22 -5h13q159 -10 159 -31q-10 -48 -22 -48h-26l-5 4l-4 -4h-5l-128 13l-35 -4l-22 31v4q0 40 26 40zM406 66q36 0 40 -49q-8 0 -22 -48q-21 -21 -71 -40h-22q-23 0 -31 18q0 39 106 119zM340 -27l4 -4h18q44 6 44 44l-9 17q-57 -32 -57 -57z" />
    <glyph glyph-name="uniAC1C" unicode="&#xac1c;" horiz-adv-x="696" 
d="M28 573l138 -19l28 7q104 -14 104 -63q-166 -252 -166 -338q-25 0 -48 -25l-21 25v31q0 33 99 254l17 40l-61 13l-55 12l-8 -5h-7q-48 14 -48 24q10 44 28 44zM407 738h6q29 0 44 -50q-10 0 -14 -90l4 -16l-4 -14l4 -3v-3l-4 -24l7 -40l-3 -10l3 -3v-3l-3 -4v-3l3 -30
l-3 -3l3 -10q10 -161 36 -270l-3 -13v-3l7 -10v-24l3 -16q-15 -30 -36 -30l-20 -3q-14 42 -40 229l3 3l-13 80l3 4q-7 28 -7 73v120l-3 13q10 42 10 93h3l-3 3v4l10 26l-3 14q5 13 10 13zM657 658h3l11 -10v-4l-11 -143v-13l-3 -4l3 -3v-4l-3 -10l3 -17l-3 -3v-4l3 -3
l-3 -17v-11l3 -23h-3l3 -4v-3l-3 -4l3 -13l-3 -24l3 -10h-3l3 -4v-3l-3 -31l3 -10h-3l3 -4v-3l-6 -41l3 -3q-7 -48 -17 -48q-7 8 -48 17l-10 20l10 123l-3 4v3l7 72l-96 -24h-7l-3 3l-4 -3h-13q-20 20 -21 37q11 9 45 14l3 3l17 -3l4 3l17 -3h10q54 0 54 14q14 191 52 191z
" />
    <glyph glyph-name="uniAC1D" unicode="&#xac1d;" horiz-adv-x="746" 
d="M372 821q58 -19 58 -182q9 -62 31 -62l47 -5h83l36 -6q24 141 42 141h15q33 -33 37 -68q-42 -93 -52 -249q-7 -29 -37 -52l-20 10l-16 -5v5l-10 26l15 125l-5 5l-5 -5h-5l-47 10l-47 -5l-31 5l-11 -10l11 -21l-5 -21l20 -119l-10 -32l21 -5l5 5h31q28 0 57 -31
q-63 -99 -145 -281l-26 -15q-47 6 -47 21v5q0 19 94 208v26h-37l-52 -5v5l-62 -11l-5 6q-51 0 -110 -37h-5q-31 0 -47 37q0 52 151 52l99 20q-21 59 -26 146h5l-10 68h5l-10 20l10 68l-5 16h5l-5 5v5l5 42l-5 15h5l-16 99q11 31 26 31zM28 637l56 -5l14 5v-5l4 5
q122 0 151 -42l-27 -140l4 -4l-9 -58v-14q0 -13 -33 -19l-32 19l-5 4v14q0 60 19 142q-8 32 -23 32l-5 -4l-14 4l-58 -4q-34 0 -70 37v5q14 28 28 28z" />
    <glyph glyph-name="uniAC20" unicode="&#xac20;" horiz-adv-x="746" 
d="M372 763q58 -19 58 -162q9 -62 31 -62l47 -5h83l36 -6q24 141 42 141h15q33 -33 37 -68q-42 -93 -52 -249q-7 -29 -37 -52l-20 10l-16 -5v5l-10 26l15 125l-5 5l-5 -5h-5l-47 10l-47 -5l-31 5l-11 -10l11 -21l-5 -21l20 -99l-1 -7l6 -13l-2 -15l-39 -21q-26 1 -52 24
q-14 50 -18 84l-3 42l-8 34l3 34l-10 20l-4 41l4 43l-5 5v5l5 42v15l-6 79q11 31 26 31zM28 569l56 -5l14 5v-5l4 5q122 0 151 -42l2 -34l-25 -110l-9 -58v-14q0 -13 -33 -19l-32 19l-5 4v14q0 60 19 142q-8 32 -23 32l-5 -4l-14 4l-58 -4q-34 0 -70 37v5q14 28 28 28z
M267 231h4q35 -12 35 -82q0 -37 65 -43l4 4h4l5 -4h4l78 8l4 -4v-8q0 -57 -82 -57q0 -8 -74 -8h-8l-5 4l-4 -4h-4q-19 0 -35 73h5l-5 4v5l-4 103z" />
    <glyph glyph-name="uniAC24" unicode="&#xac24;" horiz-adv-x="746" 
d="M372 842q58 -19 58 -162q9 -62 31 -62l47 -5h83l36 -6q24 141 42 141h15q33 -33 37 -68q-42 -93 -52 -249q-7 -29 -37 -52l-20 10l-16 -5v5l-10 26l15 125l-5 5l-5 -5h-5l-47 10l-47 -5l-31 5l-11 -10l11 -21l-5 -21l20 -99l-1 -7l6 -13l-2 -15l-39 -21q-26 1 -52 24
q-14 50 -18 84l-3 42l-8 34l3 34l-10 20l-4 41l4 43l-5 5v5l5 42v15l-6 79q11 31 26 31zM28 648l56 -5l14 5v-5l4 5q122 0 151 -42l2 -34l-25 -110l-9 -58v-14q0 -13 -33 -19l-32 19l-5 4v14q0 60 19 142q-8 32 -23 32l-5 -4l-14 4l-58 -4q-34 0 -70 37v5q14 28 28 28z
M463 303l62 -13l10 -16l-7 -43l7 -6l-4 -3l7 -39q0 -40 -107 -49l-75 -36q-15 0 -23 -59q32 -13 49 -13l19 4l4 -4h3l19 4h20l13 -13v-7q0 -6 -10 -6l3 -17l-19 -16h-20l-107 -13q-30 0 -36 59l7 16l-4 3l7 29l-3 10l19 42q51 43 72 43v-3l88 32v-3q32 14 32 32v23
q0 27 -52 33h-10l-19 -4l-10 4l-36 -10q-19 8 -19 13q5 26 120 26z" />
    <glyph glyph-name="uniAC2C" unicode="&#xac2c;" horiz-adv-x="746" 
d="M372 795q58 -19 58 -162q9 -62 31 -62l47 -5h83l36 -6q24 141 42 141h15q33 -33 37 -68q-42 -93 -52 -249q-7 -29 -37 -52l-20 10l-16 -5v5l-10 26l15 125l-5 5l-5 -5h-5l-47 10l-47 -5l-31 5l-11 -10l11 -21l-5 -21l20 -99l-1 -7l6 -13l-2 -15l-39 -21q-26 1 -52 24
q-14 50 -18 84l-3 42l-8 34l3 34l-10 20l-4 41l4 43l-5 5v5l5 42v15l-6 79q11 31 26 31zM28 601l56 -5l14 5v-5l4 5q122 0 151 -42l2 -34l-25 -110l-9 -58v-14q0 -13 -33 -19l-32 19l-5 4v14q0 60 19 142q-8 32 -23 32l-5 -4l-14 4l-58 -4q-34 0 -70 37v5q14 28 28 28z
M418 238h20q36 0 48 -32l-4 -16l8 -8l-4 -4v-4l12 -48l-24 -16l-28 -20h-20q-112 -21 -112 -36q-53 -30 -68 -48q-9 0 -16 52h4l-4 4v120l4 4l-4 12q3 14 24 24l4 -4h4l24 8l16 -4q51 16 116 16zM266 178v-20l4 -16l-4 -4v-4l8 -52l156 56q0 47 -24 52v4l-4 -4h-4l-40 4
q-61 0 -92 -16z" />
    <glyph glyph-name="uniAC2D" unicode="&#xac2d;" horiz-adv-x="746" 
d="M372 811q58 -19 58 -162q9 -62 31 -62l47 -5h83l36 -6q24 141 42 141h15q33 -33 37 -68q-42 -93 -52 -249q-7 -29 -37 -52l-20 10l-16 -5v5l-10 26l15 125l-5 5l-5 -5h-5l-47 10l-47 -5l-31 5l-11 -10l11 -21l-5 -21l20 -99l-1 -7l6 -13l-2 -15l-39 -21q-26 1 -52 24
q-14 50 -18 84l-3 42l-8 34l3 34l-10 20l-4 41l4 43l-5 5v5l5 42v15l-6 79q11 31 26 31zM28 617l56 -5l14 5v-5l4 5q122 0 151 -42l2 -34l-25 -110l-9 -58v-14q0 -13 -33 -19l-32 19l-5 4v14q0 60 19 142q-8 32 -23 32l-5 -4l-14 4l-58 -4q-34 0 -70 37v5q14 28 28 28z
M518 293q26 -19 29 -37q-9 0 -43 -134l-8 -49q-4 -24 -40 -25q-24 0 -26 34l6 12l-2 15l11 16l-2 9l9 6q1 7 -30 12v3l-4 -3h-24l-20 3l-3 -18q4 -92 28 -92q70 -12 73 -18l-1 -6l-29 -31h-20q-92 0 -88 24q-17 109 -22 221h4l-4 3l3 15q1 8 17 9q15 0 32 -27l-5 -3v-3
q1 -46 20 -46l83 -6q25 54 35 113l5 3h16z" />
    <glyph glyph-name="uniAC2F" unicode="&#xac2f;" horiz-adv-x="746" 
d="M372 803q58 -19 58 -162q9 -62 31 -62l47 -5h83l36 -6q24 141 42 141h15q33 -33 37 -68q-42 -93 -52 -249q-7 -29 -37 -52l-20 10l-16 -5v5l-10 26l15 125l-5 5l-5 -5h-5l-47 10l-47 -5l-31 5l-11 -10l11 -21l-5 -21l20 -99l-1 -7l6 -13l-2 -15l-39 -21q-26 1 -52 24
q-14 50 -18 84l-3 42l-8 34l3 34l-10 20l-4 41l4 43l-5 5v5l5 42v15l-6 79q11 31 26 31zM28 609l56 -5l14 5v-5l4 5q122 0 151 -42l2 -34l-25 -110l-9 -58v-14q0 -13 -33 -19l-32 19l-5 4v14q0 60 19 142q-8 32 -23 32l-5 -4l-14 4l-58 -4q-34 0 -70 37v5q14 28 28 28z
M342 249h16q48 -80 108 -152l12 -36q-12 0 -12 -32l-20 -8q-20 3 -72 88q-19 44 -28 44l-32 -92q-3 -27 -40 -64q-25 8 -28 20v20q8 9 8 28l12 4l-4 4v12q28 48 56 128h4l-4 4v4z" />
    <glyph glyph-name="uniAC30" unicode="&#xac30;" horiz-adv-x="746" 
d="M372 814q58 -19 58 -162q9 -62 31 -62l47 -5h83l36 -6q24 141 42 141h15q33 -33 37 -68q-42 -93 -52 -249q-7 -29 -37 -52l-20 10l-16 -5v5l-10 26l15 125l-5 5l-5 -5h-5l-47 10l-47 -5l-31 5l-11 -10l11 -21l-5 -21l20 -99l-1 -7l6 -13l-2 -15l-39 -21q-26 1 -52 24
q-14 50 -18 84l-3 42l-8 34l3 34l-10 20l-4 41l4 43l-5 5v5l5 42v15l-6 79q11 31 26 31zM28 620l56 -5l14 5v-5l4 5q122 0 151 -42l2 -34l-25 -110l-9 -58v-14q0 -13 -33 -19l-32 19l-5 4v14q0 60 19 142q-8 32 -23 32l-5 -4l-14 4l-58 -4q-34 0 -70 37v5q14 28 28 28z
M243 279h14q44 -71 70 -101l28 -31l45 111l10 11q56 0 56 -28l125 -153v-7q-23 -35 -38 -35q-25 7 -94 101q-28 26 -28 35q-97 -139 -108 -181l-38 -14h-7l-7 7q0 17 49 90l-70 112h-3l-28 -80q-2 -24 -35 -56q-21 7 -24 17v18q7 8 7 24l10 4l-3 3v10q24 42 49 112h3l-3 3v4
z" />
    <glyph glyph-name="uniAC31" unicode="&#xac31;" horiz-adv-x="647" 
d="M387 762l24 -33v-15l-10 -14l29 -202l120 -14v14q0 21 14 39l-4 5q25 96 38 96q24 -8 24 -63q0 -31 -14 -67l4 -5l-4 -19v-10h4q-10 -148 -19 -148l5 -5l-19 -173l5 -5v-5q-9 -21 -34 -38h-10q-22 0 -33 82h5l-5 4v5l5 5l-5 5l9 43l-4 5l24 173l-63 14h-29v-5l5 -101h-5
l5 -4v-5q0 -63 -19 -63l-24 5l-10 -9h-4q-53 49 -53 105v5l5 29l-10 43h5l-5 5v43l-5 67l5 5l-5 24v62l-5 20q12 100 48 100h15zM454 191q14 -3 24 -33q-52 -120 -134 -120l-10 28q0 98 110 125h10zM368 90h19q33 0 57 44v4l-14 5q-32 0 -62 -53zM28 557l56 -5l14 5v-5l4 5
q122 0 151 -42l-27 -140l4 -4l-9 -58v-14q0 -13 -33 -19l-32 19l-5 4v14q0 60 19 142q-8 32 -23 32l-5 -4l-14 4l-58 -4q-34 0 -70 37v5q14 28 28 28z" />
    <glyph glyph-name="uniAC38" unicode="&#xac38;" horiz-adv-x="724" 
d="M28 580l138 -19l28 7q104 -15 104 -63q-166 -252 -166 -338q-25 0 -48 -25l-21 25v31q0 32 99 254l17 40l-61 13l-55 12l-8 -5h-7q-48 14 -48 24q10 44 28 44zM471 717h4q39 0 57 -61v-4q-10 0 -15 -121h4q5 6 102 11l4 -4h4l19 4q38 -11 38 -19l-4 -4l4 -4v-11l-23 -19
q-137 14 -137 27l-4 11h-3l-4 -15l4 -4v-4l-4 -4v-3l4 -4v-4l-4 -11l7 -65l-3 -4v-4q0 -79 26 -79l46 -4h11l15 4l12 -4l19 4q0 -6 45 -16l4 -3q0 -20 -23 -42h-11l-4 4l-4 -4h-11l-106 26l-4 4h-4v-4l15 -79h-4q12 -33 12 -78q0 -46 -69 -46l-11 34h4l-12 48h4l-23 144h4
l-15 91h4l-4 4v15l4 4l-4 4v27q11 191 23 228v22z" />
    <glyph glyph-name="uniAC39" unicode="&#xac39;" horiz-adv-x="713" 
d="M28 597l56 -5l14 5v-5l4 5q122 0 151 -42l-27 -140l4 -4l-9 -58v-14q0 -13 -33 -19l-32 19l-5 4v14q0 60 19 142q-8 32 -23 32l-5 -4l-14 4l-58 -4q-34 0 -70 37v5q14 28 28 28zM382 777q35 0 53 -120q6 9 129 15l4 -5h5l24 5q48 -15 48 -24l-5 -5l5 -5v-14l-29 -24
q-177 18 -177 38h-4l6 -46l13 -34l-2 -24l11 -28l5 5l86 -10h14l20 5l14 -5l24 5q0 -7 57 -19l5 -5q-1 -24 -29 -52h-14l-5 4l-5 -4h-14q-140 33 -143 43q-10 0 -10 14h-5v-5l15 -90q-14 -27 -29 -33h-19q-42 0 -48 42l-7 35l2 41l-9 43h4l-9 19l1 31l-6 25h4l-4 5v5l4 38
l-4 14h4l-4 91q10 29 24 29zM357 293h51l4 -5l5 5h26q22 0 46 -26q-52 -81 -120 -230l-21 -13q-38 4 -38 16v5q0 17 77 171v21h-30l-42 -3v3l-53 -8l-3 5q-42 0 -90 -31h-5q-25 0 -38 31q0 42 123 42q0 6 108 17z" />
    <glyph glyph-name="uniAC3C" unicode="&#xac3c;" horiz-adv-x="713" 
d="M28 565l56 -5l14 5v-5l4 5q122 0 151 -42l-27 -140l4 -4l-9 -58v-14q0 -13 -33 -19l-32 19l-5 4v14q0 60 19 142q-8 32 -23 32l-5 -4l-14 4l-58 -4q-34 0 -70 37v5q14 28 28 28zM382 745q35 0 53 -120q6 9 129 15l4 -5h5l24 5q48 -15 48 -24l-5 -5l5 -5v-14l-29 -24
q-177 18 -177 38h-4l6 -46l13 -34l-2 -24l11 -28l5 5l86 -10h14l20 5l14 -5l24 5q0 -7 57 -19l5 -5q-1 -24 -29 -52h-14l-5 4l-5 -4h-14q-140 33 -143 43q-10 0 -10 14h-5v-5l15 -90q-14 -27 -29 -33h-19q-42 0 -48 42l-7 35l2 41l-9 43h4l-9 19l1 31l-6 25h4l-4 5v5l4 38
l-4 14h4l-4 91q10 29 24 29zM267 249h4q35 -12 35 -82q0 -37 65 -43l4 4h4l5 -4h4l78 8l4 -4v-8q0 -57 -82 -57q0 -8 -74 -8h-8l-5 4l-4 -4h-4q-19 0 -35 73h5l-5 4v5l-4 103z" />
    <glyph glyph-name="uniAC40" unicode="&#xac40;" horiz-adv-x="713" 
d="M28 614l56 -5l14 5v-5l4 5q122 0 151 -42l-27 -140l4 -4l-9 -58v-14q0 -13 -33 -19l-32 19l-5 4v14q0 60 19 142q-8 32 -23 32l-5 -4l-14 4l-58 -4q-34 0 -70 37v5q14 28 28 28zM382 794q35 0 53 -120q6 9 129 15l4 -5h5l24 5q48 -15 48 -24l-5 -5l5 -5v-14l-29 -24
q-177 18 -177 38h-4l6 -46l13 -34l-2 -24l11 -28l5 5l86 -10h14l20 5l14 -5l24 5q0 -7 57 -19l5 -5q-1 -24 -29 -52h-14l-5 4l-5 -4h-14q-140 33 -143 43q-10 0 -10 14h-5v-5l15 -90q-14 -27 -29 -33h-19q-42 0 -48 42l-7 35l2 41l-9 43h4l-9 19l1 31l-6 25h4l-4 5v5l4 38
l-4 14h4l-4 91q10 29 24 29zM463 352l62 -13l10 -16l-7 -43l7 -6l-4 -3l7 -39q0 -40 -107 -49l-75 -36q-15 0 -23 -59q32 -13 49 -13l19 4l4 -4h3l19 4h20l13 -13v-7q0 -6 -10 -6l3 -17l-19 -16h-20l-107 -13q-30 0 -36 59l7 16l-4 3l7 29l-3 10l19 42q51 43 72 43v-3l88 32
v-3q32 14 32 32v23q0 27 -52 33h-10l-19 -4l-10 4l-36 -10q-19 8 -19 13q5 26 120 26z" />
    <glyph glyph-name="uniAC4B" unicode="&#xac4b;" horiz-adv-x="713" 
d="M28 572l56 -5l14 5v-5l4 5q122 0 151 -42l-27 -140l4 -4l-9 -58v-14q0 -13 -33 -19l-32 19l-5 4v14q0 60 19 142q-8 32 -23 32l-5 -4l-14 4l-58 -4q-34 0 -70 37v5q14 28 28 28zM382 752q35 0 53 -120q6 9 129 15l4 -5h5l24 5q48 -15 48 -24l-5 -5l5 -5v-14l-29 -24
q-177 18 -177 38h-4l6 -46l13 -34l-2 -24l11 -28l5 5l86 -10h14l20 5l14 -5l24 5q0 -7 57 -19l5 -5q-1 -24 -29 -52h-14l-5 4l-5 -4h-14q-140 33 -143 43q-10 0 -10 14h-5v-5l15 -90q-14 -27 -29 -33h-19q-42 0 -48 42l-7 35l2 41l-9 43h4l-9 19l1 31l-6 25h4l-4 5v5l4 38
l-4 14h4l-4 91q10 29 24 29zM434 287l81 -91q31 -18 58 -72q-5 -34 -14 -34h-24l-101 101h-10q0 -13 -57 -86q-16 -58 -38 -58q-26 0 -34 67q84 113 110 163z" />
    <glyph glyph-name="uniAC4D" unicode="&#xac4d;" horiz-adv-x="713" 
d="M28 562l56 -5l14 5v-5l4 5q122 0 151 -42l-27 -140l4 -4l-9 -58v-14q0 -13 -33 -19l-32 19l-5 4v14q0 60 19 142q-8 32 -23 32l-5 -4l-14 4l-58 -4q-34 0 -70 37v5q14 28 28 28zM382 742q35 0 53 -120q6 9 129 15l4 -5h5l24 5q48 -15 48 -24l-5 -5l5 -5v-14l-29 -24
q-177 18 -177 38h-4l6 -46l13 -34l-2 -24l11 -28l5 5l86 -10h14l20 5l14 -5l24 5q0 -7 57 -19l5 -5q-1 -24 -29 -52h-14l-5 4l-5 -4h-14q-140 33 -143 43q-10 0 -10 14h-5v-5l15 -90q-14 -27 -29 -33h-19q-42 0 -48 42l-7 35l2 41l-9 43h4l-9 19l1 31l-6 25h4l-4 5v5l4 38
l-4 14h4l-4 91q10 29 24 29zM442 250q26 0 43 -48v-29q-23 -60 -87 -105l-62 -10q-28 0 -48 48q0 53 149 144h5zM341 135v-14q2 -10 24 -20q39 0 57 63v5l-4 33q-59 -33 -77 -67z" />
    <glyph glyph-name="uniAC54" unicode="&#xac54;" horiz-adv-x="653" 
d="M26 549l127 -17l26 6q95 -13 95 -58q-152 -231 -152 -311q-23 0 -45 -23l-19 23v29q0 30 91 233l16 37l-56 12l-51 12l-7 -5h-7q-44 13 -44 23q9 39 26 39zM378 715q27 0 40 -43q-9 -33 -9 -118v-49l3 -4v-2l80 6l3 -4h3l16 4q30 -10 30 -16l-3 -3l3 -3v-9l-18 -16
q-114 12 -117 19q5 -71 15 -133l-3 -9q6 0 6 -13l46 -3h10l12 3l10 -3l15 3q0 -6 31 -9q1 62 9 62l-3 3l9 46l-2 4l9 34l-4 12l4 3v3l-4 3v3l18 84q21 27 35 27l6 -9v-3q0 -50 -9 -80l3 -4l-3 -15v-21l-3 -3l3 -4l-7 -86l4 -19h-4l4 -3v-6l-4 -3l4 -4v-2l-4 -25l4 -3v-4
l-4 -2l4 -10l-4 -31l4 -18q-11 -74 -22 -74q-11 10 -37 12q-11 12 -16 31l10 65h-3l-13 -3h-3l-3 3l-3 -3h-9l-87 21l-3 4v-9l9 -59h-2q9 -17 9 -38l-4 -3q6 0 16 -73q-16 -29 -25 -29l-28 -3l-9 25h3q-6 7 -15 77h3l-22 112l4 3h2l-9 46h3q-9 33 -12 111l3 9l-3 13h3l-3 3
l3 9l-3 28l3 3v3l-3 3v4l3 2l-3 19q2 56 6 56l-3 3q13 95 18 102h7z" />
    <glyph glyph-name="uniAC58" unicode="&#xac58;" horiz-adv-x="653" 
d="M28 589l56 -5l14 5v-5l4 5q122 0 151 -42l2 -34l-25 -110l-9 -58v-14q0 -13 -33 -19l-32 19l-5 4v14q0 60 19 142q-8 32 -23 32l-5 -4l-14 4l-58 -4q-34 0 -70 37v5q14 28 28 28zM277 251h4q35 -12 35 -82q0 -37 65 -43l4 4h4l5 -4h4l78 8l4 -4v-8q0 -57 -82 -57
q0 -8 -74 -8h-8l-5 4l-4 -4h-4q-19 0 -35 73h5l-5 4v5l-4 103zM376 743q40 -10 40 -88l16 -68l100 8l28 -4q0 61 52 88h8l8 -12v-4q-24 -156 -36 -296q-17 -28 -36 -28h-12q-7 9 -11 20l-1 20l-8 20l-72 8v-4l8 -80v-4q-8 -28 -24 -28l-24 -4q-28 46 -28 96l-5 41l-2 36
q-7 41 -8 98l-6 27v17l1 17l-1 20l-4 24l-1 32l2 28q4 20 16 20zM432 555l8 -52h-4l4 -4v-24l108 -20l12 76h-4l-12 -4z" />
    <glyph glyph-name="uniAC5C" unicode="&#xac5c;" horiz-adv-x="643" 
d="M28 629l56 -5l14 5v-5l4 5q122 0 151 -42l2 -34l-25 -110l-9 -58v-14q0 -13 -33 -19l-32 19l-5 4v14q0 60 19 142q-8 32 -23 32l-5 -4l-14 4l-58 -4q-34 0 -70 37v5q14 28 28 28zM366 813q40 -10 40 -88l16 -68l100 8l28 -4q0 61 52 88h8l8 -12v-4q-24 -156 -36 -296
q-17 -28 -36 -28h-12q-7 9 -11 20l-1 20l-8 20l-72 8v-4l8 -80v-4q-8 -28 -24 -28l-24 -4q-28 46 -28 96l-5 41l-2 36q-7 41 -8 98l-6 27v17l1 17l-1 20l-4 24l-1 32l2 28q4 20 16 20zM422 625l8 -52h-4l4 -4v-24l108 -20l12 76h-4l-12 -4zM443 333l62 -13l10 -16l-7 -43
l7 -6l-4 -3l7 -39q0 -40 -107 -49l-75 -36q-15 0 -23 -59q32 -13 49 -13l19 4l4 -4h3l19 4h20l13 -13v-7q0 -6 -10 -6l3 -17l-19 -16h-20l-107 -13q-30 0 -36 59l7 16l-4 3l7 29l-3 10l19 42q51 43 72 43v-3l88 32v-3q32 14 32 32v23q0 27 -52 33h-10l-19 -4l-10 4l-36 -10
q-19 8 -19 13q5 26 120 26z" />
    <glyph glyph-name="uniAC70" unicode="&#xac70;" horiz-adv-x="601" 
d="M25 574l125 -17l25 6q95 -13 95 -57q-150 -228 -150 -306q-23 0 -44 -22l-19 22v28q0 30 90 230l15 36l-55 12l-50 11l-7 -5h-6q-44 13 -44 22q9 40 25 40zM532 696h8q28 -16 28 -48v-50l-4 -4l4 -12l-4 -48l4 -4l-4 -20v-44l4 -44l-4 -16l12 -24l-8 -16l4 -16l-4 -4v-4
l4 -4h4l-4 -28v-40l-4 -4l4 -4v-62l4 -28h-4l4 -12q-14 -40 -44 -52l-4 -4h-16q-10 0 -16 80h4l-4 4v58l4 4l-4 4v24l4 36l-4 12l4 40l-36 16l-4 -4h-4l-28 4l-96 -12q-33 11 -52 40v4q0 25 204 40l16 -4v4q4 136 12 136l-4 4v4l8 54l-4 32z" />
    <glyph glyph-name="uniAC71" unicode="&#xac71;" horiz-adv-x="555" 
d="M16 684l110 -32l16 6q58 -24 58 -32v-21l-37 -100q-38 -210 -63 -210q-16 0 -16 -11h-5l-16 16q0 40 58 242l5 47v11l-15 5l-6 -5h-5l-16 10l-5 -5h-5l-6 5h-5l-16 -5q-46 20 -47 32v31zM476 733q42 5 54 -46q-34 -94 -51 -185q-15 -2 -28 -95l-38 -48l-14 -2l-24 31
l-3 -1l16 104l-4 -1q-39 20 -157 16q-16 16 -18 31l-1 10l8 10l77 5l4 5h5l34 -5l4 6h5q54 -1 55 -8q29 3 43 77q16 31 19 85zM357 337h51l4 -5l5 5h26q22 0 46 -26q-52 -81 -120 -230l-21 -13q-38 4 -38 16v5q0 17 77 171v21h-30l-42 -3v3l-53 -8l-3 5q-42 0 -90 -31h-5
q-25 0 -38 31q0 42 123 42q0 6 108 17z" />
    <glyph glyph-name="uniAC74" unicode="&#xac74;" horiz-adv-x="555" 
d="M16 640l110 -32l16 6q58 -24 58 -32v-21l-37 -100q-38 -210 -63 -210q-16 0 -16 -11h-5l-16 16q0 40 58 242l5 47v11l-15 5l-6 -5h-5l-16 10l-5 -5h-5l-6 5h-5l-16 -5q-46 20 -47 32v31zM476 689q42 5 54 -46q-34 -94 -51 -185q-15 -2 -28 -95l-38 -48l-14 -2l-24 31
l-3 -1l16 104l-4 -1q-39 20 -157 16q-16 16 -18 31l-1 10l8 10l77 5l4 5h5l34 -5l4 6h5q54 -1 55 -8q29 3 43 77q16 31 19 85zM267 305h4q35 -12 35 -82q0 -37 65 -43l4 4h4l5 -4h4l78 8l4 -4v-8q0 -57 -82 -57q0 -8 -74 -8h-8l-5 4l-4 -4h-4q-19 0 -35 73h5l-5 4v5l-4 103z
" />
    <glyph glyph-name="uniAC77" unicode="&#xac77;" horiz-adv-x="555" 
d="M16 669l110 -32l16 6q58 -24 58 -32v-21l-37 -100q-38 -210 -63 -210q-16 0 -16 -11h-5l-16 16q0 40 58 242l5 47v11l-15 5l-6 -5h-5l-16 10l-5 -5h-5l-6 5h-5l-16 -5q-46 20 -47 32v31zM476 718q42 5 54 -46q-34 -94 -51 -185q-15 -2 -28 -95l-38 -48l-14 -2l-24 31
l-3 -1l16 104l-4 -1q-39 20 -157 16q-16 16 -18 31l-1 10l8 10l77 5l4 5h5l34 -5l4 6h5q54 -1 55 -8q29 3 43 77q16 31 19 85zM239 289l16 -5h56l4 -4l3 4h30q36 0 36 -40l-20 -27l-36 4l-86 -4q-12 -4 -26 -32q0 -48 53 -54l16 -5l3 5h4l128 9l10 -36q-7 -18 -115 -18h-33
l-23 -5v5l-4 -5h-32q-37 22 -37 68l-26 95q8 40 36 40v-4l4 4h29z" />
    <glyph glyph-name="uniAC78" unicode="&#xac78;" horiz-adv-x="555" 
d="M16 718l110 -32l16 6q58 -24 58 -32v-21l-37 -100q-38 -210 -63 -210q-16 0 -16 -11h-5l-16 16q0 40 58 242l5 47v11l-15 5l-6 -5h-5l-16 10l-5 -5h-5l-6 5h-5l-16 -5q-46 20 -47 32v31zM476 767q42 5 54 -46q-34 -94 -51 -185q-15 -2 -28 -95l-38 -48l-14 -2l-24 31
l-3 -1l16 104l-4 -1q-39 20 -157 16q-16 16 -18 31l-1 10l8 10l77 5l4 5h5l34 -5l4 6h5q54 -1 55 -8q29 3 43 77q16 31 19 85zM383 377l62 -13l10 -16l-7 -43l7 -6l-4 -3l7 -39q0 -40 -107 -49l-75 -36q-15 0 -23 -59q32 -13 49 -13l19 4l4 -4h3l19 4h20l13 -13v-7
q0 -6 -10 -6l3 -17l-19 -16h-20l-107 -13q-30 0 -36 59l7 16l-4 3l7 29l-3 10l19 42q51 43 72 43v-3l88 32v-3q32 14 32 32v23q0 27 -52 33h-10l-19 -4l-10 4l-36 -10q-19 8 -19 13q5 26 120 26z" />
    <glyph glyph-name="uniAC7A" unicode="&#xac7a;" horiz-adv-x="555" 
d="M16 738l110 -32l16 6q58 -24 58 -32v-21l-37 -100q-38 -210 -63 -210q-16 0 -16 -11h-5l-16 16q0 40 58 242l5 47v11l-15 5l-6 -5h-5l-16 10l-5 -5h-5l-6 5h-5l-16 -5q-46 20 -47 32v31zM476 787q42 5 54 -46q-34 -94 -51 -185q-15 -2 -28 -95l-38 -48l-14 -2l-24 31
l-3 -1l16 104l-4 -1q-39 20 -157 16q-16 16 -18 31l-1 10l8 10l77 5l4 5h5l34 -5l4 6h5q54 -1 55 -8q29 3 43 77q16 31 19 85zM204 333l79 -3l17 -17v-17q-8 -10 -11 -35h-3l3 -3q0 -73 -44 -92q-30 0 -82 -48l-3 -4v-3l3 -10q-10 -4 -10 -21l10 -7h3l93 18l6 -28
q-44 -36 -136 -51q-24 9 -24 44v24q0 60 65 86q65 38 65 68l3 14l-3 10h3q0 38 -34 38v3l-10 -3l-11 3q-53 0 -99 -34l-6 -7h-4q-21 11 -34 34l10 27h7q7 0 7 -10zM365 373l41 -3h41q45 0 51 -89l17 -62q-33 -37 -86 -37l-71 -34h-11l-17 17v10l4 3l-7 17l3 35v37
q10 65 35 106zM361 260l7 -61q85 36 85 51q0 64 -37 72q-48 0 -48 -24z" />
    <glyph glyph-name="uniAC80" unicode="&#xac80;" horiz-adv-x="641" 
d="M16 640l110 -32l16 6q58 -24 58 -32v-21l-37 -100q-38 -210 -63 -210q-16 0 -16 -11h-5l-16 16q0 40 58 242l5 47v11l-15 5l-6 -5h-5l-16 10l-5 -5h-5l-6 5h-5l-16 -5q-46 20 -47 32v31zM498 676q42 0 48 -52q-44 -89 -72 -178q-15 0 -39 -91l-43 -43h-14l-20 33h-4
l28 101h-4q-36 24 -154 34q-14 18 -14 33v10l9 9l77 -4l5 4h5l33 -9l5 5h5q53 -8 53 -15q30 0 52 72q20 29 29 82zM525 302h24q43 0 57 -38l-4 -20l4 -4h5l-5 -5v-5l10 -62l-58 -44h-24q-206 -25 -206 -43q-64 -36 -82 -57q-9 0 -19 62h5l-5 5v144l5 5l-5 14q4 17 29 29
l5 -5h5l28 10l20 -5q64 19 211 19zM270 230v-24l5 -19l-5 -5v-5l10 -62l259 67q0 56 -29 62v5l-4 -5h-5l-120 5q-73 0 -111 -19z" />
    <glyph glyph-name="uniAC81" unicode="&#xac81;" horiz-adv-x="555" 
d="M16 701l110 -32l16 6q58 -24 58 -32v-21l-37 -100q-38 -210 -63 -210q-16 0 -16 -11h-5l-16 16q0 40 58 242l5 47v11l-15 5l-6 -5h-5l-16 10l-5 -5h-5l-6 5h-5l-16 -5q-46 20 -47 32v31zM476 750q42 5 54 -46q-34 -94 -51 -185q-15 -2 -28 -95l-38 -48l-14 -2l-24 31
l-3 -1l16 104l-4 -1q-39 20 -157 16q-16 16 -18 31l-1 10l8 10l77 5l4 5h5l34 -5l4 6h5q54 -1 55 -8q29 3 43 77q16 31 19 85zM428 352q26 -19 29 -37q-9 0 -43 -134l-8 -49q-4 -24 -40 -25q-24 0 -26 34l6 12l-2 15l11 16l-2 9l9 6q1 7 -30 12v3l-4 -3h-24l-20 3l-3 -18
q4 -92 28 -92q70 -12 73 -18l-1 -6l-29 -31h-20q-92 0 -88 24q-17 109 -22 221h4l-4 3l3 15q1 8 17 9q15 0 32 -27l-5 -3v-3q1 -46 20 -46l83 -6q25 54 35 113l5 3h16z" />
    <glyph glyph-name="uniAC83" unicode="&#xac83;" horiz-adv-x="555" 
d="M16 684l110 -32l16 6q58 -24 58 -32v-21l-37 -100q-38 -210 -63 -210q-16 0 -16 -11h-5l-16 16q0 40 58 242l5 47v11l-15 5l-6 -5h-5l-16 10l-5 -5h-5l-6 5h-5l-16 -5q-46 20 -47 32v31zM476 733q42 5 54 -46q-34 -94 -51 -185q-15 -2 -28 -95l-38 -48l-14 -2l-24 31
l-3 -1l16 104l-4 -1q-39 20 -157 16q-16 16 -18 31l-1 10l8 10l77 5l4 5h5l34 -5l4 6h5q54 -1 55 -8q29 3 43 77q16 31 19 85zM342 319h16q48 -80 108 -152l12 -36q-12 0 -12 -32l-20 -8q-20 3 -72 88q-19 44 -28 44l-32 -92q-3 -27 -40 -64q-25 8 -28 20v20q8 9 8 28l12 4
l-4 4v12q28 48 56 128h4l-4 4v4z" />
    <glyph glyph-name="uniAC84" unicode="&#xac84;" horiz-adv-x="616" 
d="M16 699l110 -32l16 6q58 -24 58 -32v-21l-37 -100q-38 -210 -63 -210q-16 0 -16 -11h-5l-16 16q0 40 58 242l5 47v11l-15 5l-6 -5h-5l-16 10l-5 -5h-5l-6 5h-5l-16 -5q-46 20 -47 32v31zM476 748q42 5 54 -46q-34 -94 -51 -185q-15 -2 -28 -95l-38 -48l-14 -2l-24 31
l-3 -1l16 104l-4 -1q-39 20 -157 16q-16 16 -18 31l-1 10l8 10l77 5l4 5h5l34 -5l4 6h5q54 -1 55 -8q29 3 43 77q16 31 19 85zM243 344h14q44 -71 70 -101l28 -31l45 111l10 11q56 0 56 -28l125 -153v-7q-23 -35 -38 -35q-25 7 -94 101q-28 26 -28 35q-97 -139 -108 -181
l-38 -14h-7l-7 7q0 17 49 90l-70 112h-3l-28 -80q-2 -24 -35 -56q-21 7 -24 17v18q7 8 7 24l10 4l-3 3v10q24 42 49 112h3l-3 3v4z" />
    <glyph glyph-name="uniAC85" unicode="&#xac85;" horiz-adv-x="555" 
d="M16 654l110 -32l16 6q58 -24 58 -32v-21l-37 -100q-38 -210 -63 -210q-16 0 -16 -11h-5l-16 16q0 40 58 242l5 47v11l-15 5l-6 -5h-5l-16 10l-5 -5h-5l-6 5h-5l-16 -5q-46 20 -47 32v31zM476 703q42 5 54 -46q-34 -94 -51 -185q-15 -2 -28 -95l-38 -48l-14 -2l-24 31
l-3 -1l16 104l-4 -1q-39 20 -157 16q-16 16 -18 31l-1 10l8 10l77 5l4 5h5l34 -5l4 6h5q54 -1 55 -8q29 3 43 77q16 31 19 85zM448 291q17 -4 30 -42q-66 -152 -170 -152l-13 36q0 124 140 158h13zM339 163h24q41 0 72 56v5l-18 6q-40 0 -78 -67z" />
    <glyph glyph-name="uniAC86" unicode="&#xac86;" horiz-adv-x="555" 
d="M16 715l110 -32l16 6q58 -24 58 -32v-21l-37 -100q-38 -210 -63 -210q-16 0 -16 -11h-5l-16 16q0 40 58 242l5 47v11l-15 5l-6 -5h-5l-16 10l-5 -5h-5l-6 5h-5l-16 -5q-46 20 -47 32v31zM476 764q42 5 54 -46q-34 -94 -51 -185q-15 -2 -28 -95l-38 -48l-14 -2l-24 31
l-3 -1l16 104l-4 -1q-39 20 -157 16q-16 16 -18 31l-1 10l8 10l77 5l4 5h5l34 -5l4 6h5q54 -1 55 -8q29 3 43 77q16 31 19 85zM230 348h9l5 -4l5 4q69 -6 69 -12l5 4q74 -7 74 -40l-54 -128q34 0 137 -92l-39 -32h-15q-93 70 -93 92h-5q-22 -17 -49 -88l-30 -16h-10l-14 12
q10 55 83 224l-5 4v8l5 4v4q-98 16 -98 32v8z" />
    <glyph glyph-name="uniAC89" unicode="&#xac89;" horiz-adv-x="555" 
d="M16 712l110 -32l16 6q58 -24 58 -32v-21l-37 -100q-38 -210 -63 -210q-16 0 -16 -11h-5l-16 16q0 40 58 242l5 47v11l-15 5l-6 -5h-5l-16 10l-5 -5h-5l-6 5h-5l-16 -5q-46 20 -47 32v31zM476 761q42 5 54 -46q-34 -94 -51 -185q-15 -2 -28 -95l-38 -48l-14 -2l-24 31
l-3 -1l16 104l-4 -1q-39 20 -157 16q-16 16 -18 31l-1 10l8 10l77 5l4 5h5l34 -5l4 6h5q54 -1 55 -8q29 3 43 77q16 31 19 85zM288 343l28 -4h88q13 0 28 -12q-4 -36 -20 -36l-76 4l-20 -4l4 -12l-4 -20l4 -16l-4 -4v-4l8 -16q9 7 108 12l4 -4h4l20 4q40 -12 40 -20l-4 -4
l4 -4v-12l-24 -20q-144 15 -144 28v-4l20 -76h16l20 -4l48 8q32 -6 32 -16v-8q0 -56 -116 -56l-16 -4q-29 0 -56 140h4q-12 42 -24 148q12 12 28 12v4z" />
    <glyph glyph-name="uniAC8A" unicode="&#xac8a;" horiz-adv-x="570" 
d="M16 683l110 -32l16 6q58 -24 58 -32v-21l-37 -100q-38 -210 -63 -210q-16 0 -16 -11h-5l-16 16q0 40 58 242l5 47v11l-15 5l-6 -5h-5l-16 10l-5 -5h-5l-6 5h-5l-16 -5q-46 20 -47 32v31zM476 732q42 5 54 -46q-34 -94 -51 -185q-15 -2 -28 -95l-38 -48l-14 -2l-24 31
l-3 -1l16 104l-4 -1q-39 20 -157 16q-16 16 -18 31l-1 10l8 10l77 5l4 5h5l34 -5l4 6h5q54 -1 55 -8q29 3 43 77q16 31 19 85zM253 326h6q16 -1 16 -6l3 3h3l134 -22l3 3l23 -3h49l2 -4l4 4h4q45 0 45 -23q-13 -25 -65 -25l-49 -3l4 -23v-6l-4 -13l6 -54h20l13 3l3 -3h4
l39 9l13 -25l-4 -3v-3l4 -13q0 -18 -59 -22v3l-205 -29v3l-29 -6l-20 29l10 35l17 -4h12q33 0 33 7l-4 38q10 0 10 35h4l-4 3q4 39 20 39v3l-26 3l-4 -3h-6l-19 3l-4 -3h-2q-43 12 -43 54q-10 0 -10 6v3q0 10 53 10zM327 250v-4l6 -6l-6 -22l3 -4v-15l7 -61q59 5 59 16l-4 3
l4 45l-4 44l-10 4l-3 -4h-3l-46 4h-3z" />
    <glyph glyph-name="uniAC8B" unicode="&#xac8b;" horiz-adv-x="555" 
d="M16 698l110 -32l16 6q58 -24 58 -32v-21l-37 -100q-38 -210 -63 -210q-16 0 -16 -11h-5l-16 16q0 40 58 242l5 47v11l-15 5l-6 -5h-5l-16 10l-5 -5h-5l-6 5h-5l-16 -5q-46 20 -47 32v31zM476 747q42 5 54 -46q-34 -94 -51 -185q-15 -2 -28 -95l-38 -48l-14 -2l-24 31
l-3 -1l16 104l-4 -1q-39 20 -157 16q-16 16 -18 31l-1 10l8 10l77 5l4 5h5l34 -5l4 6h5q54 -1 55 -8q29 3 43 77q16 31 19 85zM279 335l2 4q18 16 62 22l34 -11q6 -2 11 -36l-2 -9q-45 4 -77 7l-21 6zM219 286l23 -5l4 5l22 -5h13q159 -10 159 -31q-10 -48 -22 -48h-26l-5 4
l-4 -4h-5l-128 13l-35 -4l-22 31v4q0 40 26 40zM356 190q36 0 40 -49q-8 0 -22 -48q-21 -21 -71 -40h-22q-23 0 -31 18q0 39 106 119zM290 97l4 -4h18q44 6 44 44l-9 17q-57 -32 -57 -57z" />
    <glyph glyph-name="uniAC8C" unicode="&#xac8c;" horiz-adv-x="661" 
d="M26 573l130 -18l26 7q98 -14 98 -59q-156 -237 -156 -318q-23 0 -46 -23l-19 23v30q0 30 94 238l15 37l-57 13l-52 11l-7 -5h-7q-45 13 -45 23q9 41 26 41zM597 700h14q13 0 25 -55l-4 -28l4 -5v-4l-4 -37l4 -5v-4l-7 -42l3 -4v-37l-3 -5l3 -4v-33l-3 -32l3 -5h4l-4 -23
v-4l4 -51l-4 -5v-4l4 -5q0 -87 -32 -87q-16 -1 -32 -19h-10l-7 79q2 36 7 36l-4 14l21 171l-3 4v5l7 18l-4 5l14 125l-3 4v28zM449 608q37 -22 37 -60l-4 -5v-4l9 -46l-9 -14q13 -47 13 -125v-18l-4 -19l9 -87l-5 -5v-4l5 -5v-4l-5 -19l5 -14l-5 -14l10 -9v-14l-19 -27
l-46 -14q-9 0 -18 28l4 36l-9 74l9 42l-4 4v23l4 19l-4 14l4 4l-4 23l4 23q-19 13 -69 22l-28 -4l-37 37l5 18l129 1v5l5 23l-5 92l-9 9q0 11 32 14z" />
    <glyph glyph-name="uniAC90" unicode="&#xac90;" horiz-adv-x="647" 
d="M28 583l56 -5l14 5v-5l4 5q122 0 151 -42l2 -34l-25 -110l-9 -58v-14q0 -13 -33 -19l-32 19l-5 4v14q0 60 19 142q-8 32 -23 32l-5 -4l-14 4l-58 -4q-34 0 -70 37v5q14 28 28 28zM267 265h4q35 -12 35 -82q0 -37 65 -43l4 4h4l5 -4h4l78 8l4 -4v-8q0 -57 -82 -57
q0 -8 -74 -8h-8l-5 4l-4 -4h-4q-19 0 -35 73h5l-5 4v5l-4 103zM559 729h18q16 0 33 -48l-3 -24l4 -4v-4l-3 -32l5 -4v-4l-7 -36l5 -4l1 -32l-4 -4l4 -4l2 -28l-4 -28l5 -4l1 -24l6 -24l-5 -4l3 -18l-3 -17q-1 -29 -32 -39q-19 0 -39 -6h-13v48q1 32 7 32l-5 12l10 128l-4 4
l-1 4l8 16l-4 4l13 108l-5 4l-1 24zM442 669q31 -14 32 -52l-5 -4v-4l6 -40l-1 -22q-1 -43 -4 -98l-1 -16l-5 -16l4 -66l-5 -4v-4l4 -4v-4l-6 -20l8 -8l-1 -12l-18 -14l-45 -2q-8 0 -16 14l6 22l-6 44l11 26l-4 4l1 20l6 16l-4 12l5 4l-3 20l6 20q-26 0 -62 -3l-35 7l-12 42
l6 16l107 2l1 4l5 20l2 80l-8 8q0 9 31 12z" />
    <glyph glyph-name="uniAC94" unicode="&#xac94;" horiz-adv-x="647" 
d="M28 665l56 -5l14 5v-5l4 5q122 0 151 -42l2 -34l-25 -110l-9 -58v-14q0 -13 -33 -19l-32 19l-5 4v14q0 60 19 142q-8 32 -23 32l-5 -4l-14 4l-58 -4q-34 0 -70 37v5q14 28 28 28zM559 811h18q16 0 33 -48l-3 -24l4 -4v-4l-3 -32l5 -4v-4l-7 -36l5 -4l1 -32l-4 -4l4 -4
l2 -28l-4 -28l5 -4l1 -24l6 -24l-5 -4l3 -18l-3 -17q-1 -29 -32 -39q-19 0 -39 -6h-13v48q1 32 7 32l-5 12l10 128l-4 4l-1 4l8 16l-4 4l13 108l-5 4l-1 24zM442 751q31 -14 32 -52l-5 -4v-4l6 -40l-1 -22q-1 -43 -4 -98l-1 -16l-5 -16l4 -66l-5 -4v-4l4 -4v-4l-6 -20l8 -8
l-1 -12l-18 -14l-45 -2q-8 0 -16 14l6 22l-6 44l11 26l-4 4l1 20l6 16l-4 12l5 4l-3 20l6 20q-26 0 -62 -3l-35 7l-12 42l6 16l107 2l1 4l5 20l2 80l-8 8q0 9 31 12zM463 335l62 -13l10 -16l-7 -43l7 -6l-4 -3l7 -39q0 -40 -107 -49l-75 -36q-15 0 -23 -59q32 -13 49 -13
l19 4l4 -4h3l19 4h20l13 -13v-7q0 -6 -10 -6l3 -17l-19 -16h-20l-107 -13q-30 0 -36 59l7 16l-4 3l7 29l-3 10l19 42q51 43 72 43v-3l88 32v-3q32 14 32 32v23q0 27 -52 33h-10l-19 -4l-10 4l-36 -10q-19 8 -19 13q5 26 120 26z" />
    <glyph glyph-name="uniAC9C" unicode="&#xac9c;" horiz-adv-x="647" 
d="M28 616l56 -5l14 5v-5l4 5q122 0 151 -42l2 -34l-25 -110l-9 -58v-14q0 -13 -33 -19l-32 19l-5 4v14q0 60 19 142q-8 32 -23 32l-5 -4l-14 4l-58 -4q-34 0 -70 37v5q14 28 28 28zM559 762h18q16 0 33 -48l-3 -24l4 -4v-4l-3 -32l5 -4v-4l-7 -36l5 -4l1 -32l-4 -4l4 -4
l2 -28l-4 -28l5 -4l1 -24l6 -24l-5 -4l3 -18l-3 -17q-1 -29 -32 -39q-19 0 -39 -6h-13v48q1 32 7 32l-5 12l10 128l-4 4l-1 4l8 16l-4 4l13 108l-5 4l-1 24zM442 702q31 -14 32 -52l-5 -4v-4l6 -40l-1 -22q-1 -43 -4 -98l-1 -16l-5 -16l4 -66l-5 -4v-4l4 -4v-4l-6 -20l8 -8
l-1 -12l-18 -14l-45 -2q-8 0 -16 14l6 22l-6 44l11 26l-4 4l1 20l6 16l-4 12l5 4l-3 20l6 20q-26 0 -62 -3l-35 7l-12 42l6 16l107 2l1 4l5 20l2 80l-8 8q0 9 31 12zM418 271h20q36 0 48 -32l-4 -16l8 -8l-4 -4v-4l12 -48l-24 -16l-28 -20h-20q-112 -21 -112 -36
q-53 -30 -68 -48q-9 0 -16 52h4l-4 4v120l4 4l-4 12q3 14 24 24l4 -4h4l24 8l16 -4q51 16 116 16zM286 213v-18l4 -14l-4 -3v-4l7 -45l137 49q0 41 -21 45v4l-4 -4h-3l-35 4q-54 0 -81 -14z" />
    <glyph glyph-name="uniAC9D" unicode="&#xac9d;" horiz-adv-x="647" 
d="M28 633l56 -5l14 5v-5l4 5q122 0 151 -42l2 -34l-25 -110l-9 -58v-14q0 -13 -33 -19l-32 19l-5 4v14q0 60 19 142q-8 32 -23 32l-5 -4l-14 4l-58 -4q-34 0 -70 37v5q14 28 28 28zM559 779h18q16 0 33 -48l-3 -24l4 -4v-4l-3 -32l5 -4v-4l-7 -36l5 -4l1 -32l-4 -4l4 -4
l2 -28l-4 -28l5 -4l1 -24l6 -24l-5 -4l3 -18l-3 -17q-1 -29 -32 -39q-19 0 -39 -6h-13v48q1 32 7 32l-5 12l10 128l-4 4l-1 4l8 16l-4 4l13 108l-5 4l-1 24zM442 719q31 -14 32 -52l-5 -4v-4l6 -40l-1 -22q-1 -43 -4 -98l-1 -16l-5 -16l4 -66l-5 -4v-4l4 -4v-4l-6 -20l8 -8
l-1 -12l-18 -14l-45 -2q-8 0 -16 14l6 22l-6 44l11 26l-4 4l1 20l6 16l-4 12l5 4l-3 20l6 20q-26 0 -62 -3l-35 7l-12 42l6 16l107 2l1 4l5 20l2 80l-8 8q0 9 31 12zM358 308h8q12 -4 23 -26l-8 -63l3 -4v-3l-3 -13l8 -7l3 4h5l31 -2l44 2h38v13q0 43 -12 73l19 16
q31 0 42 -20v-23l-3 -12l3 -5l-3 -9l9 -47l9 -43l8 -55v-3q-16 -43 -34 -43v3q-12 -6 -38 -6l-46 -4l-39 -2q-21 0 -48 -7q-38 4 -38 29v4l-1 16q-2 14 -4 59l-6 36l3 49l4 4l-4 4v3l4 3l-4 3v3l4 3l-4 14q0 41 27 56zM426 153q-41 0 -45 -14l8 -6l-8 -16l8 -6v-11l-5 -22
v-7q130 0 130 16l4 37l-8 29l-16 3l-4 -3h-64z" />
    <glyph glyph-name="uniAC9F" unicode="&#xac9f;" horiz-adv-x="647" 
d="M28 620l56 -5l14 5v-5l4 5q122 0 151 -42l2 -34l-25 -110l-9 -58v-14q0 -13 -33 -19l-32 19l-5 4v14q0 60 19 142q-8 32 -23 32l-5 -4l-14 4l-58 -4q-34 0 -70 37v5q14 28 28 28zM559 766h18q16 0 33 -48l-3 -24l4 -4v-4l-3 -32l5 -4v-4l-7 -36l5 -4l1 -32l-4 -4l4 -4
l2 -28l-4 -28l5 -4l1 -24l6 -24l-5 -4l3 -18l-3 -17q-1 -29 -32 -39q-19 0 -39 -6h-13v48q1 32 7 32l-5 12l10 128l-4 4l-1 4l8 16l-4 4l13 108l-5 4l-1 24zM442 706q31 -14 32 -52l-5 -4v-4l6 -40l-1 -22q-1 -43 -4 -98l-1 -16l-5 -16l4 -66l-5 -4v-4l4 -4v-4l-6 -20l8 -8
l-1 -12l-18 -14l-45 -2q-8 0 -16 14l6 22l-6 44l11 26l-4 4l1 20l6 16l-4 12l5 4l-3 20l6 20q-26 0 -62 -3l-35 7l-12 42l6 16l107 2l1 4l5 20l2 80l-8 8q0 9 31 12zM342 286h16q48 -80 108 -152l12 -36q-12 0 -12 -32l-20 -8q-20 3 -72 88q-19 44 -28 44l-32 -92
q-3 -27 -40 -64q-25 8 -28 20v20q8 9 8 28l12 4l-4 4v12q28 48 56 128h4l-4 4v4z" />
    <glyph glyph-name="uniACA0" unicode="&#xaca0;" horiz-adv-x="647" 
d="M28 630l56 -5l14 5v-5l4 5q122 0 151 -42l2 -34l-25 -110l-9 -58v-14q0 -13 -33 -19l-32 19l-5 4v14q0 60 19 142q-8 32 -23 32l-5 -4l-14 4l-58 -4q-34 0 -70 37v5q14 28 28 28zM559 776h18q16 0 33 -48l-3 -24l4 -4v-4l-3 -32l5 -4v-4l-7 -36l5 -4l1 -32l-4 -4l4 -4
l2 -28l-4 -28l5 -4l1 -24l6 -24l-5 -4l3 -18l-3 -17q-1 -29 -32 -39q-19 0 -39 -6h-13v48q1 32 7 32l-5 12l10 128l-4 4l-1 4l8 16l-4 4l13 108l-5 4l-1 24zM442 716q31 -14 32 -52l-5 -4v-4l6 -40l-1 -22q-1 -43 -4 -98l-1 -16l-5 -16l4 -66l-5 -4v-4l4 -4v-4l-6 -20l8 -8
l-1 -12l-18 -14l-45 -2q-8 0 -16 14l6 22l-6 44l11 26l-4 4l1 20l6 16l-4 12l5 4l-3 20l6 20q-26 0 -62 -3l-35 7l-12 42l6 16l107 2l1 4l5 20l2 80l-8 8q0 9 31 12zM243 316h14q44 -71 70 -101l28 -31l45 111l10 11q56 0 56 -28l125 -153v-7q-23 -35 -38 -35q-25 7 -94 101
q-28 26 -28 35q-97 -139 -108 -181l-38 -14h-7l-7 7q0 17 49 90l-70 112h-3l-28 -80q-2 -24 -35 -56q-21 7 -24 17v18q7 8 7 24l10 4l-3 3v10q24 42 49 112h3l-3 3v4z" />
    <glyph glyph-name="uniACA1" unicode="&#xaca1;" horiz-adv-x="647" 
d="M28 607l56 -5l14 5v-5l4 5q122 0 151 -42l2 -34l-25 -110l-9 -58v-14q0 -13 -33 -19l-32 19l-5 4v14q0 60 19 142q-8 32 -23 32l-5 -4l-14 4l-58 -4q-34 0 -70 37v5q14 28 28 28zM559 753h18q16 0 33 -48l-3 -24l4 -4v-4l-3 -32l5 -4v-4l-7 -36l5 -4l1 -32l-4 -4l4 -4
l2 -28l-4 -28l5 -4l1 -24l6 -24l-5 -4l3 -18l-3 -17q-1 -29 -32 -39q-19 0 -39 -6h-13v48q1 32 7 32l-5 12l10 128l-4 4l-1 4l8 16l-4 4l13 108l-5 4l-1 24zM442 693q31 -14 32 -52l-5 -4v-4l6 -40l-1 -22q-1 -43 -4 -98l-1 -16l-5 -16l4 -66l-5 -4v-4l4 -4v-4l-6 -20l8 -8
l-1 -12l-18 -14l-45 -2q-8 0 -16 14l6 22l-6 44l11 26l-4 4l1 20l6 16l-4 12l5 4l-3 20l6 20q-26 0 -62 -3l-35 7l-12 42l6 16l107 2l1 4l5 20l2 80l-8 8q0 9 31 12zM442 239q26 0 43 -48v-29q-23 -60 -87 -105l-62 -10q-28 0 -48 48q0 53 149 144h5zM341 124v-14
q2 -10 24 -20q39 0 57 63v5l-4 33q-59 -33 -77 -67z" />
    <glyph glyph-name="uniACA8" unicode="&#xaca8;" horiz-adv-x="629" 
d="M29 606l146 -20l29 7q110 -15 110 -66q-175 -265 -175 -356q-26 0 -51 -26l-22 26v33q0 34 105 267l17 42l-64 14l-58 13l-8 -6h-7q-51 15 -51 26q10 46 29 46zM553 718h7q43 -3 41 -100v-80l2 -45l1 -29v-56l-3 -4l3 -4l-4 -70l4 -4q-20 -126 -31 -166l4 -3v-4
q-5 -32 -11 -32l4 -4v-4q-6 -31 -17 -31q-55 0 -55 55q5 59 11 59l-4 12l9 90h-4q-6 -8 -66 -12q-2 -11 -28 -11h-6l-4 4l-3 -4h-14q-20 23 -20 43q10 9 44 15l3 4h21l18 6h14q37 8 52 6l1 23l4 36l-4 11l4 40l-31 15l-4 -4h-3l-24 4l-82 -11q-28 10 -44 39v4q0 24 174 39
l14 -4v4q4 173 27 173z" />
    <glyph glyph-name="uniACA9" unicode="&#xaca9;" horiz-adv-x="569" 
d="M28 634l56 -5l14 5v-5l4 5q122 0 151 -42l2 -34l-25 -110l-9 -58v-14q0 -13 -33 -19l-32 19l-5 4v14q0 60 19 142q-8 32 -23 32l-5 -4l-14 4l-58 -4q-34 0 -70 37v5q14 28 28 28zM493 769h7q43 -3 41 -100v-20l2 -45l1 -29v-46l-3 -4l3 -4l-4 -50l4 -4q0 -66 -11 -86
l4 -3v-4q-5 -12 -11 -12l4 -4v-4q-12 -13 -33 -17q-14 6 -23 24q-9 20 -13 31v21l1 25l-12 1q-23 -5 -50 -7q-18 -6 -44 -6h-6l-4 4l-3 -4h-14q-10 23 -10 43q10 9 34 15l3 4h21l18 6h14q37 -2 52 -4l1 23l4 16l-4 11l4 30l-31 15l-4 -4h-3l-24 4l-42 -1q-28 10 -44 39v4
q0 24 134 29l14 -4v4q4 113 27 113zM344 328h56l4 -5l5 5h29q25 0 51 -29q-58 -89 -132 -254l-24 -14q-42 5 -42 18v5q0 19 85 189v23h-32l-48 -3v3l-57 -9l-4 6q-46 0 -100 -35h-5q-27 0 -42 35q0 47 136 47q0 6 120 18z" />
    <glyph glyph-name="uniACAA" unicode="&#xacaa;" horiz-adv-x="599" 
d="M28 634l56 -5l14 5v-5l4 5q122 0 151 -42l2 -34l-25 -110l-9 -58v-14q0 -13 -33 -19l-32 19l-5 4v14q0 60 19 142q-8 32 -23 32l-5 -4l-14 4l-58 -4q-34 0 -70 37v5q14 28 28 28zM493 769h7q43 -3 41 -100v-20l2 -45l1 -29v-46l-3 -4l3 -4l-4 -50l4 -4q0 -66 -11 -86
l4 -3v-4q-5 -12 -11 -12l4 -4v-4q-12 -13 -33 -17q-14 6 -23 24q-9 20 -13 31v21l1 25l-12 1q-23 -5 -50 -7q-18 -6 -44 -6h-6l-4 4l-3 -4h-14q-10 23 -10 43q10 9 34 15l3 4h21l18 6h14q37 -2 52 -4l1 23l4 16l-4 11l4 30l-31 15l-4 -4h-3l-24 4l-42 -1q-28 10 -44 39v4
q0 24 134 29l14 -4v4q4 113 27 113zM458 278l11 -4l15 4l7 -7l3 3q80 -8 80 -43q-6 -8 -18 -94q-5 0 -7 -22h-4l4 -3v-15l-4 -3l4 -4q0 -30 -22 -47q0 -11 -7 -11h-29l-11 11v29l22 61l3 84h-3l-4 3l-18 -3h-11q-40 26 -40 50zM258 306l11 -3l71 3l3 -3h4l14 3h15
q24 0 39 -32l-7 -33l3 -3v-4l-4 -4l-1 -3l3 -4v-3l-7 -26l2 -14l-8 -40l-3 -25l2 -44q-18 -32 -51 -32h-8q-7 1 -13 36v4l4 3l-4 29l5 11v25l4 4l-2 18l8 33l-2 14l5 11v14l1 8l-10 3l-68 -3q-37 7 -40 39q12 18 34 18z" />
    <glyph glyph-name="uniACAC" unicode="&#xacac;" horiz-adv-x="569" 
d="M28 589l56 -5l14 5v-5l4 5q122 0 151 -42l2 -34l-25 -110l-9 -58v-14q0 -13 -33 -19l-32 19l-5 4v14q0 60 19 142q-8 32 -23 32l-5 -4l-14 4l-58 -4q-34 0 -70 37v5q14 28 28 28zM267 271h4q35 -12 35 -82q0 -37 65 -43l4 4h4l5 -4h4l78 8l4 -4v-8q0 -57 -82 -57
q0 -8 -74 -8h-8l-5 4l-4 -4h-4q-19 0 -35 73h5l-5 4v5l-4 103zM493 724h7q43 -3 41 -100v-20l2 -45l1 -29v-46l-3 -4l3 -4l-4 -50l4 -4q0 -66 -11 -86l4 -3v-4q-5 -12 -11 -12l4 -4v-4q-12 -13 -33 -17q-14 6 -23 24q-9 20 -13 31v21l1 25l-12 1q-23 -5 -50 -7
q-18 -6 -44 -6h-6l-4 4l-3 -4h-14q-10 23 -10 43q10 9 34 15l3 4h21l18 6h14q37 -2 52 -4l1 23l4 16l-4 11l4 30l-31 15l-4 -4h-3l-24 4l-42 -1q-28 10 -44 39v4q0 24 134 29l14 -4v4q4 113 27 113z" />
    <glyph glyph-name="uniACAF" unicode="&#xacaf;" horiz-adv-x="569" 
d="M28 600l56 -5l14 5v-5l4 5q122 0 151 -42l2 -34l-25 -110l-9 -58v-14q0 -13 -33 -19l-32 19l-5 4v14q0 60 19 142q-8 32 -23 32l-5 -4l-14 4l-58 -4q-34 0 -70 37v5q14 28 28 28zM493 735h7q43 -3 41 -100v-20l2 -45l1 -29v-46l-3 -4l3 -4l-4 -50l4 -4q0 -66 -11 -86
l4 -3v-4q-5 -12 -11 -12l4 -4v-4q-12 -13 -33 -17q-14 6 -23 24q-9 20 -13 31v21l1 25l-12 1q-23 -5 -50 -7q-18 -6 -44 -6h-6l-4 4l-3 -4h-14q-10 23 -10 43q10 9 34 15l3 4h21l18 6h14q37 -2 52 -4l1 23l4 16l-4 11l4 30l-31 15l-4 -4h-3l-24 4l-42 -1q-28 10 -44 39v4
q0 24 134 29l14 -4v4q4 113 27 113zM295 290l18 -5h60l5 -5l3 5h32q39 0 39 -44l-21 -29l-39 4l-93 -4q-13 -4 -28 -34q0 -52 57 -59l17 -5l3 5h5l138 10l11 -39q-8 -20 -124 -20h-36l-25 -5v5l-4 -5h-35q-40 24 -40 74l-28 102q9 44 39 44v-5l4 5h32z" />
    <glyph glyph-name="uniACB0" unicode="&#xacb0;" horiz-adv-x="569" 
d="M28 589l56 -5l14 5v-5l4 5q122 0 151 -42l2 -34l-25 -110l-9 -58v-14q0 -13 -33 -19l-32 19l-5 4v14q0 60 19 142q-8 32 -23 32l-5 -4l-14 4l-58 -4q-34 0 -70 37v5q14 28 28 28zM493 724h7q43 -3 41 -100v-20l2 -45l1 -29v-46l-3 -4l3 -4l-4 -50l4 -4q0 -66 -11 -86
l4 -3v-4q-5 -12 -11 -12l4 -4v-4q-12 -13 -33 -17q-14 6 -23 24q-9 20 -13 31v21l1 25l-12 1q-23 -5 -50 -7q-18 -6 -44 -6h-6l-4 4l-3 -4h-14q-10 23 -10 43q10 9 34 15l3 4h21l18 6h14q37 -2 52 -4l1 23l4 16l-4 11l4 30l-31 15l-4 -4h-3l-24 4l-42 -1q-28 10 -44 39v4
q0 24 134 29l14 -4v4q4 113 27 113zM383 277l62 -13l10 -16l-7 -43l7 -6l-4 -3l7 -39q0 -40 -107 -49l-75 -36q-15 0 -23 -59q32 -13 49 -13l19 4l4 -4h3l19 4h20l13 -13v-7q0 -6 -10 -6l3 -17l-19 -16h-20l-107 -13q-30 0 -36 59l7 16l-4 3l7 29l-3 10l19 42q51 43 72 43
v-3l88 32v-3q32 14 32 32v23q-16 23 -52 23h-10l-19 -4l-19 -4l-27 8q-19 8 -19 13q5 26 120 26z" />
    <glyph glyph-name="uniACB8" unicode="&#xacb8;" horiz-adv-x="671" 
d="M28 630l56 -5l14 5v-5l4 5q122 0 151 -42l2 -34l-25 -110l-9 -58v-14q0 -13 -33 -19l-32 19l-5 4v14q0 60 19 142q-8 32 -23 32l-5 -4l-14 4l-58 -4q-34 0 -70 37v5q14 28 28 28zM493 765h7q43 -3 41 -100v-20l2 -45l1 -29v-46l-3 -4l3 -4l-4 -50l4 -4q0 -66 -11 -86
l4 -3v-4q-5 -12 -11 -12l4 -4v-4q-12 -13 -33 -17q-14 6 -23 24q-9 20 -13 31v21l1 25l-12 1q-23 -5 -50 -7q-18 -6 -44 -6h-6l-4 4l-3 -4h-14q-10 23 -10 43q10 9 34 15l3 4h21l18 6h14q37 -2 52 -4l1 23l4 16l-4 11l4 30l-31 15l-4 -4h-3l-24 4l-42 -1q-28 10 -44 39v4
q0 24 134 29l14 -4v4q4 113 27 113zM555 313h24q43 0 57 -38l-4 -20l4 -4h5l-5 -5v-5l10 -62l-58 -44h-24q-206 -25 -206 -43q-64 -36 -82 -57q-9 0 -19 62h5l-5 5v144l5 5l-5 14q4 17 29 29l5 -5h5l28 10l20 -5q64 19 211 19zM300 241v-24l5 -19l-5 -5v-5l10 -62l259 67
q0 56 -29 62v5l-4 -5h-5l-120 5q-73 0 -111 -19z" />
    <glyph glyph-name="uniACB9" unicode="&#xacb9;" horiz-adv-x="569" 
d="M28 616l56 -5l14 5v-5l4 5q122 0 151 -42l2 -34l-25 -110l-9 -58v-14q0 -13 -33 -19l-32 19l-5 4v14q0 60 19 142q-8 32 -23 32l-5 -4l-14 4l-58 -4q-34 0 -70 37v5q14 28 28 28zM493 751h7q43 -3 41 -100v-20l2 -45l1 -29v-46l-3 -4l3 -4l-4 -50l4 -4q0 -66 -11 -86
l4 -3v-4q-5 -12 -11 -12l4 -4v-4q-12 -13 -33 -17q-14 6 -23 24q-9 20 -13 31v21l1 25l-12 1q-23 -5 -50 -7q-18 -6 -44 -6h-6l-4 4l-3 -4h-14q-10 23 -10 43q10 9 34 15l3 4h21l18 6h14q37 -2 52 -4l1 23l4 16l-4 11l4 30l-31 15l-4 -4h-3l-24 4l-42 -1q-28 10 -44 39v4
q0 24 134 29l14 -4v4q4 113 27 113zM268 335h8q12 -4 23 -26l-8 -63l3 -4v-3l-3 -13l8 -7l3 4h5l31 -2l44 2h38v13q0 43 -12 73l19 16q31 0 42 -20v-23l-3 -12l3 -5l-3 -9l9 -47l9 -43l8 -55v-3q-16 -43 -34 -43v3q-12 -6 -38 -6l-46 -4l-39 -2q-21 0 -48 -7q-38 4 -38 29v4
l-1 16q-2 14 -4 59l-6 36l3 49l4 4l-4 4v3l4 3l-4 3v3l4 3l-4 14q0 41 27 56zM336 180q-41 0 -45 -14l8 -6l-8 -16l8 -6v-11l-5 -22v-7q130 0 130 16l4 37l-8 29l-16 3l-4 -3h-64z" />
    <glyph glyph-name="uniACBB" unicode="&#xacbb;" horiz-adv-x="569" 
d="M28 609l56 -5l14 5v-5l4 5q122 0 151 -42l2 -34l-25 -110l-9 -58v-14q0 -13 -33 -19l-32 19l-5 4v14q0 60 19 142q-8 32 -23 32l-5 -4l-14 4l-58 -4q-34 0 -70 37v5q14 28 28 28zM493 744h7q43 -3 41 -100v-20l2 -45l1 -29v-46l-3 -4l3 -4l-4 -50l4 -4q0 -66 -11 -86
l4 -3v-4q-5 -12 -11 -12l4 -4v-4q-12 -13 -33 -17q-14 6 -23 24q-9 20 -13 31v21l1 25l-12 1q-23 -5 -50 -7q-18 -6 -44 -6h-6l-4 4l-3 -4h-14q-10 23 -10 43q10 9 34 15l3 4h21l18 6h14q37 -2 52 -4l1 23l4 16l-4 11l4 30l-31 15l-4 -4h-3l-24 4l-42 -1q-28 10 -44 39v4
q0 24 134 29l14 -4v4q4 113 27 113zM362 309h16q48 -80 108 -152l12 -36q-12 0 -12 -32l-20 -8q-20 3 -72 88q-19 44 -28 44l-32 -92q-3 -27 -40 -64q-25 8 -28 20v20q8 9 8 28l12 4l-4 4v12q28 48 56 128h4l-4 4v4z" />
    <glyph glyph-name="uniACBC" unicode="&#xacbc;" horiz-adv-x="626" 
d="M28 631l56 -5l14 5v-5l4 5q122 0 151 -42l2 -34l-25 -110l-9 -58v-14q0 -13 -33 -19l-32 19l-5 4v14q0 60 19 142q-8 32 -23 32l-5 -4l-14 4l-58 -4q-34 0 -70 37v5q14 28 28 28zM493 766h7q43 -3 41 -100v-20l2 -45l1 -29v-46l-3 -4l3 -4l-4 -50l4 -4q0 -66 -11 -86
l4 -3v-4q-5 -12 -11 -12l4 -4v-4q-12 -13 -33 -17q-14 6 -23 24q-9 20 -13 31v21l1 25l-12 1q-23 -5 -50 -7q-18 -6 -44 -6h-6l-4 4l-3 -4h-14q-10 23 -10 43q10 9 34 15l3 4h21l18 6h14q37 -2 52 -4l1 23l4 16l-4 11l4 30l-31 15l-4 -4h-3l-24 4l-42 -1q-28 10 -44 39v4
q0 24 134 29l14 -4v4q4 113 27 113zM253 326h14q44 -71 70 -101l28 -31l45 111l10 11q56 0 56 -28l125 -153v-7q-23 -35 -38 -35q-25 7 -94 101q-28 26 -28 35q-97 -139 -108 -181l-38 -14h-7l-7 7q0 17 49 90l-70 112h-3l-28 -80q-2 -24 -35 -56q-21 7 -24 17v18q7 8 7 24
l10 4l-3 3v10q24 42 49 112h3l-3 3v4z" />
    <glyph glyph-name="uniACBD" unicode="&#xacbd;" horiz-adv-x="569" 
d="M28 604l56 -5l14 5v-5l4 5q122 0 151 -42l2 -34l-25 -110l-9 -58v-14q0 -13 -33 -19l-32 19l-5 4v14q0 60 19 142q-8 32 -23 32l-5 -4l-14 4l-58 -4q-34 0 -70 37v5q14 28 28 28zM493 739h7q43 -3 41 -100v-20l2 -45l1 -29v-46l-3 -4l3 -4l-4 -50l4 -4q0 -66 -11 -86
l4 -3v-4q-5 -12 -11 -12l4 -4v-4q-12 -13 -33 -17q-14 6 -23 24q-9 20 -13 31v21l1 25l-12 1q-23 -5 -50 -7q-18 -6 -44 -6h-6l-4 4l-3 -4h-14q-10 23 -10 43q10 9 34 15l3 4h21l18 6h14q37 -2 52 -4l1 23l4 16l-4 11l4 30l-31 15l-4 -4h-3l-24 4l-42 -1q-28 10 -44 39v4
q0 24 134 29l14 -4v4q4 113 27 113zM442 254q26 0 43 -48v-29q-23 -60 -87 -105l-62 -10q-28 0 -48 48q0 53 149 144h5zM341 139v-14q2 -10 24 -20q39 0 57 63v5l-4 33q-59 -33 -77 -67z" />
    <glyph glyph-name="uniACC1" unicode="&#xacc1;" horiz-adv-x="575" 
d="M28 633l56 -5l14 5v-5l4 5q122 0 151 -42l2 -34l-25 -110l-9 -58v-14q0 -13 -33 -19l-32 19l-5 4v14q0 60 19 142q-8 32 -23 32l-5 -4l-14 4l-58 -4q-34 0 -70 37v5q14 28 28 28zM493 768h7q43 -3 41 -100v-20l2 -45l1 -29v-46l-3 -4l3 -4l-4 -50l4 -4q0 -66 -11 -86
l4 -3v-4q-5 -12 -11 -12l4 -4v-4q-12 -13 -33 -17q-14 6 -23 24q-9 20 -13 31v21l1 25l-12 1q-23 -5 -50 -7q-18 -6 -44 -6h-6l-4 4l-3 -4h-14q-10 23 -10 43q10 9 34 15l3 4h21l18 6h14q37 -2 52 -4l1 23l4 16l-4 11l4 30l-31 15l-4 -4h-3l-24 4l-42 -1q-28 10 -44 39v4
q0 24 134 29l14 -4v4q4 113 27 113zM338 317l28 -4h88q13 0 28 -12q-4 -36 -20 -36l-76 4l-20 -4l4 -12l-4 -10l4 -16l-4 -4v-4l8 -16q9 7 108 12l4 -4h4l20 4q40 -12 40 -20l-4 -4l4 -4v-12l-24 -20q-144 15 -144 28v-4l20 -66h16l20 -4l48 8q32 -6 32 -16v-8
q0 -56 -116 -56l-16 -4q-29 0 -56 130h4q-12 42 -24 138q12 12 28 12v4z" />
    <glyph glyph-name="uniACC4" unicode="&#xacc4;" horiz-adv-x="728" 
d="M29 630l146 -20l29 7q110 -15 110 -66q-175 -265 -175 -356q-26 0 -51 -26l-22 26v33q0 34 105 267l17 42l-64 14l-58 13l-8 -6h-7q-51 15 -51 26q10 46 29 46zM511 686h6q34 0 44 -204v-20l-4 -3l4 -4v-3q-4 -51 -14 -90l4 -4q-10 -90 -20 -123l3 -4q-5 -26 -10 -26
l3 -4v-3q-6 -27 -16 -27q-54 0 -54 47q4 50 10 50l-3 4v3q8 51 16 67l-3 3l7 97l-4 10l4 33l-30 14l-4 -3h-3l-23 3l-81 -10q-27 9 -43 33v4q0 20 170 33l14 -3v3q5 127 27 127zM676 678q15 -15 15 -109h-4l8 -31l-4 -4l8 -19l-4 -4v-4l4 -11l-4 -20l4 -12h-4l8 -11l-4 -20
v-124l-4 -23l4 -12l-4 -19l4 -12q-11 -128 -27 -128h-8q-42 0 -47 38l4 55v23l4 4l-4 4l4 19v39l4 4l-4 4v4l27 214l-7 50l7 62l-3 32zM470 372l4 -3v-7q0 -24 -74 -54q-35 -16 -53 -16l-20 20v16q0 28 143 44z" />
    <glyph glyph-name="uniACC8" unicode="&#xacc8;" horiz-adv-x="613" 
d="M28 583l56 -5l14 5v-5l4 5q102 0 131 -42l2 -34l-25 -110l-9 -58v-14q0 -13 -33 -19l-32 19l-5 4v14q0 60 19 142q-8 32 -23 32l-5 -4l-14 4l-38 -4q-34 0 -70 37v5q14 28 28 28zM307 265h4q35 -12 35 -82q0 -37 65 -43l4 4h4l5 -4h4l78 8l4 -4v-8q0 -57 -82 -57
q0 -8 -74 -8h-8l-5 4l-4 -4h-4q-19 0 -35 73h5l-5 4v5l-4 103zM530 729h16q15 0 31 -48l-3 -24l4 -4v-4l-3 -32l5 -4v-4l-7 -36l4 -4l2 -32l-4 -4l4 -4l1 -28l-3 -28l4 -4l1 -24l6 -24l-4 -4l3 -18l-4 -17q-1 -29 -29 -39q-18 0 -37 -6h-12v48q2 32 7 32l-5 12l9 128l-4 4v4
l8 16l-5 4l12 108l-4 4l-1 24zM421 679q28 -14 29 -52l-4 -4l-1 -4l6 -20l-1 -22q-1 -43 -3 -118l-1 -16l-5 -16l3 -66l-4 -4v-4l4 -4l-1 -4l-5 -20l8 -8l-1 -12l-17 -14l-42 -2q-8 0 -15 14l6 22l-6 44l10 26l-4 4l2 20l5 16l-3 12l4 4l-3 40l6 20q-25 0 -67 -3l-32 7
l-12 42l5 16l110 2v4l6 20l1 60l-8 8q1 9 30 12zM369 432l3 -4l-1 -6q-7 -29 -58 -41q-16 1 -32 4l-15 23l2 16q5 28 101 8z" />
    <glyph glyph-name="uniACCC" unicode="&#xaccc;" horiz-adv-x="613" 
d="M28 664l56 -5l14 5v-5l4 5q102 0 131 -42l2 -34l-25 -110l-9 -58v-14q0 -13 -33 -19l-32 19l-5 4v14q0 60 19 142q-8 32 -23 32l-5 -4l-14 4l-38 -4q-34 0 -70 37v5q14 28 28 28zM530 810h16q15 0 31 -48l-3 -24l4 -4v-4l-3 -32l5 -4v-4l-7 -36l4 -4l2 -32l-4 -4l4 -4
l1 -28l-3 -28l4 -4l1 -24l6 -24l-4 -4l3 -18l-4 -17q-1 -29 -29 -39q-18 0 -37 -6h-12v48q2 32 7 32l-5 12l9 128l-4 4v4l8 16l-5 4l12 108l-4 4l-1 24zM421 760q28 -14 29 -52l-4 -4l-1 -4l6 -20l-1 -22q-1 -43 -3 -118l-1 -16l-5 -16l3 -66l-4 -4v-4l4 -4l-1 -4l-5 -20
l8 -8l-1 -12l-17 -14l-42 -2q-8 0 -15 14l6 22l-6 44l10 26l-4 4l2 20l5 16l-3 12l4 4l-3 40l6 20q-25 0 -67 -3l-32 7l-12 42l5 16l110 2v4l6 20l1 60l-8 8q1 9 30 12zM369 513l3 -4l-1 -6q-7 -29 -58 -41q-16 1 -32 4l-15 23l2 16q5 28 101 8zM453 336l62 -13l10 -16
l-7 -43l7 -6l-4 -3l7 -39q0 -40 -107 -49l-75 -36q-15 0 -23 -59q32 -13 49 -13l19 4l4 -4h3l19 4h20l13 -13v-7q0 -6 -10 -6l3 -17l-19 -16h-20l-107 -13q-30 0 -36 59l7 16l-4 3l7 29l-3 10l19 42q51 43 72 43v-3l88 32v-3q32 14 32 32v23q0 27 -52 23h-10l-19 -4l-10 4
l-36 -10q-19 18 -19 23q5 26 120 26z" />
    <glyph glyph-name="uniACD5" unicode="&#xacd5;" horiz-adv-x="613" 
d="M28 613l56 -5l14 5v-5l4 5q102 0 131 -42l2 -34l-25 -110l-9 -58v-14q0 -13 -33 -19l-32 19l-5 4v14q0 60 19 142q-8 32 -23 32l-5 -4l-14 4l-38 -4q-34 0 -70 37v5q14 28 28 28zM530 759h16q15 0 31 -48l-3 -24l4 -4v-4l-3 -32l5 -4v-4l-7 -36l4 -4l2 -32l-4 -4l4 -4
l1 -28l-3 -28l4 -4l1 -24l6 -24l-4 -4l3 -18l-4 -17q-1 -29 -29 -39q-18 0 -37 -6h-12v48q2 32 7 32l-5 12l9 128l-4 4v4l8 16l-5 4l12 108l-4 4l-1 24zM421 709q28 -14 29 -52l-4 -4l-1 -4l6 -20l-1 -22q-1 -43 -3 -118l-1 -16l-5 -16l3 -66l-4 -4v-4l4 -4l-1 -4l-5 -20
l8 -8l-1 -12l-17 -14l-42 -2q-8 0 -15 14l6 22l-6 44l10 26l-4 4l2 20l5 16l-3 12l4 4l-3 40l6 20q-25 0 -67 -3l-32 7l-12 42l5 16l110 2v4l6 20l1 60l-8 8q1 9 30 12zM369 462l3 -4l-1 -6q-7 -29 -58 -41q-16 1 -32 4l-15 23l2 16q5 28 101 8zM328 328h8q12 -4 23 -26
l-8 -63l3 -4v-3l-3 -13l8 -7l3 4h5l31 -2l44 2h38v13q0 43 -12 73l19 16q31 0 42 -20v-23l-3 -12l3 -5l-3 -9l9 -47l9 -43l8 -55v-3q-16 -43 -34 -43v3q-12 -6 -38 -6l-46 -4l-39 -2q-21 0 -48 -7q-38 4 -38 29v4l-1 16q-2 14 -4 59l-6 36l3 49l4 4l-4 4v3l4 3l-4 3v3l4 3
l-4 14q0 41 27 56zM396 173q-41 0 -45 -14l8 -6l-8 -16l8 -6v-11l-5 -22v-7q130 0 130 16l4 37l-8 29l-16 3l-4 -3h-64z" />
    <glyph glyph-name="uniACD7" unicode="&#xacd7;" horiz-adv-x="613" 
d="M28 620l56 -5l14 5v-5l4 5q102 0 131 -42l2 -34l-25 -110l-9 -58v-14q0 -13 -33 -19l-32 19l-5 4v14q0 60 19 142q-8 32 -23 32l-5 -4l-14 4l-38 -4q-34 0 -70 37v5q14 28 28 28zM530 766h16q15 0 31 -48l-3 -24l4 -4v-4l-3 -32l5 -4v-4l-7 -36l4 -4l2 -32l-4 -4l4 -4
l1 -28l-3 -28l4 -4l1 -24l6 -24l-4 -4l3 -18l-4 -17q-1 -29 -29 -39q-18 0 -37 -6h-12v48q2 32 7 32l-5 12l9 128l-4 4v4l8 16l-5 4l12 108l-4 4l-1 24zM421 716q28 -14 29 -52l-4 -4l-1 -4l6 -20l-1 -22q-1 -43 -3 -118l-1 -16l-5 -16l3 -66l-4 -4v-4l4 -4l-1 -4l-5 -20
l8 -8l-1 -12l-17 -14l-42 -2q-8 0 -15 14l6 22l-6 44l10 26l-4 4l2 20l5 16l-3 12l4 4l-3 40l6 20q-25 0 -67 -3l-32 7l-12 42l5 16l110 2v4l6 20l1 60l-8 8q1 9 30 12zM369 469l3 -4l-1 -6q-7 -29 -58 -41q-16 1 -32 4l-15 23l2 16q5 28 101 8zM362 286h16q48 -80 108 -152
l12 -36q-12 0 -12 -32l-20 -8q-20 3 -72 88q-19 44 -28 44l-32 -92q-3 -27 -40 -64q-25 8 -28 20v20q8 9 8 28l12 4l-4 4v12q28 48 56 128h4l-4 4v4z" />
    <glyph glyph-name="uniACE0" unicode="&#xace0;" horiz-adv-x="487" 
d="M132 497q44 -4 49 -98q11 -58 22 -75l-4 -3l-1 -4q3 -68 19 -69q148 7 224 1l21 -6l-2 -21l-6 -5l5 -4v-4l-11 -12l4 -5l-1 -12q-1 -12 -17 -11l-21 6l-153 -3l-3 5h-4l-184 -25q-1 -9 -47 -9l-22 36l1 8q3 21 10 20l-4 5v4q1 6 32 14l20 -6l65 11l-4 22l5 -1l-13 168
l5 -1l-4 5l4 46q5 24 15 23zM136 658l48 -4l12 4v-4l4 4q95 0 120 -36l-24 -120l4 -4l-8 -80v-12q0 -10 -28 -16l-28 16l-4 4v12q0 82 16 152q-6 28 -20 28l-4 -4l-12 4l-40 -4q-29 0 -60 32v4q12 24 24 24z" />
    <glyph glyph-name="uniACE1" unicode="&#xace1;" horiz-adv-x="484" 
d="M327 295l35 -2l20 -3l5 5h26q22 0 46 -26q-52 -81 -120 -230l-21 -13q-38 4 -38 16v5q0 17 77 171v21h-30l-42 -3v3l-53 -8h-21q-36 -5 -72 -26h-5q-25 0 -38 31q0 42 123 42q0 6 108 17zM113 584q44 0 47 -54q17 -36 21 -45l4 -11v-4q9 -37 25 -37q147 21 223 21l21 -4
v-21l-5 -5l5 -4v-4l-9 -13l4 -4v-12q0 -13 -16 -13l-21 4l-152 -17l-4 5h-4l-181 -42q0 -9 -46 -13l-25 34v8q1 21 8 21l11 9l18 10l18 2l63 17l-5 21v18l-5 33l-3 25l-5 4v46q3 25 13 25zM124 775l48 -4l12 4v-4l4 4q95 0 120 -36l-11 -78l-9 -26l-8 -80v-12q0 -10 -28 -16
l-28 16l-4 4v12q0 82 16 122q-6 28 -20 28l-4 -4l-12 4l-40 -4q-29 0 -60 42v4q12 24 24 24z" />
    <glyph glyph-name="uniACE4" unicode="&#xace4;" horiz-adv-x="479" 
d="M113 561q44 0 47 -54q17 -36 21 -45l4 -11v-4q9 -37 25 -37q147 21 223 21l21 -4v-21l-5 -5l5 -4v-4l-9 -13l4 -4v-12q0 -13 -16 -13l-21 4l-152 -17l-4 5h-4l-181 -42q0 -9 -46 -13l-25 34v8q1 21 8 21l11 9l18 10l18 2l63 17l-5 21v18l-5 33l-3 25l-5 4v46q3 25 13 25z
M124 752l48 -4l12 4v-4l4 4q95 0 120 -36l-11 -78l-9 -26l-8 -80v-12q0 -10 -28 -16l-28 16l-4 4v12q0 82 16 122q-6 28 -20 28l-4 -4l-12 4l-40 -4q-29 0 -60 42v4q12 24 24 24zM167 242h4q35 -12 35 -82q0 -37 65 -43l4 4h4l5 -4h4l78 8l4 -4v-8q0 -57 -82 -57
q0 -8 -74 -8h-8l-5 4l-4 -4h-4q-19 0 -35 73h5l-5 4v5l-4 103z" />
    <glyph glyph-name="uniACE7" unicode="&#xace7;" horiz-adv-x="479" 
d="M113 556q44 0 47 -54q17 -36 21 -45l4 -11v-4q9 -37 25 -37q147 21 223 21l21 -4v-21l-5 -5l5 -4v-4l-9 -13l4 -4v-12q0 -13 -16 -13l-21 4l-152 -17l-4 5h-4l-181 -42q0 -9 -46 -13l-25 34v8q1 21 8 21l11 9l18 10l18 2l63 17l-5 21v18l-5 33l-3 25l-5 4v46q3 25 13 25z
M124 747l48 -4l12 4v-4l4 4q95 0 120 -36l-11 -78l-9 -26l-8 -80v-12q0 -10 -28 -16l-28 16l-4 4v12q0 82 16 122q-6 28 -20 28l-4 -4l-12 4l-40 -4q-29 0 -60 42v4q12 24 24 24zM239 261l16 -5h56l4 -4l3 4h30q36 0 36 -40l-20 -27l-36 4l-86 -4q-12 -4 -26 -32
q0 -48 53 -54l16 -5l3 5h4l128 9l10 -36q-7 -18 -115 -18h-33l-23 -5v5l-4 -5h-32q-37 22 -37 68l-26 95q8 40 36 40v-4l4 4h29z" />
    <glyph glyph-name="uniACE8" unicode="&#xace8;" horiz-adv-x="479" 
d="M113 626q44 0 47 -54q17 -36 21 -45l4 -11v-4q9 -37 25 -37q147 21 223 21l21 -4v-21l-5 -5l5 -4v-4l-9 -13l4 -4v-12q0 -13 -16 -13l-21 4l-152 -17l-4 5h-4l-181 -42q0 -9 -46 -13l-25 34v8q1 21 8 21l11 9l18 10l18 2l63 17l-5 21v18l-5 33l-3 25l-5 4v46q3 25 13 25z
M124 817l48 -4l12 4v-4l4 4q95 0 120 -36l-11 -78l-9 -26l-8 -80v-12q0 -10 -28 -16l-28 16l-4 4v12q0 82 16 122q-6 28 -20 28l-4 -4l-12 4l-40 -4q-29 0 -60 42v4q12 24 24 24zM273 329l62 -13l10 -16l-7 -43l7 -6l-4 -3l7 -39q0 -40 -107 -49l-75 -36q-15 0 -23 -59
q32 -13 49 -13l19 4l4 -4h3l19 4h20l13 -13v-7q0 -6 -10 -6l3 -17l-19 -16h-20l-107 -13q-30 0 -36 59l7 16l-4 3l7 29l-3 10l19 42q51 43 72 43v-3l88 32v-3q32 14 32 32v23q-16 23 -52 23h-10l-19 -4l-19 -4l-27 8q-19 8 -19 13q5 26 120 26z" />
    <glyph glyph-name="uniACEA" unicode="&#xacea;" horiz-adv-x="510" 
d="M113 613q44 0 47 -54q17 -36 21 -45l4 -11v-4q9 -37 25 -37q147 21 223 21l21 -4v-21l-5 -5l5 -4v-4l-9 -13l4 -4v-12q0 -13 -16 -13l-21 4l-152 -17l-4 5h-4l-181 -42q0 -9 -46 -13l-25 34v8q1 21 8 21l11 9l18 10l18 2l63 17l-5 21v18l-5 33l-3 25l-5 4v46q3 25 13 25z
M124 804l48 -4l12 4v-4l4 4q95 0 120 -36l-11 -78l-9 -26l-8 -80v-12q0 -10 -28 -16l-28 16l-4 4v12q0 82 16 122q-6 28 -20 28l-4 -4l-12 4l-40 -4q-29 0 -60 42v4q12 24 24 24zM184 318l79 -3l17 -17v-17q-8 -10 -11 -35h-3l3 -3q0 -73 -44 -92q-30 0 -82 -48l-3 -4v-3
l3 -10q-10 -4 -10 -21l10 -7h3l93 18l6 -28q-44 -36 -136 -51q-24 9 -24 44v24q0 60 65 86q65 38 65 68l3 14l-3 10h3q0 38 -34 38v3l-10 -3l-33 -4q-29 -8 -57 -27l-6 -7h-4q-21 11 -34 34l10 27h7q7 0 48 4zM335 318l41 -3h41q45 0 51 -89l17 -62q-33 -37 -86 -37l-71 -34
h-11l-17 17v10l4 3l-7 17l3 35v37q10 65 35 106zM331 205l7 -61q85 36 85 51q0 64 -37 72q-48 0 -48 -24z" />
    <glyph glyph-name="uniACEC" unicode="&#xacec;" horiz-adv-x="528" 
d="M113 595q44 0 47 -54q17 -36 21 -45l4 -11v-4q9 -37 25 -37q147 21 223 21l21 -4v-21l-5 -5l5 -4v-4l-9 -13l4 -4v-12q0 -13 -16 -13l-21 4l-152 -17l-4 5h-4l-181 -42q0 -9 -46 -13l-25 34v8q1 21 8 21l11 9l18 10l18 2l63 17l-5 21v18l-5 33l-3 25l-5 4v46q3 25 13 25z
M124 786l48 -4l12 4v-4l4 4q95 0 120 -36l-11 -78l-9 -26l-8 -80v-12q0 -10 -28 -16l-28 16l-4 4v12q0 82 16 122q-6 28 -20 28l-4 -4l-12 4l-40 -4q-29 0 -60 42v4q12 24 24 24zM326 314q55 0 55 -30l122 -162v-8q-23 -37 -37 -37q-24 7 -92 107q-27 28 -27 37
q-95 -147 -106 -192l-37 -15h-7l-7 8q3 21 21 48q53 88 102 218q0 11 13 26zM226 316q28 -8 29 -16v-6q-20 -104 -32 -104q0 -18 -101 -32l-3 -3q-19 0 -29 -36l3 -13l-3 -3l23 -3h3l23 3v-3l22 6q15 -5 23 -19v-10q0 -29 -20 -29l-3 3l-16 -3h-13l-52 -3q-32 13 -32 45l3 3
l-3 16v10q0 71 65 71v-3q77 23 77 42l10 39l-10 19h-19l-13 -3l-3 3q-63 -16 -88 -16v16q25 29 159 29z" />
    <glyph glyph-name="uniACEF" unicode="&#xacef;" horiz-adv-x="527" 
d="M113 597q44 0 47 -54q17 -36 21 -45l4 -11v-4q9 -37 25 -37q147 21 223 21l21 -4v-21l-5 -5l5 -4v-4l-9 -13l4 -4v-12q0 -13 -16 -13l-21 4l-152 -17l-4 5h-4l-181 -42q0 -9 -46 -13l-25 34v8q1 21 8 21l11 9l18 10l18 2l63 17l-5 21v18l-5 33l-3 25l-5 4v46q3 25 13 25z
M124 788l48 -4l12 4v-4l4 4q95 0 120 -36l-11 -78l-9 -26l-8 -80v-12q0 -10 -28 -16l-28 16l-4 4v12q0 82 16 122q-6 28 -20 28l-4 -4l-12 4l-40 -4q-29 0 -60 42v4q12 24 24 24zM230 320q24 0 32 -24l-8 -24l4 -20l-4 -4l4 -20v-24l-40 -32h-4l-4 4l-76 -36l-12 -32l12 -20
l64 12q20 -5 20 -12l-8 -8l4 -4v-4q0 -24 -132 -40q-12 21 -12 40l4 4l-4 4v8l4 4l-4 4q0 69 60 92l60 32v20l4 4q0 20 -20 32q-49 -13 -110 -36h-4l-20 20q0 28 64 36q0 15 126 24zM358 356h4q20 -13 38 -50v-34q0 -6 -30 -20h-8q-17 38 -17 71v20zM293 241l21 -4l4 4
l21 -4h13q150 -9 150 -29q-9 -46 -21 -46h-25l-4 4l-4 -4h-4l-122 12l-33 -4l-21 29v4q0 38 25 38zM391 141q34 0 38 -46q-7 0 -21 -46q-20 -20 -67 -38h-21q-22 0 -29 17q0 38 100 113zM329 53l4 -4h16q42 5 42 42l-8 16q-54 -30 -54 -54z" />
    <glyph glyph-name="uniACF0" unicode="&#xacf0;" horiz-adv-x="479" 
d="M113 577q44 0 47 -54q17 -36 21 -45l4 -11v-4q9 -37 25 -37q147 21 223 21l21 -4v-21l-5 -5l5 -4v-4l-9 -13l4 -4v-12q0 -13 -16 -13l-21 4l-152 -17l-4 5h-4l-181 -42q0 -9 -46 -13l-25 34v8q1 21 8 21l11 9l18 10l18 2l63 17l-5 21v18l-5 33l-3 25l-5 4v46q3 25 13 25z
M124 768l48 -4l12 4v-4l4 4q95 0 120 -36l-11 -78l-9 -26l-8 -80v-12q0 -10 -28 -16l-28 16l-4 4v12q0 82 16 122q-6 28 -20 28l-4 -4l-12 4l-40 -4q-29 0 -60 42v4q12 24 24 24zM368 264h20q36 0 48 -32l-4 -16l8 -8l-4 -4v-4l12 -48l-24 -16l-28 -20h-20
q-112 -21 -112 -36q-53 -30 -68 -48q-9 0 -16 52h4l-4 4v120l4 4l-4 12q3 14 24 24l4 -4h4l24 8l16 -4q51 16 116 16zM236 206v-18l4 -14l-4 -3v-4l7 -45l137 49q0 41 -21 45v4l-4 -4h-3l-35 4q-54 0 -81 -14z" />
    <glyph glyph-name="uniACF1" unicode="&#xacf1;" horiz-adv-x="479" 
d="M113 602q44 0 47 -54q17 -36 21 -45l4 -11v-4q9 -37 25 -37q147 21 223 21l21 -4v-21l-5 -5l5 -4v-4l-9 -13l4 -4v-12q0 -13 -16 -13l-21 4l-152 -17l-4 5h-4l-181 -42q0 -9 -46 -13l-25 34v8q1 21 8 21l11 9l18 10l18 2l63 17l-5 21v18l-5 33l-3 25l-5 4v46q3 25 13 25z
M124 793l48 -4l12 4v-4l4 4q95 0 120 -36l-11 -78l-9 -26l-8 -80v-12q0 -10 -28 -16l-28 16l-4 4v12q0 82 16 122q-6 28 -20 28l-4 -4l-12 4l-40 -4q-29 0 -60 42v4q12 24 24 24zM358 311q26 -19 29 -37q-9 0 -43 -134l-8 -49q-4 -24 -40 -25q-24 0 -26 34l6 12l-2 15l11 16
l-2 9l9 6q1 7 -30 12v3l-4 -3h-24l-20 3l-3 -18q4 -92 28 -92q70 -12 73 -18l-1 -6l-29 -31h-20q-92 0 -88 24q-17 109 -22 221h4l-4 3l3 15q1 8 17 9q15 0 32 -27l-5 -3v-3q1 -46 20 -46l83 -6q25 54 35 113l5 3h16z" />
    <glyph glyph-name="uniACF3" unicode="&#xacf3;" horiz-adv-x="479" 
d="M113 578q44 0 47 -54q17 -36 21 -45l4 -11v-4q9 -37 25 -37q147 21 223 21l21 -4v-21l-5 -5l5 -4v-4l-9 -13l4 -4v-12q0 -13 -16 -13l-21 4l-152 -17l-4 5h-4l-181 -42q0 -9 -46 -13l-25 34v8q1 21 8 21l11 9l18 10l18 2l63 17l-5 21v18l-5 33l-3 25l-5 4v46q3 25 13 25z
M124 769l48 -4l12 4v-4l4 4q95 0 120 -36l-11 -78l-9 -26l-8 -80v-12q0 -10 -28 -16l-28 16l-4 4v12q0 82 16 122q-6 28 -20 28l-4 -4l-12 4l-40 -4q-29 0 -60 42v4q12 24 24 24zM242 283h16q48 -80 108 -152l12 -36q-12 0 -12 -32l-20 -8q-20 3 -72 88q-19 44 -28 44
l-32 -92q-3 -27 -40 -64q-25 8 -28 20v20q8 9 8 28l12 4l-4 4v12q28 48 56 128h4l-4 4v4z" />
    <glyph glyph-name="uniACF5" unicode="&#xacf5;" horiz-adv-x="479" 
d="M113 558q44 0 47 -54q17 -36 21 -45l4 -11v-4q9 -37 25 -37q147 21 223 21l21 -4v-21l-5 -5l5 -4v-4l-9 -13l4 -4v-12q0 -13 -16 -13l-21 4l-152 -17l-4 5h-4l-181 -42q0 -9 -46 -13l-25 34v8q1 21 8 21l11 9l18 10l18 2l63 17l-5 21v18l-5 33l-3 25l-5 4v46q3 25 13 25z
M124 749l48 -4l12 4v-4l4 4q95 0 120 -36l-11 -78l-9 -26l-8 -80v-12q0 -10 -28 -16l-28 16l-4 4v12q0 82 16 122q-6 28 -20 28l-4 -4l-12 4l-40 -4q-29 0 -60 42v4q12 24 24 24zM332 243q26 0 43 -48v-29q-23 -60 -87 -105l-62 -10q-28 0 -48 48q0 53 149 144h5zM231 128
v-14q2 -10 24 -20q39 0 57 63v5l-4 33q-59 -33 -77 -67z" />
    <glyph glyph-name="uniACF6" unicode="&#xacf6;" horiz-adv-x="545" 
d="M113 642q44 0 47 -54q17 -36 21 -45l4 -11v-4q9 -37 25 -37q147 21 223 21l21 -4v-21l-5 -5l5 -4v-4l-9 -13l4 -4v-12q0 -13 -16 -13l-21 4l-152 -17l-4 5h-4l-181 -42q0 -9 -46 -13l-25 34v8q1 21 8 21l11 9l18 10l18 2l63 17l-5 21v18l-5 33l-3 25l-5 4v46q3 25 13 25z
M124 833l48 -4l12 4v-4l4 4q95 0 120 -36l-11 -78l-9 -26l-8 -80v-12q0 -10 -28 -16l-28 16l-4 4v12q0 82 16 122q-6 28 -20 28l-4 -4l-12 4l-40 -4q-29 0 -60 42v4q12 24 24 24zM148 332q132 0 132 -32v-8l-48 -100h4l16 4q22 0 128 -60q4 -9 96 -68l44 -40v-12
q-24 -19 -28 -40l-20 -8l-40 20l-72 60l-32 28l-64 60q-32 25 -32 52h-4q-32 -40 -64 -104l-20 -16l-4 4h-4l-12 -12h-16l-4 4h-4q0 26 84 152l32 60v16h-8v4l-4 -4h-12l-4 4l-16 -8q-27 10 -32 28z" />
    <glyph glyph-name="uniACFC" unicode="&#xacfc;" horiz-adv-x="718" 
d="M465 737h4l42 -44l-4 -31v-26l4 -18l-9 -31q9 -45 9 -141v-9l-4 -4l4 -5v-26l-4 -4l4 -5v-4l-9 -58l5 -212q-21 -39 -47 -57h-9q-14 0 -23 49h-5l5 44v35l-5 18l5 17l-5 5v4l5 5l-5 30v5l5 18l-5 4l5 22v31l-5 18l14 88l-5 18h5l-5 4v9q1 22 10 22l-5 4l19 199l-5 4v5
q7 17 14 17zM153 393q42 -14 42 -28q0 -67 19 -109l130 30q19 -21 19 -32l-5 -5v-5l5 -18v-5q0 -19 -93 -37l-5 5l-232 -47l-33 33v41l14 14h9l5 -4q121 7 121 30l-5 5v23v9v5l-5 90l5 5h9zM548 525q145 -17 145 -33l-5 -4l5 -5v-5q-7 -41 -28 -41q-83 0 -130 65q5 23 13 23
zM86 656l56 -5l14 5v-5l4 5q122 0 151 -42l-27 -140l4 -4l-9 -58v-14q0 -13 -33 -19l-32 19l-5 4v14q0 60 19 142q-8 33 -23 33l-5 -5l-14 5l-58 -5q-34 0 -70 37v5q14 28 28 28z" />
    <glyph glyph-name="uniACFD" unicode="&#xacfd;" horiz-adv-x="672" 
d="M437 292l35 -2l20 -3l5 5h26q22 0 46 -26q-52 -81 -120 -230l-21 -13q-38 4 -38 16v5q0 17 77 171v21h-30l-42 -3v3l-53 -8h-21q-36 -5 -72 -26h-5q-25 0 -38 31q0 42 123 42q0 6 108 17zM113 571q44 0 47 -54q17 -36 21 -45l4 -11v-4q9 -37 25 -37q107 21 163 21l21 -4
v-21l-5 -5l5 -4v-4l-9 -13l4 -4v-12q0 -13 -16 -13l-21 4l-92 -17l-4 5h-4l-181 -42q0 -9 -46 -13l-25 34v8q1 21 8 21l11 9l18 10l18 2l63 17l-5 21v18l-5 33l-3 25l-5 4v46q3 25 13 25zM124 732l48 -4l12 4v-4l4 4q95 0 120 -36l-11 -78l-9 -26l-8 -80v-12q0 -10 -28 -16
l-28 16l-4 4v12q0 82 16 122q-6 28 -20 28l-4 -4l-12 4l-40 -4q-29 0 -60 42v4q12 24 24 24zM519 777q15 0 26 -46l-31 -132l5 -5l-15 -140l5 -5v-45l-5 -21l5 -20q-11 0 -11 -21l-5 -4h-5l-4 4l-16 -4q-36 0 -36 66l6 25l-6 5q1 40 14 99l10 70l27 154zM539 645l21 -5l4 5
q52 -7 83 -37v-20q-7 -20 -35 -20q-56 17 -82 72l4 5h5z" />
    <glyph glyph-name="uniAD00" unicode="&#xad00;" horiz-adv-x="740" 
d="M480 839h5l43 -48l-5 -33v-29l5 -19l-10 -34q10 -49 10 -154v-9l-5 -5l5 -5v-29l-5 -4l5 -5v-5l-10 -62l5 -231q-21 -42 -48 -62h-9q-15 0 -24 53h-5l5 48v38l-5 19l5 19l-5 5v5l5 5l-5 33v5l5 19l-5 5l5 24v34l-5 19l14 96l-5 19h5l-5 5v10q2 24 10 24l-5 4l19 216l-4 5
v5zM182 487q44 -38 44 -53q0 -41 19 -84l110 19q19 -22 19 -34l-4 -5v-4l4 -20v-4q0 -20 -96 -39l-4 5l-240 -48l-34 34v43l14 14h10l5 -5q149 20 149 44l-5 4v24l5 5l-5 5v5l-5 89l5 5h9zM566 354q149 -16 149 -33l-5 -5l5 -5v-5q-7 -43 -29 -43q-85 0 -134 67q6 24 14 24z
M317 186q29 -15 29 -52h-5l5 -5v-5l-10 -38q10 0 14 -39q52 -14 87 -14l19 5l5 -5h5l33 5l19 -10l-4 -24v-10q14 0 14 -9v-10q-2 -14 -38 -14h-39l-14 5l-24 -5h-82q-33 0 -48 62l5 34v29l5 4l-5 5v5q0 53 29 86zM144 702l51 -4l13 4v-4l3 4q112 0 138 -36l-25 -120l4 -4
l-8 -50v-12q0 -11 -30 -16l-30 16l-4 4v12q0 51 17 122q-7 27 -21 27l-4 -3l-13 3l-53 -3q-31 0 -64 32v4q13 24 26 24z" />
    <glyph glyph-name="uniAD04" unicode="&#xad04;" horiz-adv-x="672" 
d="M113 612q44 0 47 -54q17 -36 21 -45l4 -11v-4q9 -37 25 -37q107 21 163 21l21 -4v-21l-5 -5l5 -4v-4l-9 -13l4 -4v-12q0 -13 -16 -13l-21 4l-92 -17l-4 5h-4l-181 -42q0 -9 -46 -13l-25 34v8q1 21 8 21l11 9l18 10l18 2l63 17l-5 21v18l-5 33l-3 25l-5 4v46q3 25 13 25z
M124 773l48 -4l12 4v-4l4 4q95 0 120 -36l-11 -78l-9 -26l-8 -80v-12q0 -10 -28 -16l-28 16l-4 4v12q0 82 16 122q-6 28 -20 28l-4 -4l-12 4l-40 -4q-29 0 -60 42v4q12 24 24 24zM519 818q15 0 26 -46l-31 -132l5 -5l-15 -140l5 -5v-45l-5 -21l5 -20q-11 0 -11 -21l-5 -4h-5
l-4 4l-16 -4q-36 0 -36 66l6 25l-6 5q1 40 14 99l10 70l27 154zM539 686l21 -5l4 5q52 -7 83 -37v-20q-7 -20 -35 -20q-56 17 -82 72l4 5h5zM413 328l62 -13l10 -16l-7 -43l7 -6l-4 -3l7 -39q0 -40 -107 -49l-75 -36q-15 0 -23 -59q32 -13 49 -13l19 4l4 -4h3l19 4h20
l13 -13v-7q0 -6 -10 -6l3 -17l-19 -16h-20l-107 -13q-30 0 -36 59l7 16l-4 3l7 29l-3 10l19 42q51 43 72 43v-3l88 32v-3q32 14 32 32v23q-16 23 -52 23h-10l-19 -4l-19 -4l-27 8q-19 8 -19 13q5 26 120 26z" />
    <glyph glyph-name="uniAD06" unicode="&#xad06;" horiz-adv-x="672" 
d="M113 594q44 0 47 -54q17 -36 21 -45l4 -11v-4q9 -37 25 -37q107 21 163 21l21 -4v-21l-5 -5l5 -4v-4l-9 -13l4 -4v-12q0 -13 -16 -13l-21 4l-92 -17l-4 5h-4l-181 -42q0 -9 -46 -13l-25 34v8q1 21 8 21l11 9l18 10l18 2l63 17l-5 21v18l-5 33l-3 25l-5 4v46q3 25 13 25z
M124 755l48 -4l12 4v-4l4 4q95 0 120 -36l-11 -78l-9 -26l-8 -80v-12q0 -10 -28 -16l-28 16l-4 4v12q0 82 16 122q-6 28 -20 28l-4 -4l-12 4l-40 -4q-29 0 -60 42v4q12 24 24 24zM519 800q15 0 26 -46l-31 -132l5 -5l-15 -140l5 -5v-45l-5 -21l5 -20q-11 0 -11 -21l-5 -4h-5
l-4 4l-16 -4q-36 0 -36 66l6 25l-6 5q1 40 14 99l10 70l27 154zM539 668l21 -5l4 5q52 -7 83 -37v-20q-7 -20 -35 -20q-56 17 -82 72l4 5h5zM284 321l79 -3l17 -17v-17q-8 -10 -11 -35h-3l3 -3q0 -73 -44 -92q-30 0 -82 -48l-3 -4v-3l3 -10q-10 -4 -10 -21l10 -7h3l93 18
l6 -28q-44 -36 -136 -51q-24 9 -24 44v24q0 60 65 86q65 38 65 68l3 14l-3 10h3q0 38 -34 38v3l-10 -3l-33 -4q-29 -8 -57 -27l-6 -7h-4q-21 11 -34 34l10 27h7q7 0 48 4zM435 321l41 -3h41q45 0 51 -89l17 -62q-33 -37 -86 -37l-71 -34h-11l-17 17v10l4 3l-7 17l3 35v37
q10 65 35 106zM431 208l7 -61q85 36 85 51q0 64 -37 72q-48 0 -48 -24z" />
    <glyph glyph-name="uniAD0C" unicode="&#xad0c;" horiz-adv-x="672" 
d="M113 570q44 0 47 -54q17 -36 21 -45l4 -11v-4q9 -37 25 -37q107 21 163 21l21 -4v-21l-5 -5l5 -4v-4l-9 -13l4 -4v-12q0 -13 -16 -13l-21 4l-92 -17l-4 5h-4l-181 -42q0 -9 -46 -13l-25 34v8q1 21 8 21l11 9l18 10l18 2l63 17l-5 21v18l-5 33l-3 25l-5 4v46q3 25 13 25z
M124 731l48 -4l12 4v-4l4 4q95 0 120 -36l-11 -78l-9 -26l-8 -80v-12q0 -10 -28 -16l-28 16l-4 4v12q0 82 16 122q-6 28 -20 28l-4 -4l-12 4l-40 -4q-29 0 -60 42v4q12 24 24 24zM519 776q15 0 26 -46l-31 -132l5 -5l-15 -140l5 -5v-45l-5 -21l5 -20q-11 0 -11 -21l-5 -4h-5
l-4 4l-16 -4q-36 0 -36 66l6 25l-6 5q1 40 14 99l10 70l27 154zM539 644l21 -5l4 5q52 -7 83 -37v-20q-7 -20 -35 -20q-56 17 -82 72l4 5h5zM421 273h21q39 0 52 -34l-5 -17l9 -9l-4 -4v-4l12 -52l-25 -17l-30 -21h-21q-120 -23 -120 -39q-57 -32 -73 -51q-10 0 -17 56h4
l-4 4v128l4 4l-4 13q3 15 26 26l4 -4h4l26 8l17 -4q54 17 124 17zM280 211v-19l4 -15l-4 -4v-3l7 -49l147 52q0 45 -23 49v4l-3 -4h-4l-38 4q-57 0 -86 -15z" />
    <glyph glyph-name="uniAD0D" unicode="&#xad0d;" horiz-adv-x="672" 
d="M113 579q44 0 47 -54q17 -36 21 -45l4 -11v-4q9 -37 25 -37q107 21 163 21l21 -4v-21l-5 -5l5 -4v-4l-9 -13l4 -4v-12q0 -13 -16 -13l-21 4l-92 -17l-4 5h-4l-181 -42q0 -9 -46 -13l-25 34v8q1 21 8 21l11 9l18 10l18 2l63 17l-5 21v18l-5 33l-3 25l-5 4v46q3 25 13 25z
M124 740l48 -4l12 4v-4l4 4q95 0 120 -36l-11 -78l-9 -26l-8 -80v-12q0 -10 -28 -16l-28 16l-4 4v12q0 82 16 122q-6 28 -20 28l-4 -4l-12 4l-40 -4q-29 0 -60 42v4q12 24 24 24zM519 785q15 0 26 -46l-31 -132l5 -5l-15 -140l5 -5v-45l-5 -21l5 -20q-11 0 -11 -21l-5 -4h-5
l-4 4l-16 -4q-36 0 -36 66l6 25l-6 5q1 40 14 99l10 70l27 154zM539 653l21 -5l4 5q52 -7 83 -37v-20q-7 -20 -35 -20q-56 17 -82 72l4 5h5zM458 319q26 -19 29 -37q-9 0 -43 -134l-8 -49q-4 -24 -40 -25q-24 0 -26 34l6 12l-2 15l11 16l-2 9l9 6q1 7 -30 12v3l-4 -3h-24
l-20 3l-3 -18q4 -92 28 -92q70 -12 73 -18l-1 -6l-29 -31h-20q-92 0 -88 24q-17 109 -22 221h4l-4 3l3 15q1 8 17 9q15 0 32 -27l-5 -3v-3q1 -46 20 -46l83 -6q25 54 35 113l5 3h16z" />
    <glyph glyph-name="uniAD0F" unicode="&#xad0f;" horiz-adv-x="672" 
d="M113 554q44 0 47 -54q17 -36 21 -45l4 -11v-4q9 -37 25 -37q107 21 163 21l21 -4v-21l-5 -5l5 -4v-4l-9 -13l4 -4v-12q0 -13 -16 -13l-21 4l-92 -17l-4 5h-4l-181 -42q0 -9 -46 -13l-25 34v8q1 21 8 21l11 9l18 10l18 2l63 17l-5 21v18l-5 33l-3 25l-5 4v46q3 25 13 25z
M124 715l48 -4l12 4v-4l4 4q95 0 120 -36l-11 -78l-9 -26l-8 -80v-12q0 -10 -28 -16l-28 16l-4 4v12q0 82 16 122q-6 28 -20 28l-4 -4l-12 4l-40 -4q-29 0 -60 42v4q12 24 24 24zM519 760q15 0 26 -46l-31 -132l5 -5l-15 -140l5 -5v-45l-5 -21l5 -20q-11 0 -11 -21l-5 -4h-5
l-4 4l-16 -4q-36 0 -36 66l6 25l-6 5q1 40 14 99l10 70l27 154zM539 628l21 -5l4 5q52 -7 83 -37v-20q-7 -20 -35 -20q-56 17 -82 72l4 5h5zM422 292h16q48 -80 108 -152l12 -36q-12 0 -12 -32l-20 -8q-20 3 -72 88q-19 44 -28 44l-32 -92q-3 -27 -40 -64q-25 8 -28 20v20
q8 9 8 28l12 4l-4 4v12q28 48 56 128h4l-4 4v4z" />
    <glyph glyph-name="uniAD11" unicode="&#xad11;" horiz-adv-x="672" 
d="M113 547q44 0 47 -54q17 -36 21 -45l4 -11v-4q9 -37 25 -37q107 21 163 21l21 -4v-21l-5 -5l5 -4v-4l-9 -13l4 -4v-12q0 -13 -16 -13l-21 4l-92 -17l-4 5h-4l-181 -42q0 -9 -46 -13l-25 34v8q1 21 8 21l11 9l18 10l18 2l63 17l-5 21v18l-5 33l-3 25l-5 4v46q3 25 13 25z
M124 708l48 -4l12 4v-4l4 4q95 0 120 -36l-11 -78l-9 -26l-8 -80v-12q0 -10 -28 -16l-28 16l-4 4v12q0 82 16 122q-6 28 -20 28l-4 -4l-12 4l-40 -4q-29 0 -60 42v4q12 24 24 24zM519 753q15 0 26 -46l-31 -132l5 -5l-15 -140l5 -5v-45l-5 -21l5 -20q-11 0 -11 -21l-5 -4h-5
l-4 4l-16 -4q-36 0 -36 66l6 25l-6 5q1 40 14 99l10 70l27 154zM539 621l21 -5l4 5q52 -7 83 -37v-20q-7 -20 -35 -20q-56 17 -82 72l4 5h5zM362 239q26 0 43 -48v-29q-23 -60 -87 -105l-62 -10q-28 0 -48 48q0 53 149 144h5zM261 124v-14q2 -10 24 -20q39 0 57 63v5l-4 33
q-59 -33 -77 -67z" />
    <glyph glyph-name="uniAD18" unicode="&#xad18;" horiz-adv-x="690" 
d="M153 393q42 -14 42 -28q0 -67 19 -109l130 30q19 -21 19 -32l-5 -5v-5l5 -18v-5q0 -19 -93 -37l-5 4l-232 -46l-33 32v42l14 14h9l5 -4q121 7 121 30l-5 4v24v9v5l-5 90l5 5h9zM86 656l56 -5l14 5v-5l4 5q122 0 151 -42l-27 -140l4 -4l-9 -58v-14q0 -13 -33 -19l-32 19
l-5 4v14q0 60 19 142q-8 32 -23 32l-5 -4l-14 4l-58 -4q-34 0 -70 37v5q14 28 28 28zM393 694h4q58 0 58 -112l9 -71l5 -58h-4l4 -4l11 -33l118 -12l10 85l8 73v13q0 33 14 36q16 0 35 -27q-4 -142 -13 -153l9 -9l-5 -5l5 -4v-5q-2 -53 -14 -53l5 -5v-13l-5 -5l5 -4v-13
l-5 -5l5 -13l-5 -5l5 -22v-52q-13 -54 -45 -54h-13q-14 0 -18 45h4l-4 4l4 120v13l-13 -4l-76 8v-4l9 -81h-4q13 -70 13 -119v-4q-9 -32 -27 -32l-27 -4q-25 27 -40 186l5 5v4q-12 29 -27 241l4 5v4l-4 5l4 22l-4 45h4l-8 49z" />
    <glyph glyph-name="uniAD1C" unicode="&#xad1c;" horiz-adv-x="646" 
d="M317 241h4q35 -12 35 -82q0 -37 65 -43l4 4h4l5 -4h4l78 8l4 -4v-8q0 -57 -82 -57q0 -8 -74 -8h-8l-5 4l-4 -4h-4q-19 0 -35 73h5l-5 4v5l-4 103zM162 475q20 -6 20 -19q0 -25 18 -64l121 28q18 -20 18 -30l-5 -5v-5l5 -16v-5q0 -18 -87 -35l-5 4l-216 -43l-31 30v39
l13 13h8l5 -3q113 6 113 28l-5 3v23l-4 32l-3 20l16 10zM90 681l52 -5l17 4l27 1q87 0 114 -39l-16 -84l4 -4l-9 -45v-13q0 -12 -31 -17l-29 17l-5 4v13q0 47 8 77q-7 30 -21 30l-5 -4l-13 4l-54 -4q-32 0 -48 6l-8 14q4 45 17 45zM367 754h4q54 0 54 -86l8 -48l5 -54h-4
l4 -3l10 -31l110 -11l10 79l7 68v12q0 31 13 34q15 0 33 -25q-4 -133 -12 -143l8 -9l-4 -4l4 -4v-5q-2 -49 -13 -49l5 -5v-12l-5 -5l5 -3v-13l-5 -4l5 -12l-5 -5l5 -21v-39q-12 -50 -42 -50h-12q-13 0 -17 42h4l-4 4l4 102v12l-13 -3l-70 7v-4l3 -42l6 -21q7 -31 7 -49v-3
q-8 -30 -25 -30l-25 -4q-23 25 -31 75l-2 29v3q-11 27 -25 207l4 4v4l-4 5l4 20l-4 42h4l-8 27z" />
    <glyph glyph-name="uniAD20" unicode="&#xad20;" horiz-adv-x="646" 
d="M443 333l62 -13l10 -16l-7 -43l7 -6l-4 -3l7 -39q0 -40 -107 -49l-75 -36q-15 0 -23 -59q32 -13 49 -13l19 4l4 -4h3l19 4h20l13 -13v-7q0 -6 -10 -6l3 -17l-19 -16h-20l-107 -13q-30 0 -36 59l7 16l-4 3l7 29l-3 10l19 42q51 43 72 43v-3l88 32v-3q32 14 32 32v23
q-16 23 -52 23h-10l-19 -4l-19 -4l-27 8q-19 8 -19 13q5 26 120 26zM162 533q20 -6 20 -19q0 -25 18 -64l121 28q18 -20 18 -30l-5 -5v-5l5 -16v-5q0 -18 -87 -35l-5 4l-216 -43l-31 30v39l13 13h8l5 -3q113 6 113 28l-5 3v23l-4 32l-3 20l16 10zM90 739l52 -5l17 4l27 1
q87 0 114 -39l-16 -84l4 -4l-9 -45v-13q0 -12 -31 -17l-29 17l-5 4v13q0 47 8 77q-7 30 -21 30l-5 -4l-13 4l-54 -4q-32 0 -48 6l-8 14q4 45 17 45zM367 812h4q54 0 54 -86l8 -48l5 -54h-4l4 -3l10 -31l110 -11l10 79l7 68v12q0 31 13 34q15 0 33 -25q-4 -133 -12 -143l8 -9
l-4 -4l4 -4v-5q-2 -49 -13 -49l5 -5v-12l-5 -5l5 -3v-13l-5 -4l5 -12l-5 -5l5 -21v-39q-12 -50 -42 -50h-12q-13 0 -17 42h4l-4 4l4 102v12l-13 -3l-70 7v-4l3 -42l6 -21q7 -31 7 -49v-3q-8 -30 -25 -30l-25 -4q-23 25 -31 75l-2 29v3q-11 27 -25 207l4 4v4l-4 5l4 20l-4 42
h4l-8 27z" />
    <glyph glyph-name="uniAD29" unicode="&#xad29;" horiz-adv-x="646" 
d="M162 505q20 -6 20 -19q0 -25 18 -64l121 28q18 -20 18 -30l-5 -5v-5l5 -16v-5q0 -18 -87 -35l-5 4l-216 -43l-31 30v39l13 13h8l5 -3q113 6 113 28l-5 3v23l-4 32l-3 20l16 10zM90 711l52 -5l17 4l27 1q87 0 114 -39l-16 -84l4 -4l-9 -45v-13q0 -12 -31 -17l-29 17l-5 4
v13q0 47 8 77q-7 30 -21 30l-5 -4l-13 4l-54 -4q-32 0 -48 6l-8 14q4 45 17 45zM367 784h4q54 0 54 -86l8 -48l5 -54h-4l4 -3l10 -31l110 -11l10 79l7 68v12q0 31 13 34q15 0 33 -25q-4 -133 -12 -143l8 -9l-4 -4l4 -4v-5q-2 -49 -13 -49l5 -5v-12l-5 -5l5 -3v-13l-5 -4
l5 -12l-5 -5l5 -21v-39q-12 -50 -42 -50h-12q-13 0 -17 42h4l-4 4l4 102v12l-13 -3l-70 7v-4l3 -42l6 -21q7 -31 7 -49v-3q-8 -30 -25 -30l-25 -4q-23 25 -31 75l-2 29v3q-11 27 -25 207l4 4v4l-4 5l4 20l-4 42h4l-8 27zM458 319q26 -19 29 -37q-9 0 -43 -134l-8 -49
q-4 -24 -40 -25q-24 0 -26 34l6 12l-2 15l11 16l-2 9l9 6q1 7 -30 12v3l-4 -3h-24l-20 3l-3 -18q4 -92 28 -92q70 -12 73 -18l-1 -6l-29 -31h-20q-92 0 -88 24q-17 109 -22 221h4l-4 3l3 15q1 8 17 9q15 0 32 -27l-5 -3v-3q1 -46 20 -46l83 -6q25 54 35 113l5 3h16z" />
    <glyph glyph-name="uniAD2C" unicode="&#xad2c;" horiz-adv-x="646" 
d="M162 506q20 -6 20 -19q0 -25 18 -64l121 28q18 -20 18 -30l-5 -5v-5l5 -16v-5q0 -18 -87 -35l-5 4l-216 -43l-31 30v39l13 13h8l5 -3q113 6 113 28l-5 3v23l-4 32l-3 20l16 10zM90 712l52 -5l17 4l27 1q87 0 114 -39l-16 -84l4 -4l-9 -45v-13q0 -12 -31 -17l-29 17l-5 4
v13q0 47 8 77q-7 30 -21 30l-5 -4l-13 4l-54 -4q-32 0 -48 6l-8 14q4 45 17 45zM367 785h4q54 0 54 -86l8 -48l5 -54h-4l4 -3l10 -31l110 -11l10 79l7 68v12q0 31 13 34q15 0 33 -25q-4 -133 -12 -143l8 -9l-4 -4l4 -4v-5q-2 -49 -13 -49l5 -5v-12l-5 -5l5 -3v-13l-5 -4
l5 -12l-5 -5l5 -21v-39q-12 -50 -42 -50h-12q-13 0 -17 42h4l-4 4l4 102v12l-13 -3l-70 7v-4l3 -42l6 -21q7 -31 7 -49v-3q-8 -30 -25 -30l-25 -4q-23 25 -31 75l-2 29v3q-11 27 -25 207l4 4v4l-4 5l4 20l-4 42h4l-8 27zM243 307h14q44 -71 70 -101l28 -31l45 111l10 11
q56 0 56 -28l125 -153v-7q-23 -35 -38 -35q-25 7 -94 101q-28 26 -28 35q-97 -139 -108 -181l-38 -14h-7l-7 7q0 17 49 90l-70 112h-3l-28 -80q-2 -24 -35 -56q-21 7 -24 17v18q7 8 7 24l10 4l-3 3v10q24 42 49 112h3l-3 3v4z" />
    <glyph glyph-name="uniAD2D" unicode="&#xad2d;" horiz-adv-x="646" 
d="M162 475q20 -6 20 -19q0 -25 18 -64l121 28q18 -20 18 -30l-5 -5v-5l5 -16v-5q0 -18 -87 -35l-5 4l-216 -43l-31 30v39l13 13h8l5 -3q113 6 113 28l-5 3v23l-4 32l-3 20l16 10zM90 681l52 -5l17 4l27 1q87 0 114 -39l-16 -84l4 -4l-9 -45v-13q0 -12 -31 -17l-29 17l-5 4
v13q0 47 8 77q-7 30 -21 30l-5 -4l-13 4l-54 -4q-32 0 -48 6l-8 14q4 45 17 45zM367 754h4q54 0 54 -86l8 -48l5 -54h-4l4 -3l10 -31l110 -11l10 79l7 68v12q0 31 13 34q15 0 33 -25q-4 -133 -12 -143l8 -9l-4 -4l4 -4v-5q-2 -49 -13 -49l5 -5v-12l-5 -5l5 -3v-13l-5 -4
l5 -12l-5 -5l5 -21v-39q-12 -50 -42 -50h-12q-13 0 -17 42h4l-4 4l4 102v12l-13 -3l-70 7v-4l3 -42l6 -21q7 -31 7 -49v-3q-8 -30 -25 -30l-25 -4q-23 25 -31 75l-2 29v3q-11 27 -25 207l4 4v4l-4 5l4 20l-4 42h4l-8 27zM362 239q26 0 43 -48v-29q-23 -60 -87 -105l-62 -10
q-28 0 -48 48q0 53 149 144h5zM261 124v-14q2 -10 24 -20q39 0 57 63v5l-4 33q-59 -33 -77 -67z" />
    <glyph glyph-name="uniAD34" unicode="&#xad34;" horiz-adv-x="526" 
d="M153 405q42 -14 42 -28q0 -67 19 -109l130 30q19 -21 19 -32l-5 -5v-5l5 -18v-5q0 -19 -93 -37l-5 4l-232 -46l-33 32v42l14 14h9l5 -4q121 7 121 30l-5 4v24v9v5l-5 90l5 5h9zM102 615l48 -4l12 4v-4l3 4q104 0 129 -35l-23 -120l3 -3l-7 -50v-12q0 -11 -29 -16l-27 16
l-4 4v11q0 52 16 122q-7 27 -20 27l-4 -3l-12 3l-49 -3q-29 0 -60 31v4q12 24 24 24zM495 478l-4 -16l7 -21l-3 -27v-6l3 -5v-6l-3 -5h3l-3 -16l6 -124l-3 -5v-6l3 -5q-1 -59 -6 -59q0 -70 -50 -70l-21 16q-7 24 -5 60l6 90l6 92v97l-4 48l4 17l-6 124h2q10 40 18 42h7
q25 0 43 -215z" />
    <glyph glyph-name="uniAD35" unicode="&#xad35;" horiz-adv-x="544" 
d="M387 301l35 -2l20 -3l5 5h26q22 0 46 -26q-52 -81 -120 -230l-21 -13q-38 4 -38 16v5q0 17 77 171v21h-30l-42 -3v3l-53 -8h-21q-36 -5 -72 -26h-5q-25 0 -38 31q0 42 123 42q0 6 108 17zM162 504q20 -6 20 -19q0 -25 18 -64l121 28q18 -20 18 -30l-5 -5v-5l5 -16v-5
q0 -18 -87 -35l-5 4l-216 -43l-31 30v39l13 13h8l5 -3q113 6 113 28l-5 3v23l-4 32l-3 20l16 10zM90 710l52 -5l17 4l27 1q87 0 114 -39l-16 -84l4 -4l-9 -45v-13q0 -12 -31 -17l-29 17l-5 4v13q0 47 8 77q-7 30 -21 30l-5 -4l-13 4l-54 -4q-32 0 -48 6l-8 14q4 45 17 45z
M485 627l-4 -16l7 -21l-3 -27v-6l3 -5v-6l-3 -5h3l-3 -16l6 -74l-3 -5v-6l3 -5q-1 -39 -6 -39q0 -52 -26 -65l-36 6q-13 37 -14 65l6 70l6 42v97l-4 48l4 17l-6 54h2q0 26 31 38l29 -15q0 -41 8 -126z" />
    <glyph glyph-name="uniAD38" unicode="&#xad38;" horiz-adv-x="516" 
d="M257 241h4q35 -12 35 -82q0 -37 65 -43l4 4h4l5 -4h4l78 8l4 -4v-8q0 -57 -82 -57q0 -8 -74 -8h-8l-5 4l-4 -4h-4q-19 0 -35 73h5l-5 4v5l-4 103zM162 475q20 -6 20 -19q0 -25 18 -64l121 28q18 -20 18 -30l-5 -5v-5l5 -16v-5q0 -18 -87 -35l-5 4l-216 -43l-31 30v39
l13 13h8l5 -3q113 6 113 28l-5 3v23l-4 32l-3 20l16 10zM90 681l52 -5l17 4l27 1q87 0 114 -39l-16 -84l4 -4l-9 -45v-13q0 -12 -31 -17l-29 17l-5 4v13q0 47 8 77q-7 30 -21 30l-5 -4l-13 4l-54 -4q-32 0 -48 6l-8 14q4 45 17 45zM485 598l-4 -16l7 -21l-3 -27v-6l3 -5v-6
l-3 -5h3l-3 -16l6 -74l-3 -5v-6l3 -5q-1 -39 -6 -39q0 -52 -26 -65l-36 6q-13 37 -14 65l6 70l6 42v97l-4 48l4 17l-6 54h2q0 26 31 38l29 -15q0 -41 8 -126z" />
    <glyph glyph-name="uniAD3C" unicode="&#xad3c;" horiz-adv-x="516" 
d="M162 544q20 -6 20 -19q0 -25 18 -64l121 28q18 -20 18 -30l-5 -5v-5l5 -16v-5q0 -18 -87 -35l-5 4l-216 -43l-31 30v39l13 13h8l5 -3q113 6 113 28l-5 3v23l-4 32l-3 20l16 10zM90 750l52 -5l17 4l27 1q87 0 114 -39l-16 -84l4 -4l-9 -45v-13q0 -12 -31 -17l-29 17l-5 4
v13q0 47 8 77q-7 30 -21 30l-5 -4l-13 4l-54 -4q-32 0 -48 6l-8 14q4 45 17 45zM485 667l-4 -16l7 -21l-3 -27v-6l3 -5v-6l-3 -5h3l-3 -16l6 -74l-3 -5v-6l3 -5q-1 -39 -6 -39q0 -52 -26 -65l-36 6q-13 37 -14 65l6 70l6 42v97l-4 48l4 17l-6 54h2q0 26 31 38l29 -15
q0 -41 8 -126zM403 337l62 -13l10 -16l-7 -43l7 -6l-4 -3l7 -39q0 -40 -107 -49l-75 -36q-15 0 -23 -59q32 -13 49 -13l19 4l4 -4h3l19 4h20l13 -13v-7q0 -6 -10 -6l3 -17l-19 -16h-20l-107 -13q-30 0 -36 59l7 16l-4 3l7 29l-3 10l19 42q51 43 72 43v-3l88 32v-3
q32 14 32 32v23q-16 23 -52 23h-10l-19 -4l-19 -4l-27 8q-19 8 -19 13q5 26 120 26z" />
    <glyph glyph-name="uniAD44" unicode="&#xad44;" horiz-adv-x="558" 
d="M162 490q20 -6 20 -19q0 -25 18 -64l121 28q18 -20 18 -30l-5 -5v-5l5 -16v-5q0 -18 -87 -35l-5 4l-216 -43l-31 30v39l13 13h8l5 -3q113 6 113 28l-5 3v23l-4 32l-3 20l16 10zM90 696l52 -5l17 4l27 1q87 0 114 -39l-16 -84l4 -4l-9 -45v-13q0 -12 -31 -17l-29 17l-5 4
v13q0 47 8 77q-7 30 -21 30l-5 -4l-13 4l-54 -4q-32 0 -48 6l-8 14q4 45 17 45zM485 613l-4 -16l7 -21l-3 -27v-6l3 -5v-6l-3 -5h3l-3 -16l6 -74l-3 -5v-6l3 -5q-1 -39 -6 -39q0 -52 -26 -65l-36 6q-13 37 -14 65l6 70l6 42v97l-4 48l4 17l-6 54h2q0 26 31 38l29 -15
q0 -41 8 -126zM454 287h21q37 0 49 -33l-3 -17l3 -4h5l-5 -4v-4l9 -54l-50 -38h-21q-178 -21 -178 -37q-55 -31 -71 -49q-7 0 -16 53h4l-4 5v124l4 4l-4 13q3 14 25 25l4 -5h5l24 9l17 -4q55 16 182 16zM234 225v-21l4 -16l-4 -5v-4l9 -54l223 58q0 49 -25 54v4l-3 -4h-4
l-104 4q-63 0 -96 -16z" />
    <glyph glyph-name="uniAD45" unicode="&#xad45;" horiz-adv-x="516" 
d="M162 513q20 -6 20 -19q0 -25 18 -64l121 28q18 -20 18 -30l-5 -5v-5l5 -16v-5q0 -18 -87 -35l-5 4l-216 -43l-31 30v39l13 13h8l5 -3q113 6 113 28l-5 3v23l-4 32l-3 20l16 10zM90 719l52 -5l17 4l27 1q87 0 114 -39l-16 -84l4 -4l-9 -45v-13q0 -12 -31 -17l-29 17l-5 4
v13q0 47 8 77q-7 30 -21 30l-5 -4l-13 4l-54 -4q-32 0 -48 6l-8 14q4 45 17 45zM485 636l-4 -16l7 -21l-3 -27v-6l3 -5v-6l-3 -5h3l-3 -16l6 -74l-3 -5v-6l3 -5q-1 -39 -6 -39q0 -52 -26 -65l-36 6q-13 37 -14 65l6 70l6 42v97l-4 48l4 17l-6 54h2q0 26 31 38l29 -15
q0 -41 8 -126zM418 327q26 -19 29 -37q-9 0 -43 -134l-8 -49q-4 -24 -40 -25q-24 0 -26 34l6 12l-2 15l11 16l-2 9l9 6q1 7 -30 12v3l-4 -3h-24l-20 3l-3 -18q4 -92 28 -92q70 -12 73 -18l-1 -6l-29 -31h-20q-92 0 -88 24q-17 109 -22 221h4l-4 3l3 15q1 8 17 9q15 0 32 -27
l-5 -3v-3q1 -46 20 -46l83 -6q25 54 35 113l5 3h16z" />
    <glyph glyph-name="uniAD47" unicode="&#xad47;" horiz-adv-x="516" 
d="M162 491q20 -6 20 -19q0 -25 18 -64l121 28q18 -20 18 -30l-5 -5v-5l5 -16v-5q0 -18 -87 -35l-5 4l-216 -43l-31 30v39l13 13h8l5 -3q113 6 113 28l-5 3v23l-4 32l-3 20l16 10zM90 697l52 -5l17 4l27 1q87 0 114 -39l-16 -84l4 -4l-9 -45v-13q0 -12 -31 -17l-29 17l-5 4
v13q0 47 8 77q-7 30 -21 30l-5 -4l-13 4l-54 -4q-32 0 -48 6l-8 14q4 45 17 45zM485 614l-4 -16l7 -21l-3 -27v-6l3 -5v-6l-3 -5h3l-3 -16l6 -74l-3 -5v-6l3 -5q-1 -39 -6 -39q0 -52 -26 -65l-36 6q-13 37 -14 65l6 70l6 42v97l-4 48l4 17l-6 54h2q0 26 31 38l29 -15
q0 -41 8 -126zM342 298h16q48 -80 108 -152l12 -36q-12 0 -12 -32l-20 -8q-20 3 -72 88q-19 44 -28 44l-32 -92q-3 -27 -40 -64q-25 8 -28 20v20q8 9 8 28l12 4l-4 4v12q28 48 56 128h4l-4 4v4z" />
    <glyph glyph-name="uniAD49" unicode="&#xad49;" horiz-adv-x="516" 
d="M162 482q20 -6 20 -19q0 -25 18 -64l121 28q18 -20 18 -30l-5 -5v-5l5 -16v-5q0 -18 -87 -35l-5 4l-216 -43l-31 30v39l13 13h8l5 -3q113 6 113 28l-5 3v23l-4 32l-3 20l16 10zM90 688l52 -5l17 4l27 1q87 0 114 -39l-16 -84l4 -4l-9 -45v-13q0 -12 -31 -17l-29 17l-5 4
v13q0 47 8 77q-7 30 -21 30l-5 -4l-13 4l-54 -4q-32 0 -48 6l-8 14q4 45 17 45zM485 605l-4 -16l7 -21l-3 -27v-6l3 -5v-6l-3 -5h3l-3 -16l6 -74l-3 -5v-6l3 -5q-1 -39 -6 -39q0 -52 -26 -65l-36 6q-13 37 -14 65l6 70l6 42v97l-4 48l4 17l-6 54h2q0 26 31 38l29 -15
q0 -41 8 -126zM362 246q26 0 43 -48v-29q-23 -60 -87 -105l-62 -10q-28 0 -48 48q0 53 149 144h5zM261 131v-14q2 -10 24 -20q39 0 57 63v5l-4 33q-59 -33 -77 -67z" />
    <glyph glyph-name="uniAD50" unicode="&#xad50;" horiz-adv-x="506" 
d="M262 645h45l4 -4l4 4h22q21 0 23 -47q-28 -59 -33 -180l-19 -12q-34 5 -34 16v5q0 16 10 128v21h-26h-38l-32 -4h-18q-36 0 -75 -15h-4q-23 0 -34 29q0 42 110 42q0 7 95 17zM261 381q32 4 38 -20l15 -56q14 -55 27 -59l65 -5l25 -2q31 -2 50 -30v-3q-13 -29 -29 -39
l-19 2l-14 4l-4 -3h-4l-11 5l-22 -2l-14 5q-158 -3 -295 -22q-1 -9 -49 -11l-20 32l1 7q2 18 8 18l-3 4v3q1 6 27 13l18 -5l57 10l-2 19h3l-2 38l-8 36l-7 26q4 22 13 21q39 -3 52 -55l23 -64l18 -5q64 -3 66 16l-7 48l-8 41q-6 24 12 33z" />
    <glyph glyph-name="uniAD54" unicode="&#xad54;" horiz-adv-x="446" 
d="M162 733l48 -4l22 4v-4l4 4q115 0 140 -36l-11 -78l-9 -26l-8 -60v-12q0 -10 -28 -16l-28 16l-4 4v12q0 62 16 102q-6 28 -30 28l-4 -4l-22 4l-50 -4q-65 0 -70 42v4q12 24 34 24zM127 262h4q35 -12 35 -82q0 -37 65 -43l4 4h4l5 -4h4l78 8l4 -4v-8q0 -57 -82 -57
q0 -8 -74 -8h-8l-5 4l-4 -4h-4q-19 0 -35 73h5l-5 4v5l-4 103zM231 531q26 -2 31 -41l2 -25q4 -35 17 -39l65 -5l25 -2q31 -2 50 -30v-3q-13 -29 -29 -39l-19 2l-14 4l-4 -3h-4l-11 5l-22 -2l-14 5q-118 -3 -235 -22q-1 -9 -49 -11l-20 32l1 7q2 18 8 18l18 10l24 5l37 10
l-2 12l3 7l-5 43l-4 30l13 17q27 3 33 -17q13 -27 15 -49l7 -29l30 2q24 -3 26 16l3 28l2 31q4 24 22 33z" />
    <glyph glyph-name="uniAD58" unicode="&#xad58;" horiz-adv-x="446" 
d="M162 815l48 -4l22 4v-4l4 4q115 0 140 -36l-11 -78l-9 -26l-8 -60v-12q0 -10 -28 -16l-28 16l-4 4v12q0 62 16 102q-6 28 -30 28l-4 -4l-22 4l-50 -4q-65 0 -70 42v4q12 24 34 24zM231 613q26 -2 31 -41l2 -25q4 -35 17 -39l65 -5l25 -2q31 -2 50 -30v-3q-13 -29 -29 -39
l-19 2l-14 4l-4 -3h-4l-11 5l-22 -2l-14 5q-118 -3 -235 -22q-1 -9 -49 -11l-20 32l1 7q2 18 8 18l18 10l24 5l37 10l-2 12l3 7l-5 43l-4 30l13 17q27 3 33 -17q13 -27 15 -49l7 -29l30 2q24 -3 26 16l3 28l2 31q4 24 22 33zM265 368l69 -14l11 -18l-8 -48l8 -6l-5 -4l8 -43
q0 -44 -118 -54l-84 -40q-16 0 -25 -65q35 -15 54 -15l21 5l5 -5h3l21 5h22l15 -15v-7q0 -7 -11 -7l3 -19l-21 -18h-22l-119 -14q-33 0 -40 65l8 18l-4 3l7 32l-3 12l21 46q57 48 80 48v-4l97 36v-4q36 16 36 36v25q-18 26 -58 26h-11l-21 -5l-21 -4l-30 9q-21 9 -21 14
q6 29 133 29z" />
    </font>
</defs>
</svg>
